<?xml version="1.0" encoding="UTF-8" standalone="no"?>
<!DOCTYPE svg PUBLIC "-//W3C//DTD SVG 1.1//EN"
 "http://www.w3.org/Graphics/SVG/1.1/DTD/svg11.dtd">
<!-- Generated by graphviz version 3.0.0 (20220226.1711)
 -->
<!-- Pages: 1 -->
<svg width="419pt" height="637pt"
 viewBox="0.00 0.00 419.00 637.00" xmlns="http://www.w3.org/2000/svg" xmlns:xlink="http://www.w3.org/1999/xlink">
<g id="graph0" class="graph" transform="scale(1 1) rotate(0) translate(4 633)">
<polygon fill="white" stroke="transparent" points="-4,4 -4,-633 415,-633 415,4 -4,4"/>
<!-- tablaSimbolos -->
<g id="node1" class="node">
<title>tablaSimbolos</title>
<polygon fill="none" stroke="black" points="8.5,-603.5 8.5,-624.5 118.5,-624.5 118.5,-603.5 8.5,-603.5"/>
<text text-anchor="start" x="57" y="-610.3" font-family="Times New Roman,serif" font-size="14.00">Id</text>
<polygon fill="none" stroke="black" points="118.5,-603.5 118.5,-624.5 202.5,-624.5 202.5,-603.5 118.5,-603.5"/>
<text text-anchor="start" x="121.5" y="-610.3" font-family="Times New Roman,serif" font-size="14.00">Tipo símbolo</text>
<polygon fill="none" stroke="black" points="202.5,-603.5 202.5,-624.5 270.5,-624.5 270.5,-603.5 202.5,-603.5"/>
<text text-anchor="start" x="208.5" y="-610.3" font-family="Times New Roman,serif" font-size="14.00">Tipo dato</text>
<polygon fill="none" stroke="black" points="270.5,-603.5 270.5,-624.5 319.5,-624.5 319.5,-603.5 270.5,-603.5"/>
<text text-anchor="start" x="273.5" y="-610.3" font-family="Times New Roman,serif" font-size="14.00">Ámbito</text>
<polygon fill="none" stroke="black" points="319.5,-603.5 319.5,-624.5 346.5,-624.5 346.5,-603.5 319.5,-603.5"/>
<text text-anchor="start" x="322.5" y="-610.3" font-family="Times New Roman,serif" font-size="14.00">Fila</text>
<polygon fill="none" stroke="black" points="346.5,-603.5 346.5,-624.5 403.5,-624.5 403.5,-603.5 346.5,-603.5"/>
<text text-anchor="start" x="349.5" y="-610.3" font-family="Times New Roman,serif" font-size="14.00">Columna</text>
<polygon fill="none" stroke="black" points="8.5,-578.5 8.5,-603.5 118.5,-603.5 118.5,-578.5 8.5,-578.5"/>
<text text-anchor="start" x="37" y="-587.3" font-family="Times New Roman,serif" font-size="14.00">StructArr</text>
<polygon fill="none" stroke="black" points="118.5,-578.5 118.5,-603.5 202.5,-603.5 202.5,-578.5 118.5,-578.5"/>
<text text-anchor="start" x="125.5" y="-587.3" font-family="Times New Roman,serif" font-size="14.00">VARIABLE</text>
<polygon fill="none" stroke="black" points="202.5,-578.5 202.5,-603.5 270.5,-603.5 270.5,-578.5 202.5,-578.5"/>
<text text-anchor="start" x="208.5" y="-587.3" font-family="Times New Roman,serif" font-size="14.00">STRUCT</text>
<polygon fill="none" stroke="black" points="270.5,-578.5 270.5,-603.5 319.5,-603.5 319.5,-578.5 270.5,-578.5"/>
<text text-anchor="start" x="276" y="-587.3" font-family="Times New Roman,serif" font-size="14.00">Global</text>
<polygon fill="none" stroke="black" points="319.5,-578.5 319.5,-603.5 346.5,-603.5 346.5,-578.5 319.5,-578.5"/>
<text text-anchor="start" x="329.5" y="-587.3" font-family="Times New Roman,serif" font-size="14.00">1</text>
<polygon fill="none" stroke="black" points="346.5,-578.5 346.5,-603.5 403.5,-603.5 403.5,-578.5 346.5,-578.5"/>
<text text-anchor="start" x="371.5" y="-587.3" font-family="Times New Roman,serif" font-size="14.00">7</text>
<polygon fill="none" stroke="black" points="8.5,-553.5 8.5,-578.5 118.5,-578.5 118.5,-553.5 8.5,-553.5"/>
<text text-anchor="start" x="19" y="-562.3" font-family="Times New Roman,serif" font-size="14.00">CentroTuristico</text>
<polygon fill="none" stroke="black" points="118.5,-553.5 118.5,-578.5 202.5,-578.5 202.5,-553.5 118.5,-553.5"/>
<text text-anchor="start" x="125.5" y="-562.3" font-family="Times New Roman,serif" font-size="14.00">VARIABLE</text>
<polygon fill="none" stroke="black" points="202.5,-553.5 202.5,-578.5 270.5,-578.5 270.5,-553.5 202.5,-553.5"/>
<text text-anchor="start" x="208.5" y="-562.3" font-family="Times New Roman,serif" font-size="14.00">STRUCT</text>
<polygon fill="none" stroke="black" points="270.5,-553.5 270.5,-578.5 319.5,-578.5 319.5,-553.5 270.5,-553.5"/>
<text text-anchor="start" x="276" y="-562.3" font-family="Times New Roman,serif" font-size="14.00">Global</text>
<polygon fill="none" stroke="black" points="319.5,-553.5 319.5,-578.5 346.5,-578.5 346.5,-553.5 319.5,-553.5"/>
<text text-anchor="start" x="329.5" y="-562.3" font-family="Times New Roman,serif" font-size="14.00">5</text>
<polygon fill="none" stroke="black" points="346.5,-553.5 346.5,-578.5 403.5,-578.5 403.5,-553.5 346.5,-553.5"/>
<text text-anchor="start" x="371.5" y="-562.3" font-family="Times New Roman,serif" font-size="14.00">7</text>
<polygon fill="none" stroke="black" points="8.5,-528.5 8.5,-553.5 118.5,-553.5 118.5,-528.5 8.5,-528.5"/>
<text text-anchor="start" x="47" y="-537.3" font-family="Times New Roman,serif" font-size="14.00">Carro</text>
<polygon fill="none" stroke="black" points="118.5,-528.5 118.5,-553.5 202.5,-553.5 202.5,-528.5 118.5,-528.5"/>
<text text-anchor="start" x="125.5" y="-537.3" font-family="Times New Roman,serif" font-size="14.00">VARIABLE</text>
<polygon fill="none" stroke="black" points="202.5,-528.5 202.5,-553.5 270.5,-553.5 270.5,-528.5 202.5,-528.5"/>
<text text-anchor="start" x="208.5" y="-537.3" font-family="Times New Roman,serif" font-size="14.00">STRUCT</text>
<polygon fill="none" stroke="black" points="270.5,-528.5 270.5,-553.5 319.5,-553.5 319.5,-528.5 270.5,-528.5"/>
<text text-anchor="start" x="276" y="-537.3" font-family="Times New Roman,serif" font-size="14.00">Global</text>
<polygon fill="none" stroke="black" points="319.5,-528.5 319.5,-553.5 346.5,-553.5 346.5,-528.5 319.5,-528.5"/>
<text text-anchor="start" x="329.5" y="-537.3" font-family="Times New Roman,serif" font-size="14.00">9</text>
<polygon fill="none" stroke="black" points="346.5,-528.5 346.5,-553.5 403.5,-553.5 403.5,-528.5 346.5,-528.5"/>
<text text-anchor="start" x="371.5" y="-537.3" font-family="Times New Roman,serif" font-size="14.00">7</text>
<polygon fill="none" stroke="black" points="8.5,-503.5 8.5,-528.5 118.5,-528.5 118.5,-503.5 8.5,-503.5"/>
<text text-anchor="start" x="36" y="-512.3" font-family="Times New Roman,serif" font-size="14.00">Personaje</text>
<polygon fill="none" stroke="black" points="118.5,-503.5 118.5,-528.5 202.5,-528.5 202.5,-503.5 118.5,-503.5"/>
<text text-anchor="start" x="125.5" y="-512.3" font-family="Times New Roman,serif" font-size="14.00">VARIABLE</text>
<polygon fill="none" stroke="black" points="202.5,-503.5 202.5,-528.5 270.5,-528.5 270.5,-503.5 202.5,-503.5"/>
<text text-anchor="start" x="208.5" y="-512.3" font-family="Times New Roman,serif" font-size="14.00">STRUCT</text>
<polygon fill="none" stroke="black" points="270.5,-503.5 270.5,-528.5 319.5,-528.5 319.5,-503.5 270.5,-503.5"/>
<text text-anchor="start" x="276" y="-512.3" font-family="Times New Roman,serif" font-size="14.00">Global</text>
<polygon fill="none" stroke="black" points="319.5,-503.5 319.5,-528.5 346.5,-528.5 346.5,-503.5 319.5,-503.5"/>
<text text-anchor="start" x="326" y="-512.3" font-family="Times New Roman,serif" font-size="14.00">15</text>
<polygon fill="none" stroke="black" points="346.5,-503.5 346.5,-528.5 403.5,-528.5 403.5,-503.5 346.5,-503.5"/>
<text text-anchor="start" x="371.5" y="-512.3" font-family="Times New Roman,serif" font-size="14.00">7</text>
<polygon fill="none" stroke="black" points="8.5,-478.5 8.5,-503.5 118.5,-503.5 118.5,-478.5 8.5,-478.5"/>
<text text-anchor="start" x="13.5" y="-487.3" font-family="Times New Roman,serif" font-size="14.00">creandoPersonaje</text>
<polygon fill="none" stroke="black" points="118.5,-478.5 118.5,-503.5 202.5,-503.5 202.5,-478.5 118.5,-478.5"/>
<text text-anchor="start" x="129" y="-487.3" font-family="Times New Roman,serif" font-size="14.00">FUNCION</text>
<polygon fill="none" stroke="black" points="202.5,-478.5 202.5,-503.5 270.5,-503.5 270.5,-478.5 202.5,-478.5"/>
<text text-anchor="start" x="209" y="-487.3" font-family="Times New Roman,serif" font-size="14.00">Personaje</text>
<polygon fill="none" stroke="black" points="270.5,-478.5 270.5,-503.5 319.5,-503.5 319.5,-478.5 270.5,-478.5"/>
<text text-anchor="start" x="276" y="-487.3" font-family="Times New Roman,serif" font-size="14.00">Global</text>
<polygon fill="none" stroke="black" points="319.5,-478.5 319.5,-503.5 346.5,-503.5 346.5,-478.5 319.5,-478.5"/>
<text text-anchor="start" x="326" y="-487.3" font-family="Times New Roman,serif" font-size="14.00">71</text>
<polygon fill="none" stroke="black" points="346.5,-478.5 346.5,-503.5 403.5,-503.5 403.5,-478.5 346.5,-478.5"/>
<text text-anchor="start" x="371.5" y="-487.3" font-family="Times New Roman,serif" font-size="14.00">0</text>
<polygon fill="none" stroke="black" points="8.5,-453.5 8.5,-478.5 118.5,-478.5 118.5,-453.5 8.5,-453.5"/>
<text text-anchor="start" x="60" y="-462.3" font-family="Times New Roman,serif" font-size="14.00">v</text>
<polygon fill="none" stroke="black" points="118.5,-453.5 118.5,-478.5 202.5,-478.5 202.5,-453.5 118.5,-453.5"/>
<text text-anchor="start" x="125.5" y="-462.3" font-family="Times New Roman,serif" font-size="14.00">VARIABLE</text>
<polygon fill="none" stroke="black" points="202.5,-453.5 202.5,-478.5 270.5,-478.5 270.5,-453.5 202.5,-453.5"/>
<text text-anchor="start" x="207.5" y="-462.3" font-family="Times New Roman,serif" font-size="14.00">VECTOR</text>
<polygon fill="none" stroke="black" points="270.5,-453.5 270.5,-478.5 319.5,-478.5 319.5,-453.5 270.5,-453.5"/>
<text text-anchor="start" x="279" y="-462.3" font-family="Times New Roman,serif" font-size="14.00">Local</text>
<polygon fill="none" stroke="black" points="319.5,-453.5 319.5,-478.5 346.5,-478.5 346.5,-453.5 319.5,-453.5"/>
<text text-anchor="start" x="326" y="-462.3" font-family="Times New Roman,serif" font-size="14.00">28</text>
<polygon fill="none" stroke="black" points="346.5,-453.5 346.5,-478.5 403.5,-478.5 403.5,-453.5 346.5,-453.5"/>
<text text-anchor="start" x="371.5" y="-462.3" font-family="Times New Roman,serif" font-size="14.00">4</text>
<polygon fill="none" stroke="black" points="8.5,-428.5 8.5,-453.5 118.5,-453.5 118.5,-428.5 8.5,-428.5"/>
<text text-anchor="start" x="42" y="-437.3" font-family="Times New Roman,serif" font-size="14.00">nombre</text>
<polygon fill="none" stroke="black" points="118.5,-428.5 118.5,-453.5 202.5,-453.5 202.5,-428.5 118.5,-428.5"/>
<text text-anchor="start" x="125.5" y="-437.3" font-family="Times New Roman,serif" font-size="14.00">VARIABLE</text>
<polygon fill="none" stroke="black" points="202.5,-428.5 202.5,-453.5 270.5,-453.5 270.5,-428.5 202.5,-428.5"/>
<text text-anchor="start" x="210.5" y="-437.3" font-family="Times New Roman,serif" font-size="14.00">STRING</text>
<polygon fill="none" stroke="black" points="270.5,-428.5 270.5,-453.5 319.5,-453.5 319.5,-428.5 270.5,-428.5"/>
<text text-anchor="start" x="279" y="-437.3" font-family="Times New Roman,serif" font-size="14.00">Local</text>
<polygon fill="none" stroke="black" points="319.5,-428.5 319.5,-453.5 346.5,-453.5 346.5,-428.5 319.5,-428.5"/>
<text text-anchor="start" x="326" y="-437.3" font-family="Times New Roman,serif" font-size="14.00">30</text>
<polygon fill="none" stroke="black" points="346.5,-428.5 346.5,-453.5 403.5,-453.5 403.5,-428.5 346.5,-428.5"/>
<text text-anchor="start" x="368" y="-437.3" font-family="Times New Roman,serif" font-size="14.00">27</text>
<polygon fill="none" stroke="black" points="8.5,-403.5 8.5,-428.5 118.5,-428.5 118.5,-403.5 8.5,-403.5"/>
<text text-anchor="start" x="42" y="-412.3" font-family="Times New Roman,serif" font-size="14.00">nombre</text>
<polygon fill="none" stroke="black" points="118.5,-403.5 118.5,-428.5 202.5,-428.5 202.5,-403.5 118.5,-403.5"/>
<text text-anchor="start" x="125.5" y="-412.3" font-family="Times New Roman,serif" font-size="14.00">VARIABLE</text>
<polygon fill="none" stroke="black" points="202.5,-403.5 202.5,-428.5 270.5,-428.5 270.5,-403.5 202.5,-403.5"/>
<text text-anchor="start" x="210.5" y="-412.3" font-family="Times New Roman,serif" font-size="14.00">STRING</text>
<polygon fill="none" stroke="black" points="270.5,-403.5 270.5,-428.5 319.5,-428.5 319.5,-403.5 270.5,-403.5"/>
<text text-anchor="start" x="279" y="-412.3" font-family="Times New Roman,serif" font-size="14.00">Local</text>
<polygon fill="none" stroke="black" points="319.5,-403.5 319.5,-428.5 346.5,-428.5 346.5,-403.5 319.5,-403.5"/>
<text text-anchor="start" x="326" y="-412.3" font-family="Times New Roman,serif" font-size="14.00">31</text>
<polygon fill="none" stroke="black" points="346.5,-403.5 346.5,-428.5 403.5,-428.5 403.5,-403.5 346.5,-403.5"/>
<text text-anchor="start" x="368" y="-412.3" font-family="Times New Roman,serif" font-size="14.00">27</text>
<polygon fill="none" stroke="black" points="8.5,-378.5 8.5,-403.5 118.5,-403.5 118.5,-378.5 8.5,-378.5"/>
<text text-anchor="start" x="42" y="-387.3" font-family="Times New Roman,serif" font-size="14.00">nombre</text>
<polygon fill="none" stroke="black" points="118.5,-378.5 118.5,-403.5 202.5,-403.5 202.5,-378.5 118.5,-378.5"/>
<text text-anchor="start" x="125.5" y="-387.3" font-family="Times New Roman,serif" font-size="14.00">VARIABLE</text>
<polygon fill="none" stroke="black" points="202.5,-378.5 202.5,-403.5 270.5,-403.5 270.5,-378.5 202.5,-378.5"/>
<text text-anchor="start" x="210.5" y="-387.3" font-family="Times New Roman,serif" font-size="14.00">STRING</text>
<polygon fill="none" stroke="black" points="270.5,-378.5 270.5,-403.5 319.5,-403.5 319.5,-378.5 270.5,-378.5"/>
<text text-anchor="start" x="279" y="-387.3" font-family="Times New Roman,serif" font-size="14.00">Local</text>
<polygon fill="none" stroke="black" points="319.5,-378.5 319.5,-403.5 346.5,-403.5 346.5,-378.5 319.5,-378.5"/>
<text text-anchor="start" x="326" y="-387.3" font-family="Times New Roman,serif" font-size="14.00">32</text>
<polygon fill="none" stroke="black" points="346.5,-378.5 346.5,-403.5 403.5,-403.5 403.5,-378.5 346.5,-378.5"/>
<text text-anchor="start" x="368" y="-387.3" font-family="Times New Roman,serif" font-size="14.00">27</text>
<polygon fill="none" stroke="black" points="8.5,-353.5 8.5,-378.5 118.5,-378.5 118.5,-353.5 8.5,-353.5"/>
<text text-anchor="start" x="42" y="-362.3" font-family="Times New Roman,serif" font-size="14.00">nombre</text>
<polygon fill="none" stroke="black" points="118.5,-353.5 118.5,-378.5 202.5,-378.5 202.5,-353.5 118.5,-353.5"/>
<text text-anchor="start" x="125.5" y="-362.3" font-family="Times New Roman,serif" font-size="14.00">VARIABLE</text>
<polygon fill="none" stroke="black" points="202.5,-353.5 202.5,-378.5 270.5,-378.5 270.5,-353.5 202.5,-353.5"/>
<text text-anchor="start" x="210.5" y="-362.3" font-family="Times New Roman,serif" font-size="14.00">STRING</text>
<polygon fill="none" stroke="black" points="270.5,-353.5 270.5,-378.5 319.5,-378.5 319.5,-353.5 270.5,-353.5"/>
<text text-anchor="start" x="279" y="-362.3" font-family="Times New Roman,serif" font-size="14.00">Local</text>
<polygon fill="none" stroke="black" points="319.5,-353.5 319.5,-378.5 346.5,-378.5 346.5,-353.5 319.5,-353.5"/>
<text text-anchor="start" x="326" y="-362.3" font-family="Times New Roman,serif" font-size="14.00">33</text>
<polygon fill="none" stroke="black" points="346.5,-353.5 346.5,-378.5 403.5,-378.5 403.5,-353.5 346.5,-353.5"/>
<text text-anchor="start" x="368" y="-362.3" font-family="Times New Roman,serif" font-size="14.00">27</text>
<polygon fill="none" stroke="black" points="8.5,-328.5 8.5,-353.5 118.5,-353.5 118.5,-328.5 8.5,-328.5"/>
<text text-anchor="start" x="42" y="-337.3" font-family="Times New Roman,serif" font-size="14.00">nombre</text>
<polygon fill="none" stroke="black" points="118.5,-328.5 118.5,-353.5 202.5,-353.5 202.5,-328.5 118.5,-328.5"/>
<text text-anchor="start" x="125.5" y="-337.3" font-family="Times New Roman,serif" font-size="14.00">VARIABLE</text>
<polygon fill="none" stroke="black" points="202.5,-328.5 202.5,-353.5 270.5,-353.5 270.5,-328.5 202.5,-328.5"/>
<text text-anchor="start" x="210.5" y="-337.3" font-family="Times New Roman,serif" font-size="14.00">STRING</text>
<polygon fill="none" stroke="black" points="270.5,-328.5 270.5,-353.5 319.5,-353.5 319.5,-328.5 270.5,-328.5"/>
<text text-anchor="start" x="279" y="-337.3" font-family="Times New Roman,serif" font-size="14.00">Local</text>
<polygon fill="none" stroke="black" points="319.5,-328.5 319.5,-353.5 346.5,-353.5 346.5,-328.5 319.5,-328.5"/>
<text text-anchor="start" x="326" y="-337.3" font-family="Times New Roman,serif" font-size="14.00">34</text>
<polygon fill="none" stroke="black" points="346.5,-328.5 346.5,-353.5 403.5,-353.5 403.5,-328.5 346.5,-328.5"/>
<text text-anchor="start" x="368" y="-337.3" font-family="Times New Roman,serif" font-size="14.00">27</text>
<polygon fill="none" stroke="black" points="8.5,-303.5 8.5,-328.5 118.5,-328.5 118.5,-303.5 8.5,-303.5"/>
<text text-anchor="start" x="42" y="-312.3" font-family="Times New Roman,serif" font-size="14.00">nombre</text>
<polygon fill="none" stroke="black" points="118.5,-303.5 118.5,-328.5 202.5,-328.5 202.5,-303.5 118.5,-303.5"/>
<text text-anchor="start" x="125.5" y="-312.3" font-family="Times New Roman,serif" font-size="14.00">VARIABLE</text>
<polygon fill="none" stroke="black" points="202.5,-303.5 202.5,-328.5 270.5,-328.5 270.5,-303.5 202.5,-303.5"/>
<text text-anchor="start" x="210.5" y="-312.3" font-family="Times New Roman,serif" font-size="14.00">STRING</text>
<polygon fill="none" stroke="black" points="270.5,-303.5 270.5,-328.5 319.5,-328.5 319.5,-303.5 270.5,-303.5"/>
<text text-anchor="start" x="279" y="-312.3" font-family="Times New Roman,serif" font-size="14.00">Local</text>
<polygon fill="none" stroke="black" points="319.5,-303.5 319.5,-328.5 346.5,-328.5 346.5,-303.5 319.5,-303.5"/>
<text text-anchor="start" x="326" y="-312.3" font-family="Times New Roman,serif" font-size="14.00">35</text>
<polygon fill="none" stroke="black" points="346.5,-303.5 346.5,-328.5 403.5,-328.5 403.5,-303.5 346.5,-303.5"/>
<text text-anchor="start" x="368" y="-312.3" font-family="Times New Roman,serif" font-size="14.00">27</text>
<polygon fill="none" stroke="black" points="8.5,-278.5 8.5,-303.5 118.5,-303.5 118.5,-278.5 8.5,-278.5"/>
<text text-anchor="start" x="61.5" y="-287.3" font-family="Times New Roman,serif" font-size="14.00">i</text>
<polygon fill="none" stroke="black" points="118.5,-278.5 118.5,-303.5 202.5,-303.5 202.5,-278.5 118.5,-278.5"/>
<text text-anchor="start" x="125.5" y="-287.3" font-family="Times New Roman,serif" font-size="14.00">VARIABLE</text>
<polygon fill="none" stroke="black" points="202.5,-278.5 202.5,-303.5 270.5,-303.5 270.5,-278.5 202.5,-278.5"/>
<text text-anchor="start" x="227" y="-287.3" font-family="Times New Roman,serif" font-size="14.00">I64</text>
<polygon fill="none" stroke="black" points="270.5,-278.5 270.5,-303.5 319.5,-303.5 319.5,-278.5 270.5,-278.5"/>
<text text-anchor="start" x="279" y="-287.3" font-family="Times New Roman,serif" font-size="14.00">Local</text>
<polygon fill="none" stroke="black" points="319.5,-278.5 319.5,-303.5 346.5,-303.5 346.5,-278.5 319.5,-278.5"/>
<text text-anchor="start" x="326" y="-287.3" font-family="Times New Roman,serif" font-size="14.00">37</text>
<polygon fill="none" stroke="black" points="346.5,-278.5 346.5,-303.5 403.5,-303.5 403.5,-278.5 346.5,-278.5"/>
<text text-anchor="start" x="371.5" y="-287.3" font-family="Times New Roman,serif" font-size="14.00">4</text>
<polygon fill="none" stroke="black" points="8.5,-253.5 8.5,-278.5 118.5,-278.5 118.5,-253.5 8.5,-253.5"/>
<text text-anchor="start" x="48" y="-262.3" font-family="Times New Roman,serif" font-size="14.00">datos</text>
<polygon fill="none" stroke="black" points="118.5,-253.5 118.5,-278.5 202.5,-278.5 202.5,-253.5 118.5,-253.5"/>
<text text-anchor="start" x="125.5" y="-262.3" font-family="Times New Roman,serif" font-size="14.00">VARIABLE</text>
<polygon fill="none" stroke="black" points="202.5,-253.5 202.5,-278.5 270.5,-278.5 270.5,-253.5 202.5,-253.5"/>
<text text-anchor="start" x="212" y="-262.3" font-family="Times New Roman,serif" font-size="14.00">ARRAY</text>
<polygon fill="none" stroke="black" points="270.5,-253.5 270.5,-278.5 319.5,-278.5 319.5,-253.5 270.5,-253.5"/>
<text text-anchor="start" x="279" y="-262.3" font-family="Times New Roman,serif" font-size="14.00">Local</text>
<polygon fill="none" stroke="black" points="319.5,-253.5 319.5,-278.5 346.5,-278.5 346.5,-253.5 319.5,-253.5"/>
<text text-anchor="start" x="326" y="-262.3" font-family="Times New Roman,serif" font-size="14.00">44</text>
<polygon fill="none" stroke="black" points="346.5,-253.5 346.5,-278.5 403.5,-278.5 403.5,-253.5 346.5,-253.5"/>
<text text-anchor="start" x="371.5" y="-262.3" font-family="Times New Roman,serif" font-size="14.00">8</text>
<polygon fill="none" stroke="black" points="8.5,-228.5 8.5,-253.5 118.5,-253.5 118.5,-228.5 8.5,-228.5"/>
<text text-anchor="start" x="56.5" y="-237.3" font-family="Times New Roman,serif" font-size="14.00">da</text>
<polygon fill="none" stroke="black" points="118.5,-228.5 118.5,-253.5 202.5,-253.5 202.5,-228.5 118.5,-228.5"/>
<text text-anchor="start" x="125.5" y="-237.3" font-family="Times New Roman,serif" font-size="14.00">VARIABLE</text>
<polygon fill="none" stroke="black" points="202.5,-228.5 202.5,-253.5 270.5,-253.5 270.5,-228.5 202.5,-228.5"/>
<text text-anchor="start" x="208.5" y="-237.3" font-family="Times New Roman,serif" font-size="14.00">STRUCT</text>
<polygon fill="none" stroke="black" points="270.5,-228.5 270.5,-253.5 319.5,-253.5 319.5,-228.5 270.5,-228.5"/>
<text text-anchor="start" x="279" y="-237.3" font-family="Times New Roman,serif" font-size="14.00">Local</text>
<polygon fill="none" stroke="black" points="319.5,-228.5 319.5,-253.5 346.5,-253.5 346.5,-228.5 319.5,-228.5"/>
<text text-anchor="start" x="326" y="-237.3" font-family="Times New Roman,serif" font-size="14.00">43</text>
<polygon fill="none" stroke="black" points="346.5,-228.5 346.5,-253.5 403.5,-253.5 403.5,-228.5 346.5,-228.5"/>
<text text-anchor="start" x="371.5" y="-237.3" font-family="Times New Roman,serif" font-size="14.00">4</text>
<polygon fill="none" stroke="black" points="8.5,-203.5 8.5,-228.5 118.5,-228.5 118.5,-203.5 8.5,-203.5"/>
<text text-anchor="start" x="42" y="-212.3" font-family="Times New Roman,serif" font-size="14.00">nombre</text>
<polygon fill="none" stroke="black" points="118.5,-203.5 118.5,-228.5 202.5,-228.5 202.5,-203.5 118.5,-203.5"/>
<text text-anchor="start" x="125.5" y="-212.3" font-family="Times New Roman,serif" font-size="14.00">VARIABLE</text>
<polygon fill="none" stroke="black" points="202.5,-203.5 202.5,-228.5 270.5,-228.5 270.5,-203.5 202.5,-203.5"/>
<text text-anchor="start" x="210.5" y="-212.3" font-family="Times New Roman,serif" font-size="14.00">STRING</text>
<polygon fill="none" stroke="black" points="270.5,-203.5 270.5,-228.5 319.5,-228.5 319.5,-203.5 270.5,-203.5"/>
<text text-anchor="start" x="279" y="-212.3" font-family="Times New Roman,serif" font-size="14.00">Local</text>
<polygon fill="none" stroke="black" points="319.5,-203.5 319.5,-228.5 346.5,-228.5 346.5,-203.5 319.5,-203.5"/>
<text text-anchor="start" x="326" y="-212.3" font-family="Times New Roman,serif" font-size="14.00">54</text>
<polygon fill="none" stroke="black" points="346.5,-203.5 346.5,-228.5 403.5,-228.5 403.5,-203.5 346.5,-203.5"/>
<text text-anchor="start" x="371.5" y="-212.3" font-family="Times New Roman,serif" font-size="14.00">8</text>
<polygon fill="none" stroke="black" points="8.5,-178.5 8.5,-203.5 118.5,-203.5 118.5,-178.5 8.5,-178.5"/>
<text text-anchor="start" x="49.5" y="-187.3" font-family="Times New Roman,serif" font-size="14.00">edad</text>
<polygon fill="none" stroke="black" points="118.5,-178.5 118.5,-203.5 202.5,-203.5 202.5,-178.5 118.5,-178.5"/>
<text text-anchor="start" x="125.5" y="-187.3" font-family="Times New Roman,serif" font-size="14.00">VARIABLE</text>
<polygon fill="none" stroke="black" points="202.5,-178.5 202.5,-203.5 270.5,-203.5 270.5,-178.5 202.5,-178.5"/>
<text text-anchor="start" x="227" y="-187.3" font-family="Times New Roman,serif" font-size="14.00">I64</text>
<polygon fill="none" stroke="black" points="270.5,-178.5 270.5,-203.5 319.5,-203.5 319.5,-178.5 270.5,-178.5"/>
<text text-anchor="start" x="279" y="-187.3" font-family="Times New Roman,serif" font-size="14.00">Local</text>
<polygon fill="none" stroke="black" points="319.5,-178.5 319.5,-203.5 346.5,-203.5 346.5,-178.5 319.5,-178.5"/>
<text text-anchor="start" x="326" y="-187.3" font-family="Times New Roman,serif" font-size="14.00">55</text>
<polygon fill="none" stroke="black" points="346.5,-178.5 346.5,-203.5 403.5,-203.5 403.5,-178.5 346.5,-178.5"/>
<text text-anchor="start" x="371.5" y="-187.3" font-family="Times New Roman,serif" font-size="14.00">8</text>
<polygon fill="none" stroke="black" points="8.5,-153.5 8.5,-178.5 118.5,-178.5 118.5,-153.5 8.5,-153.5"/>
<text text-anchor="start" x="30.5" y="-162.3" font-family="Times New Roman,serif" font-size="14.00">descripcion</text>
<polygon fill="none" stroke="black" points="118.5,-153.5 118.5,-178.5 202.5,-178.5 202.5,-153.5 118.5,-153.5"/>
<text text-anchor="start" x="125.5" y="-162.3" font-family="Times New Roman,serif" font-size="14.00">VARIABLE</text>
<polygon fill="none" stroke="black" points="202.5,-153.5 202.5,-178.5 270.5,-178.5 270.5,-153.5 202.5,-153.5"/>
<text text-anchor="start" x="210.5" y="-162.3" font-family="Times New Roman,serif" font-size="14.00">STRING</text>
<polygon fill="none" stroke="black" points="270.5,-153.5 270.5,-178.5 319.5,-178.5 319.5,-153.5 270.5,-153.5"/>
<text text-anchor="start" x="279" y="-162.3" font-family="Times New Roman,serif" font-size="14.00">Local</text>
<polygon fill="none" stroke="black" points="319.5,-153.5 319.5,-178.5 346.5,-178.5 346.5,-153.5 319.5,-153.5"/>
<text text-anchor="start" x="326" y="-162.3" font-family="Times New Roman,serif" font-size="14.00">56</text>
<polygon fill="none" stroke="black" points="346.5,-153.5 346.5,-178.5 403.5,-178.5 403.5,-153.5 346.5,-153.5"/>
<text text-anchor="start" x="371.5" y="-162.3" font-family="Times New Roman,serif" font-size="14.00">8</text>
<polygon fill="none" stroke="black" points="8.5,-128.5 8.5,-153.5 118.5,-153.5 118.5,-128.5 8.5,-128.5"/>
<text text-anchor="start" x="48.5" y="-137.3" font-family="Times New Roman,serif" font-size="14.00">placa</text>
<polygon fill="none" stroke="black" points="118.5,-128.5 118.5,-153.5 202.5,-153.5 202.5,-128.5 118.5,-128.5"/>
<text text-anchor="start" x="125.5" y="-137.3" font-family="Times New Roman,serif" font-size="14.00">VARIABLE</text>
<polygon fill="none" stroke="black" points="202.5,-128.5 202.5,-153.5 270.5,-153.5 270.5,-128.5 202.5,-128.5"/>
<text text-anchor="start" x="210.5" y="-137.3" font-family="Times New Roman,serif" font-size="14.00">STRING</text>
<polygon fill="none" stroke="black" points="270.5,-128.5 270.5,-153.5 319.5,-153.5 319.5,-128.5 270.5,-128.5"/>
<text text-anchor="start" x="279" y="-137.3" font-family="Times New Roman,serif" font-size="14.00">Local</text>
<polygon fill="none" stroke="black" points="319.5,-128.5 319.5,-153.5 346.5,-153.5 346.5,-128.5 319.5,-128.5"/>
<text text-anchor="start" x="326" y="-137.3" font-family="Times New Roman,serif" font-size="14.00">57</text>
<polygon fill="none" stroke="black" points="346.5,-128.5 346.5,-153.5 403.5,-153.5 403.5,-128.5 346.5,-128.5"/>
<text text-anchor="start" x="368" y="-137.3" font-family="Times New Roman,serif" font-size="14.00">24</text>
<polygon fill="none" stroke="black" points="8.5,-103.5 8.5,-128.5 118.5,-128.5 118.5,-103.5 8.5,-103.5"/>
<text text-anchor="start" x="48.5" y="-112.3" font-family="Times New Roman,serif" font-size="14.00">color</text>
<polygon fill="none" stroke="black" points="118.5,-103.5 118.5,-128.5 202.5,-128.5 202.5,-103.5 118.5,-103.5"/>
<text text-anchor="start" x="125.5" y="-112.3" font-family="Times New Roman,serif" font-size="14.00">VARIABLE</text>
<polygon fill="none" stroke="black" points="202.5,-103.5 202.5,-128.5 270.5,-128.5 270.5,-103.5 202.5,-103.5"/>
<text text-anchor="start" x="210.5" y="-112.3" font-family="Times New Roman,serif" font-size="14.00">STRING</text>
<polygon fill="none" stroke="black" points="270.5,-103.5 270.5,-128.5 319.5,-128.5 319.5,-103.5 270.5,-103.5"/>
<text text-anchor="start" x="279" y="-112.3" font-family="Times New Roman,serif" font-size="14.00">Local</text>
<polygon fill="none" stroke="black" points="319.5,-103.5 319.5,-128.5 346.5,-128.5 346.5,-103.5 319.5,-103.5"/>
<text text-anchor="start" x="326" y="-112.3" font-family="Times New Roman,serif" font-size="14.00">58</text>
<polygon fill="none" stroke="black" points="346.5,-103.5 346.5,-128.5 403.5,-128.5 403.5,-103.5 346.5,-103.5"/>
<text text-anchor="start" x="368" y="-112.3" font-family="Times New Roman,serif" font-size="14.00">24</text>
<polygon fill="none" stroke="black" points="8.5,-78.5 8.5,-103.5 118.5,-103.5 118.5,-78.5 8.5,-78.5"/>
<text text-anchor="start" x="52.5" y="-87.3" font-family="Times New Roman,serif" font-size="14.00">tipo</text>
<polygon fill="none" stroke="black" points="118.5,-78.5 118.5,-103.5 202.5,-103.5 202.5,-78.5 118.5,-78.5"/>
<text text-anchor="start" x="125.5" y="-87.3" font-family="Times New Roman,serif" font-size="14.00">VARIABLE</text>
<polygon fill="none" stroke="black" points="202.5,-78.5 202.5,-103.5 270.5,-103.5 270.5,-78.5 202.5,-78.5"/>
<text text-anchor="start" x="210.5" y="-87.3" font-family="Times New Roman,serif" font-size="14.00">STRING</text>
<polygon fill="none" stroke="black" points="270.5,-78.5 270.5,-103.5 319.5,-103.5 319.5,-78.5 270.5,-78.5"/>
<text text-anchor="start" x="279" y="-87.3" font-family="Times New Roman,serif" font-size="14.00">Local</text>
<polygon fill="none" stroke="black" points="319.5,-78.5 319.5,-103.5 346.5,-103.5 346.5,-78.5 319.5,-78.5"/>
<text text-anchor="start" x="326" y="-87.3" font-family="Times New Roman,serif" font-size="14.00">59</text>
<polygon fill="none" stroke="black" points="346.5,-78.5 346.5,-103.5 403.5,-103.5 403.5,-78.5 346.5,-78.5"/>
<text text-anchor="start" x="368" y="-87.3" font-family="Times New Roman,serif" font-size="14.00">24</text>
<polygon fill="none" stroke="black" points="8.5,-53.5 8.5,-78.5 118.5,-78.5 118.5,-53.5 8.5,-53.5"/>
<text text-anchor="start" x="45" y="-62.3" font-family="Times New Roman,serif" font-size="14.00">carro_</text>
<polygon fill="none" stroke="black" points="118.5,-53.5 118.5,-78.5 202.5,-78.5 202.5,-53.5 118.5,-53.5"/>
<text text-anchor="start" x="125.5" y="-62.3" font-family="Times New Roman,serif" font-size="14.00">VARIABLE</text>
<polygon fill="none" stroke="black" points="202.5,-53.5 202.5,-78.5 270.5,-78.5 270.5,-53.5 202.5,-53.5"/>
<text text-anchor="start" x="208.5" y="-62.3" font-family="Times New Roman,serif" font-size="14.00">STRUCT</text>
<polygon fill="none" stroke="black" points="270.5,-53.5 270.5,-78.5 319.5,-78.5 319.5,-53.5 270.5,-53.5"/>
<text text-anchor="start" x="279" y="-62.3" font-family="Times New Roman,serif" font-size="14.00">Local</text>
<polygon fill="none" stroke="black" points="319.5,-53.5 319.5,-78.5 346.5,-78.5 346.5,-53.5 319.5,-53.5"/>
<text text-anchor="start" x="326" y="-62.3" font-family="Times New Roman,serif" font-size="14.00">57</text>
<polygon fill="none" stroke="black" points="346.5,-53.5 346.5,-78.5 403.5,-78.5 403.5,-53.5 346.5,-53.5"/>
<text text-anchor="start" x="371.5" y="-62.3" font-family="Times New Roman,serif" font-size="14.00">8</text>
<polygon fill="none" stroke="black" points="8.5,-28.5 8.5,-53.5 118.5,-53.5 118.5,-28.5 8.5,-28.5"/>
<text text-anchor="start" x="39" y="-37.3" font-family="Times New Roman,serif" font-size="14.00">numeros</text>
<polygon fill="none" stroke="black" points="118.5,-28.5 118.5,-53.5 202.5,-53.5 202.5,-28.5 118.5,-28.5"/>
<text text-anchor="start" x="125.5" y="-37.3" font-family="Times New Roman,serif" font-size="14.00">VARIABLE</text>
<polygon fill="none" stroke="black" points="202.5,-28.5 202.5,-53.5 270.5,-53.5 270.5,-28.5 202.5,-28.5"/>
<text text-anchor="start" x="208.5" y="-37.3" font-family="Times New Roman,serif" font-size="14.00">STRUCT</text>
<polygon fill="none" stroke="black" points="270.5,-28.5 270.5,-53.5 319.5,-53.5 319.5,-28.5 270.5,-28.5"/>
<text text-anchor="start" x="279" y="-37.3" font-family="Times New Roman,serif" font-size="14.00">Local</text>
<polygon fill="none" stroke="black" points="319.5,-28.5 319.5,-53.5 346.5,-53.5 346.5,-28.5 319.5,-28.5"/>
<text text-anchor="start" x="326" y="-37.3" font-family="Times New Roman,serif" font-size="14.00">62</text>
<polygon fill="none" stroke="black" points="346.5,-28.5 346.5,-53.5 403.5,-53.5 403.5,-28.5 346.5,-28.5"/>
<text text-anchor="start" x="371.5" y="-37.3" font-family="Times New Roman,serif" font-size="14.00">8</text>
<polygon fill="none" stroke="black" points="8.5,-3.5 8.5,-28.5 118.5,-28.5 118.5,-3.5 8.5,-3.5"/>
<text text-anchor="start" x="56" y="-12.3" font-family="Times New Roman,serif" font-size="14.00">p1</text>
<polygon fill="none" stroke="black" points="118.5,-3.5 118.5,-28.5 202.5,-28.5 202.5,-3.5 118.5,-3.5"/>
<text text-anchor="start" x="125.5" y="-12.3" font-family="Times New Roman,serif" font-size="14.00">VARIABLE</text>
<polygon fill="none" stroke="black" points="202.5,-3.5 202.5,-28.5 270.5,-28.5 270.5,-3.5 202.5,-3.5"/>
<text text-anchor="start" x="208.5" y="-12.3" font-family="Times New Roman,serif" font-size="14.00">STRUCT</text>
<polygon fill="none" stroke="black" points="270.5,-3.5 270.5,-28.5 319.5,-28.5 319.5,-3.5 270.5,-3.5"/>
<text text-anchor="start" x="279" y="-12.3" font-family="Times New Roman,serif" font-size="14.00">Local</text>
<polygon fill="none" stroke="black" points="319.5,-3.5 319.5,-28.5 346.5,-28.5 346.5,-3.5 319.5,-3.5"/>
<text text-anchor="start" x="326" y="-12.3" font-family="Times New Roman,serif" font-size="14.00">53</text>
<polygon fill="none" stroke="black" points="346.5,-3.5 346.5,-28.5 403.5,-28.5 403.5,-3.5 346.5,-3.5"/>
<text text-anchor="start" x="371.5" y="-12.3" font-family="Times New Roman,serif" font-size="14.00">4</text>
</g>
</g>
</svg>
