<?xml version="1.0" encoding="UTF-8" standalone="no"?>
<!DOCTYPE svg PUBLIC "-//W3C//DTD SVG 1.1//EN"
 "http://www.w3.org/Graphics/SVG/1.1/DTD/svg11.dtd">
<!-- Generated by graphviz version 3.0.0 (20220226.1711)
 -->
<!-- Pages: 1 -->
<svg width="366pt" height="112pt"
 viewBox="0.00 0.00 366.00 112.00" xmlns="http://www.w3.org/2000/svg" xmlns:xlink="http://www.w3.org/1999/xlink">
<g id="graph0" class="graph" transform="scale(1 1) rotate(0) translate(4 108)">
<polygon fill="white" stroke="transparent" points="-4,4 -4,-108 362,-108 362,4 -4,4"/>
<!-- tablaSimbolos -->
<g id="node1" class="node">
<title>tablaSimbolos</title>
<polygon fill="none" stroke="black" points="8,-79 8,-100 65,-100 65,-79 8,-79"/>
<text text-anchor="start" x="30" y="-85.8" font-family="Times New Roman,serif" font-size="14.00">Id</text>
<polygon fill="none" stroke="black" points="65,-79 65,-100 149,-100 149,-79 65,-79"/>
<text text-anchor="start" x="68" y="-85.8" font-family="Times New Roman,serif" font-size="14.00">Tipo símbolo</text>
<polygon fill="none" stroke="black" points="149,-79 149,-100 217,-100 217,-79 149,-79"/>
<text text-anchor="start" x="155" y="-85.8" font-family="Times New Roman,serif" font-size="14.00">Tipo dato</text>
<polygon fill="none" stroke="black" points="217,-79 217,-100 266,-100 266,-79 217,-79"/>
<text text-anchor="start" x="220" y="-85.8" font-family="Times New Roman,serif" font-size="14.00">Ámbito</text>
<polygon fill="none" stroke="black" points="266,-79 266,-100 293,-100 293,-79 266,-79"/>
<text text-anchor="start" x="269" y="-85.8" font-family="Times New Roman,serif" font-size="14.00">Fila</text>
<polygon fill="none" stroke="black" points="293,-79 293,-100 350,-100 350,-79 293,-79"/>
<text text-anchor="start" x="296" y="-85.8" font-family="Times New Roman,serif" font-size="14.00">Columna</text>
<polygon fill="none" stroke="black" points="8,-54 8,-79 65,-79 65,-54 8,-54"/>
<text text-anchor="start" x="13" y="-62.8" font-family="Times New Roman,serif" font-size="14.00">imprimir</text>
<polygon fill="none" stroke="black" points="65,-54 65,-79 149,-79 149,-54 65,-54"/>
<text text-anchor="start" x="75.5" y="-62.8" font-family="Times New Roman,serif" font-size="14.00">FUNCION</text>
<polygon fill="none" stroke="black" points="149,-54 149,-79 217,-79 217,-54 149,-54"/>
<text text-anchor="start" x="165.5" y="-62.8" font-family="Times New Roman,serif" font-size="14.00">VOID</text>
<polygon fill="none" stroke="black" points="217,-54 217,-79 266,-79 266,-54 217,-54"/>
<text text-anchor="start" x="222.5" y="-62.8" font-family="Times New Roman,serif" font-size="14.00">Global</text>
<polygon fill="none" stroke="black" points="266,-54 266,-79 293,-79 293,-54 266,-54"/>
<text text-anchor="start" x="276" y="-62.8" font-family="Times New Roman,serif" font-size="14.00">1</text>
<polygon fill="none" stroke="black" points="293,-54 293,-79 350,-79 350,-54 293,-54"/>
<text text-anchor="start" x="318" y="-62.8" font-family="Times New Roman,serif" font-size="14.00">0</text>
<polygon fill="none" stroke="black" points="8,-29 8,-54 65,-54 65,-29 8,-29"/>
<text text-anchor="start" x="24.5" y="-37.8" font-family="Times New Roman,serif" font-size="14.00">cola</text>
<polygon fill="none" stroke="black" points="65,-29 65,-54 149,-54 149,-29 65,-29"/>
<text text-anchor="start" x="72" y="-37.8" font-family="Times New Roman,serif" font-size="14.00">VARIABLE</text>
<polygon fill="none" stroke="black" points="149,-29 149,-54 217,-54 217,-29 149,-29"/>
<text text-anchor="start" x="154" y="-37.8" font-family="Times New Roman,serif" font-size="14.00">VECTOR</text>
<polygon fill="none" stroke="black" points="217,-29 217,-54 266,-54 266,-29 217,-29"/>
<text text-anchor="start" x="225.5" y="-37.8" font-family="Times New Roman,serif" font-size="14.00">Local</text>
<polygon fill="none" stroke="black" points="266,-29 266,-54 293,-54 293,-29 266,-29"/>
<text text-anchor="start" x="276" y="-37.8" font-family="Times New Roman,serif" font-size="14.00">8</text>
<polygon fill="none" stroke="black" points="293,-29 293,-54 350,-54 350,-29 293,-29"/>
<text text-anchor="start" x="318" y="-37.8" font-family="Times New Roman,serif" font-size="14.00">4</text>
<polygon fill="none" stroke="black" points="8,-4 8,-29 65,-29 65,-4 8,-4"/>
<text text-anchor="start" x="18.5" y="-12.8" font-family="Times New Roman,serif" font-size="14.00">vector</text>
<polygon fill="none" stroke="black" points="65,-4 65,-29 149,-29 149,-4 65,-4"/>
<text text-anchor="start" x="72" y="-12.8" font-family="Times New Roman,serif" font-size="14.00">VARIABLE</text>
<polygon fill="none" stroke="black" points="149,-4 149,-29 217,-29 217,-4 149,-4"/>
<text text-anchor="start" x="154" y="-12.8" font-family="Times New Roman,serif" font-size="14.00">VECTOR</text>
<polygon fill="none" stroke="black" points="217,-4 217,-29 266,-29 266,-4 217,-4"/>
<text text-anchor="start" x="225.5" y="-12.8" font-family="Times New Roman,serif" font-size="14.00">Local</text>
<polygon fill="none" stroke="black" points="266,-4 266,-29 293,-29 293,-4 266,-4"/>
<text text-anchor="start" x="276" y="-12.8" font-family="Times New Roman,serif" font-size="14.00">1</text>
<polygon fill="none" stroke="black" points="293,-4 293,-29 350,-29 350,-4 293,-4"/>
<text text-anchor="start" x="314.5" y="-12.8" font-family="Times New Roman,serif" font-size="14.00">12</text>
</g>
</g>
</svg>
