<?xml version="1.0" encoding="UTF-8" standalone="no"?>
<!DOCTYPE svg PUBLIC "-//W3C//DTD SVG 1.1//EN"
 "http://www.w3.org/Graphics/SVG/1.1/DTD/svg11.dtd">
<!-- Generated by graphviz version 3.0.0 (20220226.1711)
 -->
<!-- Pages: 1 -->
<svg width="362pt" height="137pt"
 viewBox="0.00 0.00 362.00 137.00" xmlns="http://www.w3.org/2000/svg" xmlns:xlink="http://www.w3.org/1999/xlink">
<g id="graph0" class="graph" transform="scale(1 1) rotate(0) translate(4 133)">
<polygon fill="white" stroke="transparent" points="-4,4 -4,-133 358,-133 358,4 -4,4"/>
<!-- tablaSimbolos -->
<g id="node1" class="node">
<title>tablaSimbolos</title>
<polygon fill="none" stroke="black" points="8,-103.5 8,-124.5 63,-124.5 63,-103.5 8,-103.5"/>
<text text-anchor="start" x="29" y="-110.3" font-family="Times New Roman,serif" font-size="14.00">Id</text>
<polygon fill="none" stroke="black" points="63,-103.5 63,-124.5 147,-124.5 147,-103.5 63,-103.5"/>
<text text-anchor="start" x="66" y="-110.3" font-family="Times New Roman,serif" font-size="14.00">Tipo símbolo</text>
<polygon fill="none" stroke="black" points="147,-103.5 147,-124.5 213,-124.5 213,-103.5 147,-103.5"/>
<text text-anchor="start" x="152" y="-110.3" font-family="Times New Roman,serif" font-size="14.00">Tipo dato</text>
<polygon fill="none" stroke="black" points="213,-103.5 213,-124.5 262,-124.5 262,-103.5 213,-103.5"/>
<text text-anchor="start" x="216" y="-110.3" font-family="Times New Roman,serif" font-size="14.00">Ámbito</text>
<polygon fill="none" stroke="black" points="262,-103.5 262,-124.5 289,-124.5 289,-103.5 262,-103.5"/>
<text text-anchor="start" x="265" y="-110.3" font-family="Times New Roman,serif" font-size="14.00">Fila</text>
<polygon fill="none" stroke="black" points="289,-103.5 289,-124.5 346,-124.5 346,-103.5 289,-103.5"/>
<text text-anchor="start" x="292" y="-110.3" font-family="Times New Roman,serif" font-size="14.00">Columna</text>
<polygon fill="none" stroke="black" points="8,-78.5 8,-103.5 63,-103.5 63,-78.5 8,-78.5"/>
<text text-anchor="start" x="15.5" y="-87.3" font-family="Times New Roman,serif" font-size="14.00">Prueba</text>
<polygon fill="none" stroke="black" points="63,-78.5 63,-103.5 147,-103.5 147,-78.5 63,-78.5"/>
<text text-anchor="start" x="70" y="-87.3" font-family="Times New Roman,serif" font-size="14.00">VARIABLE</text>
<polygon fill="none" stroke="black" points="147,-78.5 147,-103.5 213,-103.5 213,-78.5 147,-78.5"/>
<text text-anchor="start" x="152" y="-87.3" font-family="Times New Roman,serif" font-size="14.00">STRUCT</text>
<polygon fill="none" stroke="black" points="213,-78.5 213,-103.5 262,-103.5 262,-78.5 213,-78.5"/>
<text text-anchor="start" x="218.5" y="-87.3" font-family="Times New Roman,serif" font-size="14.00">Global</text>
<polygon fill="none" stroke="black" points="262,-78.5 262,-103.5 289,-103.5 289,-78.5 262,-78.5"/>
<text text-anchor="start" x="272" y="-87.3" font-family="Times New Roman,serif" font-size="14.00">1</text>
<polygon fill="none" stroke="black" points="289,-78.5 289,-103.5 346,-103.5 346,-78.5 289,-78.5"/>
<text text-anchor="start" x="314" y="-87.3" font-family="Times New Roman,serif" font-size="14.00">7</text>
<polygon fill="none" stroke="black" points="8,-53.5 8,-78.5 63,-78.5 63,-53.5 8,-53.5"/>
<text text-anchor="start" x="23.5" y="-62.3" font-family="Times New Roman,serif" font-size="14.00">hola</text>
<polygon fill="none" stroke="black" points="63,-53.5 63,-78.5 147,-78.5 147,-53.5 63,-53.5"/>
<text text-anchor="start" x="70" y="-62.3" font-family="Times New Roman,serif" font-size="14.00">VARIABLE</text>
<polygon fill="none" stroke="black" points="147,-53.5 147,-78.5 213,-78.5 213,-53.5 147,-53.5"/>
<text text-anchor="start" x="170.5" y="-62.3" font-family="Times New Roman,serif" font-size="14.00">I64</text>
<polygon fill="none" stroke="black" points="213,-53.5 213,-78.5 262,-78.5 262,-53.5 213,-53.5"/>
<text text-anchor="start" x="221.5" y="-62.3" font-family="Times New Roman,serif" font-size="14.00">Local</text>
<polygon fill="none" stroke="black" points="262,-53.5 262,-78.5 289,-78.5 289,-53.5 262,-53.5"/>
<text text-anchor="start" x="272" y="-62.3" font-family="Times New Roman,serif" font-size="14.00">8</text>
<polygon fill="none" stroke="black" points="289,-53.5 289,-78.5 346,-78.5 346,-53.5 289,-53.5"/>
<text text-anchor="start" x="314" y="-62.3" font-family="Times New Roman,serif" font-size="14.00">8</text>
<polygon fill="none" stroke="black" points="8,-28.5 8,-53.5 63,-53.5 63,-28.5 8,-28.5"/>
<text text-anchor="start" x="20" y="-37.3" font-family="Times New Roman,serif" font-size="14.00">adios</text>
<polygon fill="none" stroke="black" points="63,-28.5 63,-53.5 147,-53.5 147,-28.5 63,-28.5"/>
<text text-anchor="start" x="70" y="-37.3" font-family="Times New Roman,serif" font-size="14.00">VARIABLE</text>
<polygon fill="none" stroke="black" points="147,-28.5 147,-53.5 213,-53.5 213,-28.5 147,-28.5"/>
<text text-anchor="start" x="170.5" y="-37.3" font-family="Times New Roman,serif" font-size="14.00">I64</text>
<polygon fill="none" stroke="black" points="213,-28.5 213,-53.5 262,-53.5 262,-28.5 213,-28.5"/>
<text text-anchor="start" x="221.5" y="-37.3" font-family="Times New Roman,serif" font-size="14.00">Local</text>
<polygon fill="none" stroke="black" points="262,-28.5 262,-53.5 289,-53.5 289,-28.5 262,-28.5"/>
<text text-anchor="start" x="272" y="-37.3" font-family="Times New Roman,serif" font-size="14.00">9</text>
<polygon fill="none" stroke="black" points="289,-28.5 289,-53.5 346,-53.5 346,-28.5 289,-28.5"/>
<text text-anchor="start" x="314" y="-37.3" font-family="Times New Roman,serif" font-size="14.00">8</text>
<polygon fill="none" stroke="black" points="8,-3.5 8,-28.5 63,-28.5 63,-3.5 8,-3.5"/>
<text text-anchor="start" x="13" y="-12.3" font-family="Times New Roman,serif" font-size="14.00">persona</text>
<polygon fill="none" stroke="black" points="63,-3.5 63,-28.5 147,-28.5 147,-3.5 63,-3.5"/>
<text text-anchor="start" x="70" y="-12.3" font-family="Times New Roman,serif" font-size="14.00">VARIABLE</text>
<polygon fill="none" stroke="black" points="147,-3.5 147,-28.5 213,-28.5 213,-3.5 147,-3.5"/>
<text text-anchor="start" x="152" y="-12.3" font-family="Times New Roman,serif" font-size="14.00">STRUCT</text>
<polygon fill="none" stroke="black" points="213,-3.5 213,-28.5 262,-28.5 262,-3.5 213,-3.5"/>
<text text-anchor="start" x="221.5" y="-12.3" font-family="Times New Roman,serif" font-size="14.00">Local</text>
<polygon fill="none" stroke="black" points="262,-3.5 262,-28.5 289,-28.5 289,-3.5 262,-3.5"/>
<text text-anchor="start" x="272" y="-12.3" font-family="Times New Roman,serif" font-size="14.00">7</text>
<polygon fill="none" stroke="black" points="289,-3.5 289,-28.5 346,-28.5 346,-3.5 289,-3.5"/>
<text text-anchor="start" x="314" y="-12.3" font-family="Times New Roman,serif" font-size="14.00">4</text>
</g>
</g>
</svg>
