<?xml version="1.0" encoding="UTF-8" standalone="no"?>
<!DOCTYPE svg PUBLIC "-//W3C//DTD SVG 1.1//EN"
 "http://www.w3.org/Graphics/SVG/1.1/DTD/svg11.dtd">
<!-- Generated by graphviz version 3.0.0 (20220226.1711)
 -->
<!-- Pages: 1 -->
<svg width="433pt" height="137pt"
 viewBox="0.00 0.00 433.00 137.00" xmlns="http://www.w3.org/2000/svg" xmlns:xlink="http://www.w3.org/1999/xlink">
<g id="graph0" class="graph" transform="scale(1 1) rotate(0) translate(4 133)">
<polygon fill="white" stroke="transparent" points="-4,4 -4,-133 429,-133 429,4 -4,4"/>
<!-- tablaSimbolos -->
<g id="node1" class="node">
<title>tablaSimbolos</title>
<polygon fill="none" stroke="black" points="8.5,-103.5 8.5,-124.5 138.5,-124.5 138.5,-103.5 8.5,-103.5"/>
<text text-anchor="start" x="67" y="-110.3" font-family="Times New Roman,serif" font-size="14.00">Id</text>
<polygon fill="none" stroke="black" points="138.5,-103.5 138.5,-124.5 222.5,-124.5 222.5,-103.5 138.5,-103.5"/>
<text text-anchor="start" x="141.5" y="-110.3" font-family="Times New Roman,serif" font-size="14.00">Tipo símbolo</text>
<polygon fill="none" stroke="black" points="222.5,-103.5 222.5,-124.5 284.5,-124.5 284.5,-103.5 222.5,-103.5"/>
<text text-anchor="start" x="225.5" y="-110.3" font-family="Times New Roman,serif" font-size="14.00">Tipo dato</text>
<polygon fill="none" stroke="black" points="284.5,-103.5 284.5,-124.5 333.5,-124.5 333.5,-103.5 284.5,-103.5"/>
<text text-anchor="start" x="287.5" y="-110.3" font-family="Times New Roman,serif" font-size="14.00">Ámbito</text>
<polygon fill="none" stroke="black" points="333.5,-103.5 333.5,-124.5 360.5,-124.5 360.5,-103.5 333.5,-103.5"/>
<text text-anchor="start" x="336.5" y="-110.3" font-family="Times New Roman,serif" font-size="14.00">Fila</text>
<polygon fill="none" stroke="black" points="360.5,-103.5 360.5,-124.5 417.5,-124.5 417.5,-103.5 360.5,-103.5"/>
<text text-anchor="start" x="363.5" y="-110.3" font-family="Times New Roman,serif" font-size="14.00">Columna</text>
<polygon fill="none" stroke="black" points="8.5,-78.5 8.5,-103.5 138.5,-103.5 138.5,-78.5 8.5,-78.5"/>
<text text-anchor="start" x="13.5" y="-87.3" font-family="Times New Roman,serif" font-size="14.00">parametros_invalidos</text>
<polygon fill="none" stroke="black" points="138.5,-78.5 138.5,-103.5 222.5,-103.5 222.5,-78.5 138.5,-78.5"/>
<text text-anchor="start" x="149" y="-87.3" font-family="Times New Roman,serif" font-size="14.00">FUNCION</text>
<polygon fill="none" stroke="black" points="222.5,-78.5 222.5,-103.5 284.5,-103.5 284.5,-78.5 222.5,-78.5"/>
<text text-anchor="start" x="236" y="-87.3" font-family="Times New Roman,serif" font-size="14.00">VOID</text>
<polygon fill="none" stroke="black" points="284.5,-78.5 284.5,-103.5 333.5,-103.5 333.5,-78.5 284.5,-78.5"/>
<text text-anchor="start" x="290" y="-87.3" font-family="Times New Roman,serif" font-size="14.00">Global</text>
<polygon fill="none" stroke="black" points="333.5,-78.5 333.5,-103.5 360.5,-103.5 360.5,-78.5 333.5,-78.5"/>
<text text-anchor="start" x="340" y="-87.3" font-family="Times New Roman,serif" font-size="14.00">28</text>
<polygon fill="none" stroke="black" points="360.5,-78.5 360.5,-103.5 417.5,-103.5 417.5,-78.5 360.5,-78.5"/>
<text text-anchor="start" x="385.5" y="-87.3" font-family="Times New Roman,serif" font-size="14.00">0</text>
<polygon fill="none" stroke="black" points="8.5,-53.5 8.5,-78.5 138.5,-78.5 138.5,-53.5 8.5,-53.5"/>
<text text-anchor="start" x="48.5" y="-62.3" font-family="Times New Roman,serif" font-size="14.00">variable1</text>
<polygon fill="none" stroke="black" points="138.5,-53.5 138.5,-78.5 222.5,-78.5 222.5,-53.5 138.5,-53.5"/>
<text text-anchor="start" x="145.5" y="-62.3" font-family="Times New Roman,serif" font-size="14.00">VARIABLE</text>
<polygon fill="none" stroke="black" points="222.5,-53.5 222.5,-78.5 284.5,-78.5 284.5,-53.5 222.5,-53.5"/>
<text text-anchor="start" x="244" y="-62.3" font-family="Times New Roman,serif" font-size="14.00">I64</text>
<polygon fill="none" stroke="black" points="284.5,-53.5 284.5,-78.5 333.5,-78.5 333.5,-53.5 284.5,-53.5"/>
<text text-anchor="start" x="293" y="-62.3" font-family="Times New Roman,serif" font-size="14.00">Local</text>
<polygon fill="none" stroke="black" points="333.5,-53.5 333.5,-78.5 360.5,-78.5 360.5,-53.5 333.5,-53.5"/>
<text text-anchor="start" x="340" y="-62.3" font-family="Times New Roman,serif" font-size="14.00">16</text>
<polygon fill="none" stroke="black" points="360.5,-53.5 360.5,-78.5 417.5,-78.5 417.5,-53.5 360.5,-53.5"/>
<text text-anchor="start" x="385.5" y="-62.3" font-family="Times New Roman,serif" font-size="14.00">4</text>
<polygon fill="none" stroke="black" points="8.5,-28.5 8.5,-53.5 138.5,-53.5 138.5,-28.5 8.5,-28.5"/>
<text text-anchor="start" x="39.5" y="-37.3" font-family="Times New Roman,serif" font-size="14.00">prueba_tipo</text>
<polygon fill="none" stroke="black" points="138.5,-28.5 138.5,-53.5 222.5,-53.5 222.5,-28.5 138.5,-28.5"/>
<text text-anchor="start" x="145.5" y="-37.3" font-family="Times New Roman,serif" font-size="14.00">VARIABLE</text>
<polygon fill="none" stroke="black" points="222.5,-28.5 222.5,-53.5 284.5,-53.5 284.5,-28.5 222.5,-28.5"/>
<text text-anchor="start" x="239.5" y="-37.3" font-family="Times New Roman,serif" font-size="14.00">STR</text>
<polygon fill="none" stroke="black" points="284.5,-28.5 284.5,-53.5 333.5,-53.5 333.5,-28.5 284.5,-28.5"/>
<text text-anchor="start" x="293" y="-37.3" font-family="Times New Roman,serif" font-size="14.00">Local</text>
<polygon fill="none" stroke="black" points="333.5,-28.5 333.5,-53.5 360.5,-53.5 360.5,-28.5 333.5,-28.5"/>
<text text-anchor="start" x="340" y="-37.3" font-family="Times New Roman,serif" font-size="14.00">19</text>
<polygon fill="none" stroke="black" points="360.5,-28.5 360.5,-53.5 417.5,-53.5 417.5,-28.5 360.5,-28.5"/>
<text text-anchor="start" x="385.5" y="-37.3" font-family="Times New Roman,serif" font-size="14.00">4</text>
<polygon fill="none" stroke="black" points="8.5,-3.5 8.5,-28.5 138.5,-28.5 138.5,-3.5 8.5,-3.5"/>
<text text-anchor="start" x="40.5" y="-12.3" font-family="Times New Roman,serif" font-size="14.00">no_mutable</text>
<polygon fill="none" stroke="black" points="138.5,-3.5 138.5,-28.5 222.5,-28.5 222.5,-3.5 138.5,-3.5"/>
<text text-anchor="start" x="145.5" y="-12.3" font-family="Times New Roman,serif" font-size="14.00">VARIABLE</text>
<polygon fill="none" stroke="black" points="222.5,-3.5 222.5,-28.5 284.5,-28.5 284.5,-3.5 222.5,-3.5"/>
<text text-anchor="start" x="244" y="-12.3" font-family="Times New Roman,serif" font-size="14.00">I64</text>
<polygon fill="none" stroke="black" points="284.5,-3.5 284.5,-28.5 333.5,-28.5 333.5,-3.5 284.5,-3.5"/>
<text text-anchor="start" x="293" y="-12.3" font-family="Times New Roman,serif" font-size="14.00">Local</text>
<polygon fill="none" stroke="black" points="333.5,-3.5 333.5,-28.5 360.5,-28.5 360.5,-3.5 333.5,-3.5"/>
<text text-anchor="start" x="340" y="-12.3" font-family="Times New Roman,serif" font-size="14.00">24</text>
<polygon fill="none" stroke="black" points="360.5,-3.5 360.5,-28.5 417.5,-28.5 417.5,-3.5 360.5,-3.5"/>
<text text-anchor="start" x="385.5" y="-12.3" font-family="Times New Roman,serif" font-size="14.00">4</text>
</g>
</g>
</svg>
