<?xml version="1.0" encoding="UTF-8" standalone="no"?>
<!DOCTYPE svg PUBLIC "-//W3C//DTD SVG 1.1//EN"
 "http://www.w3.org/Graphics/SVG/1.1/DTD/svg11.dtd">
<!-- Generated by graphviz version 3.0.0 (20220226.1711)
 -->
<!-- Pages: 1 -->
<svg width="730pt" height="62pt"
 viewBox="0.00 0.00 730.00 62.00" xmlns="http://www.w3.org/2000/svg" xmlns:xlink="http://www.w3.org/1999/xlink">
<g id="graph0" class="graph" transform="scale(1 1) rotate(0) translate(4 58)">
<polygon fill="white" stroke="transparent" points="-4,4 -4,-58 726,-58 726,4 -4,4"/>
<!-- tablaSimbolos -->
<g id="node1" class="node">
<title>tablaSimbolos</title>
<polygon fill="none" stroke="black" points="8,-29 8,-50 36,-50 36,-29 8,-29"/>
<text text-anchor="start" x="11" y="-35.8" font-family="Times New Roman,serif" font-size="14.00">No.</text>
<polygon fill="none" stroke="black" points="36,-29 36,-50 446,-50 446,-29 36,-29"/>
<text text-anchor="start" x="207" y="-35.8" font-family="Times New Roman,serif" font-size="14.00">Descripción</text>
<polygon fill="none" stroke="black" points="446,-29 446,-50 495,-50 495,-29 446,-29"/>
<text text-anchor="start" x="449" y="-35.8" font-family="Times New Roman,serif" font-size="14.00">Ámbito</text>
<polygon fill="none" stroke="black" points="495,-29 495,-50 533,-50 533,-29 495,-29"/>
<text text-anchor="start" x="498" y="-35.8" font-family="Times New Roman,serif" font-size="14.00">Línea</text>
<polygon fill="none" stroke="black" points="533,-29 533,-50 590,-50 590,-29 533,-29"/>
<text text-anchor="start" x="536" y="-35.8" font-family="Times New Roman,serif" font-size="14.00">Columna</text>
<polygon fill="none" stroke="black" points="590,-29 590,-50 714,-50 714,-29 590,-29"/>
<text text-anchor="start" x="615.5" y="-35.8" font-family="Times New Roman,serif" font-size="14.00">Fecha y hora</text>
<polygon fill="none" stroke="black" points="8,-4 8,-29 36,-29 36,-4 8,-4"/>
<text text-anchor="start" x="18.5" y="-12.8" font-family="Times New Roman,serif" font-size="14.00">1</text>
<polygon fill="none" stroke="black" points="36,-4 36,-29 446,-29 446,-4 36,-4"/>
<text text-anchor="start" x="41" y="-12.8" font-family="Times New Roman,serif" font-size="14.00">no viable alternative at input &#39;if(valores.first==&#45;1)||(pos==0){InsertFirst(&#39;</text>
<polygon fill="none" stroke="black" points="446,-4 446,-29 495,-29 495,-4 446,-4"/>
<text text-anchor="start" x="451.5" y="-12.8" font-family="Times New Roman,serif" font-size="14.00">Global</text>
<polygon fill="none" stroke="black" points="495,-4 495,-29 533,-29 533,-4 495,-4"/>
<text text-anchor="start" x="503.5" y="-12.8" font-family="Times New Roman,serif" font-size="14.00">116</text>
<polygon fill="none" stroke="black" points="533,-4 533,-29 590,-29 590,-4 533,-4"/>
<text text-anchor="start" x="554.5" y="-12.8" font-family="Times New Roman,serif" font-size="14.00">19</text>
<polygon fill="none" stroke="black" points="590,-4 590,-29 714,-29 714,-4 590,-4"/>
<text text-anchor="start" x="595" y="-12.8" font-family="Times New Roman,serif" font-size="14.00">04&#45;26&#45;2022 22:17:40</text>
</g>
</g>
</svg>
