<?xml version="1.0" encoding="UTF-8" standalone="no"?>
<!DOCTYPE svg PUBLIC "-//W3C//DTD SVG 1.1//EN"
 "http://www.w3.org/Graphics/SVG/1.1/DTD/svg11.dtd">
<!-- Generated by graphviz version 3.0.0 (20220226.1711)
 -->
<!-- Pages: 1 -->
<svg width="384pt" height="62pt"
 viewBox="0.00 0.00 384.00 62.00" xmlns="http://www.w3.org/2000/svg" xmlns:xlink="http://www.w3.org/1999/xlink">
<g id="graph0" class="graph" transform="scale(1 1) rotate(0) translate(4 58)">
<polygon fill="white" stroke="transparent" points="-4,4 -4,-58 380,-58 380,4 -4,4"/>
<!-- tablaSimbolos -->
<g id="node1" class="node">
<title>tablaSimbolos</title>
<polygon fill="none" stroke="black" points="8,-29 8,-50 74,-50 74,-29 8,-29"/>
<text text-anchor="start" x="34.5" y="-35.8" font-family="Times New Roman,serif" font-size="14.00">Id</text>
<polygon fill="none" stroke="black" points="74,-29 74,-50 158,-50 158,-29 74,-29"/>
<text text-anchor="start" x="77" y="-35.8" font-family="Times New Roman,serif" font-size="14.00">Tipo símbolo</text>
<polygon fill="none" stroke="black" points="158,-29 158,-50 235,-50 235,-29 158,-29"/>
<text text-anchor="start" x="168.5" y="-35.8" font-family="Times New Roman,serif" font-size="14.00">Tipo dato</text>
<polygon fill="none" stroke="black" points="235,-29 235,-50 284,-50 284,-29 235,-29"/>
<text text-anchor="start" x="238" y="-35.8" font-family="Times New Roman,serif" font-size="14.00">Ámbito</text>
<polygon fill="none" stroke="black" points="284,-29 284,-50 311,-50 311,-29 284,-29"/>
<text text-anchor="start" x="287" y="-35.8" font-family="Times New Roman,serif" font-size="14.00">Fila</text>
<polygon fill="none" stroke="black" points="311,-29 311,-50 368,-50 368,-29 311,-29"/>
<text text-anchor="start" x="314" y="-35.8" font-family="Times New Roman,serif" font-size="14.00">Columna</text>
<polygon fill="none" stroke="black" points="8,-4 8,-29 74,-29 74,-4 8,-4"/>
<text text-anchor="start" x="13" y="-12.8" font-family="Times New Roman,serif" font-size="14.00">condicion</text>
<polygon fill="none" stroke="black" points="74,-4 74,-29 158,-29 158,-4 74,-4"/>
<text text-anchor="start" x="81" y="-12.8" font-family="Times New Roman,serif" font-size="14.00">VARIABLE</text>
<polygon fill="none" stroke="black" points="158,-4 158,-29 235,-29 235,-4 158,-4"/>
<text text-anchor="start" x="163" y="-12.8" font-family="Times New Roman,serif" font-size="14.00">BOOLEAN</text>
<polygon fill="none" stroke="black" points="235,-4 235,-29 284,-29 284,-4 235,-4"/>
<text text-anchor="start" x="243.5" y="-12.8" font-family="Times New Roman,serif" font-size="14.00">Local</text>
<polygon fill="none" stroke="black" points="284,-4 284,-29 311,-29 311,-4 284,-4"/>
<text text-anchor="start" x="294" y="-12.8" font-family="Times New Roman,serif" font-size="14.00">2</text>
<polygon fill="none" stroke="black" points="311,-4 311,-29 368,-29 368,-4 311,-4"/>
<text text-anchor="start" x="336" y="-12.8" font-family="Times New Roman,serif" font-size="14.00">4</text>
</g>
</g>
</svg>
