<?xml version="1.0" encoding="UTF-8" standalone="no"?>
<!DOCTYPE svg PUBLIC "-//W3C//DTD SVG 1.1//EN"
 "http://www.w3.org/Graphics/SVG/1.1/DTD/svg11.dtd">
<!-- Generated by graphviz version 3.0.0 (20220226.1711)
 -->
<!-- Pages: 1 -->
<svg width="356pt" height="62pt"
 viewBox="0.00 0.00 356.00 62.00" xmlns="http://www.w3.org/2000/svg" xmlns:xlink="http://www.w3.org/1999/xlink">
<g id="graph0" class="graph" transform="scale(1 1) rotate(0) translate(4 58)">
<polygon fill="white" stroke="transparent" points="-4,4 -4,-58 352,-58 352,4 -4,4"/>
<!-- tablaSimbolos -->
<g id="node1" class="node">
<title>tablaSimbolos</title>
<polygon fill="none" stroke="black" points="8,-29 8,-50 61,-50 61,-29 8,-29"/>
<text text-anchor="start" x="28" y="-35.8" font-family="Times New Roman,serif" font-size="14.00">Id</text>
<polygon fill="none" stroke="black" points="61,-29 61,-50 145,-50 145,-29 61,-29"/>
<text text-anchor="start" x="64" y="-35.8" font-family="Times New Roman,serif" font-size="14.00">Tipo símbolo</text>
<polygon fill="none" stroke="black" points="145,-29 145,-50 207,-50 207,-29 145,-29"/>
<text text-anchor="start" x="148" y="-35.8" font-family="Times New Roman,serif" font-size="14.00">Tipo dato</text>
<polygon fill="none" stroke="black" points="207,-29 207,-50 256,-50 256,-29 207,-29"/>
<text text-anchor="start" x="210" y="-35.8" font-family="Times New Roman,serif" font-size="14.00">Ámbito</text>
<polygon fill="none" stroke="black" points="256,-29 256,-50 283,-50 283,-29 256,-29"/>
<text text-anchor="start" x="259" y="-35.8" font-family="Times New Roman,serif" font-size="14.00">Fila</text>
<polygon fill="none" stroke="black" points="283,-29 283,-50 340,-50 340,-29 283,-29"/>
<text text-anchor="start" x="286" y="-35.8" font-family="Times New Roman,serif" font-size="14.00">Columna</text>
<polygon fill="none" stroke="black" points="8,-4 8,-29 61,-29 61,-4 8,-4"/>
<text text-anchor="start" x="13" y="-12.8" font-family="Times New Roman,serif" font-size="14.00">numero</text>
<polygon fill="none" stroke="black" points="61,-4 61,-29 145,-29 145,-4 61,-4"/>
<text text-anchor="start" x="68" y="-12.8" font-family="Times New Roman,serif" font-size="14.00">VARIABLE</text>
<polygon fill="none" stroke="black" points="145,-4 145,-29 207,-29 207,-4 145,-4"/>
<text text-anchor="start" x="156" y="-12.8" font-family="Times New Roman,serif" font-size="14.00">CHAR</text>
<polygon fill="none" stroke="black" points="207,-4 207,-29 256,-29 256,-4 207,-4"/>
<text text-anchor="start" x="215.5" y="-12.8" font-family="Times New Roman,serif" font-size="14.00">Local</text>
<polygon fill="none" stroke="black" points="256,-4 256,-29 283,-29 283,-4 256,-4"/>
<text text-anchor="start" x="266" y="-12.8" font-family="Times New Roman,serif" font-size="14.00">3</text>
<polygon fill="none" stroke="black" points="283,-4 283,-29 340,-29 340,-4 283,-4"/>
<text text-anchor="start" x="308" y="-12.8" font-family="Times New Roman,serif" font-size="14.00">4</text>
</g>
</g>
</svg>
