<?xml version="1.0" encoding="UTF-8" standalone="no"?>
<!DOCTYPE svg PUBLIC "-//W3C//DTD SVG 1.1//EN"
 "http://www.w3.org/Graphics/SVG/1.1/DTD/svg11.dtd">
<!-- Generated by graphviz version 3.0.0 (20220226.1711)
 -->
<!-- Pages: 1 -->
<svg width="377pt" height="262pt"
 viewBox="0.00 0.00 377.00 262.00" xmlns="http://www.w3.org/2000/svg" xmlns:xlink="http://www.w3.org/1999/xlink">
<g id="graph0" class="graph" transform="scale(1 1) rotate(0) translate(4 258)">
<polygon fill="white" stroke="transparent" points="-4,4 -4,-258 373,-258 373,4 -4,4"/>
<!-- tablaSimbolos -->
<g id="node1" class="node">
<title>tablaSimbolos</title>
<polygon fill="none" stroke="black" points="8.5,-229 8.5,-250 76.5,-250 76.5,-229 8.5,-229"/>
<text text-anchor="start" x="36" y="-235.8" font-family="Times New Roman,serif" font-size="14.00">Id</text>
<polygon fill="none" stroke="black" points="76.5,-229 76.5,-250 160.5,-250 160.5,-229 76.5,-229"/>
<text text-anchor="start" x="79.5" y="-235.8" font-family="Times New Roman,serif" font-size="14.00">Tipo símbolo</text>
<polygon fill="none" stroke="black" points="160.5,-229 160.5,-250 228.5,-250 228.5,-229 160.5,-229"/>
<text text-anchor="start" x="166.5" y="-235.8" font-family="Times New Roman,serif" font-size="14.00">Tipo dato</text>
<polygon fill="none" stroke="black" points="228.5,-229 228.5,-250 277.5,-250 277.5,-229 228.5,-229"/>
<text text-anchor="start" x="231.5" y="-235.8" font-family="Times New Roman,serif" font-size="14.00">Ámbito</text>
<polygon fill="none" stroke="black" points="277.5,-229 277.5,-250 304.5,-250 304.5,-229 277.5,-229"/>
<text text-anchor="start" x="280.5" y="-235.8" font-family="Times New Roman,serif" font-size="14.00">Fila</text>
<polygon fill="none" stroke="black" points="304.5,-229 304.5,-250 361.5,-250 361.5,-229 304.5,-229"/>
<text text-anchor="start" x="307.5" y="-235.8" font-family="Times New Roman,serif" font-size="14.00">Columna</text>
<polygon fill="none" stroke="black" points="8.5,-204 8.5,-229 76.5,-229 76.5,-204 8.5,-204"/>
<text text-anchor="start" x="27" y="-212.8" font-family="Times New Roman,serif" font-size="14.00">apilar</text>
<polygon fill="none" stroke="black" points="76.5,-204 76.5,-229 160.5,-229 160.5,-204 76.5,-204"/>
<text text-anchor="start" x="87" y="-212.8" font-family="Times New Roman,serif" font-size="14.00">FUNCION</text>
<polygon fill="none" stroke="black" points="160.5,-204 160.5,-229 228.5,-229 228.5,-204 160.5,-204"/>
<text text-anchor="start" x="177" y="-212.8" font-family="Times New Roman,serif" font-size="14.00">VOID</text>
<polygon fill="none" stroke="black" points="228.5,-204 228.5,-229 277.5,-229 277.5,-204 228.5,-204"/>
<text text-anchor="start" x="234" y="-212.8" font-family="Times New Roman,serif" font-size="14.00">Global</text>
<polygon fill="none" stroke="black" points="277.5,-204 277.5,-229 304.5,-229 304.5,-204 277.5,-204"/>
<text text-anchor="start" x="287.5" y="-212.8" font-family="Times New Roman,serif" font-size="14.00">2</text>
<polygon fill="none" stroke="black" points="304.5,-204 304.5,-229 361.5,-229 361.5,-204 304.5,-204"/>
<text text-anchor="start" x="329.5" y="-212.8" font-family="Times New Roman,serif" font-size="14.00">0</text>
<polygon fill="none" stroke="black" points="8.5,-179 8.5,-204 76.5,-204 76.5,-179 8.5,-179"/>
<text text-anchor="start" x="13.5" y="-187.8" font-family="Times New Roman,serif" font-size="14.00">capacidad</text>
<polygon fill="none" stroke="black" points="76.5,-179 76.5,-204 160.5,-204 160.5,-179 76.5,-179"/>
<text text-anchor="start" x="83.5" y="-187.8" font-family="Times New Roman,serif" font-size="14.00">VARIABLE</text>
<polygon fill="none" stroke="black" points="160.5,-179 160.5,-204 228.5,-204 228.5,-179 160.5,-179"/>
<text text-anchor="start" x="174.5" y="-187.8" font-family="Times New Roman,serif" font-size="14.00">USIZE</text>
<polygon fill="none" stroke="black" points="228.5,-179 228.5,-204 277.5,-204 277.5,-179 228.5,-179"/>
<text text-anchor="start" x="237" y="-187.8" font-family="Times New Roman,serif" font-size="14.00">Local</text>
<polygon fill="none" stroke="black" points="277.5,-179 277.5,-204 304.5,-204 304.5,-179 277.5,-179"/>
<text text-anchor="start" x="284" y="-187.8" font-family="Times New Roman,serif" font-size="14.00">13</text>
<polygon fill="none" stroke="black" points="304.5,-179 304.5,-204 361.5,-204 361.5,-179 304.5,-179"/>
<text text-anchor="start" x="329.5" y="-187.8" font-family="Times New Roman,serif" font-size="14.00">4</text>
<polygon fill="none" stroke="black" points="8.5,-154 8.5,-179 76.5,-179 76.5,-154 8.5,-154"/>
<text text-anchor="start" x="32.5" y="-162.8" font-family="Times New Roman,serif" font-size="14.00">pila</text>
<polygon fill="none" stroke="black" points="76.5,-154 76.5,-179 160.5,-179 160.5,-154 76.5,-154"/>
<text text-anchor="start" x="83.5" y="-162.8" font-family="Times New Roman,serif" font-size="14.00">VARIABLE</text>
<polygon fill="none" stroke="black" points="160.5,-154 160.5,-179 228.5,-179 228.5,-154 160.5,-154"/>
<text text-anchor="start" x="165.5" y="-162.8" font-family="Times New Roman,serif" font-size="14.00">VECTOR</text>
<polygon fill="none" stroke="black" points="228.5,-154 228.5,-179 277.5,-179 277.5,-154 228.5,-154"/>
<text text-anchor="start" x="237" y="-162.8" font-family="Times New Roman,serif" font-size="14.00">Local</text>
<polygon fill="none" stroke="black" points="277.5,-154 277.5,-179 304.5,-179 304.5,-154 277.5,-154"/>
<text text-anchor="start" x="284" y="-162.8" font-family="Times New Roman,serif" font-size="14.00">14</text>
<polygon fill="none" stroke="black" points="304.5,-154 304.5,-179 361.5,-179 361.5,-154 304.5,-154"/>
<text text-anchor="start" x="329.5" y="-162.8" font-family="Times New Roman,serif" font-size="14.00">4</text>
<polygon fill="none" stroke="black" points="8.5,-129 8.5,-154 76.5,-154 76.5,-129 8.5,-129"/>
<text text-anchor="start" x="30.5" y="-137.8" font-family="Times New Roman,serif" font-size="14.00">cola</text>
<polygon fill="none" stroke="black" points="76.5,-129 76.5,-154 160.5,-154 160.5,-129 76.5,-129"/>
<text text-anchor="start" x="83.5" y="-137.8" font-family="Times New Roman,serif" font-size="14.00">VARIABLE</text>
<polygon fill="none" stroke="black" points="160.5,-129 160.5,-154 228.5,-154 228.5,-129 160.5,-129"/>
<text text-anchor="start" x="165.5" y="-137.8" font-family="Times New Roman,serif" font-size="14.00">VECTOR</text>
<polygon fill="none" stroke="black" points="228.5,-129 228.5,-154 277.5,-154 277.5,-129 228.5,-129"/>
<text text-anchor="start" x="237" y="-137.8" font-family="Times New Roman,serif" font-size="14.00">Local</text>
<polygon fill="none" stroke="black" points="277.5,-129 277.5,-154 304.5,-154 304.5,-129 277.5,-129"/>
<text text-anchor="start" x="284" y="-137.8" font-family="Times New Roman,serif" font-size="14.00">15</text>
<polygon fill="none" stroke="black" points="304.5,-129 304.5,-154 361.5,-154 361.5,-129 304.5,-129"/>
<text text-anchor="start" x="329.5" y="-137.8" font-family="Times New Roman,serif" font-size="14.00">4</text>
<polygon fill="none" stroke="black" points="8.5,-104 8.5,-129 76.5,-129 76.5,-104 8.5,-104"/>
<text text-anchor="start" x="27" y="-112.8" font-family="Times New Roman,serif" font-size="14.00">datos</text>
<polygon fill="none" stroke="black" points="76.5,-104 76.5,-129 160.5,-129 160.5,-104 76.5,-104"/>
<text text-anchor="start" x="83.5" y="-112.8" font-family="Times New Roman,serif" font-size="14.00">VARIABLE</text>
<polygon fill="none" stroke="black" points="160.5,-104 160.5,-129 228.5,-129 228.5,-104 160.5,-104"/>
<text text-anchor="start" x="170" y="-112.8" font-family="Times New Roman,serif" font-size="14.00">ARRAY</text>
<polygon fill="none" stroke="black" points="228.5,-104 228.5,-129 277.5,-129 277.5,-104 228.5,-104"/>
<text text-anchor="start" x="237" y="-112.8" font-family="Times New Roman,serif" font-size="14.00">Local</text>
<polygon fill="none" stroke="black" points="277.5,-104 277.5,-129 304.5,-129 304.5,-104 277.5,-104"/>
<text text-anchor="start" x="284" y="-112.8" font-family="Times New Roman,serif" font-size="14.00">17</text>
<polygon fill="none" stroke="black" points="304.5,-104 304.5,-129 361.5,-129 361.5,-104 304.5,-104"/>
<text text-anchor="start" x="329.5" y="-112.8" font-family="Times New Roman,serif" font-size="14.00">4</text>
<polygon fill="none" stroke="black" points="8.5,-79 8.5,-104 76.5,-104 76.5,-79 8.5,-79"/>
<text text-anchor="start" x="40.5" y="-87.8" font-family="Times New Roman,serif" font-size="14.00">i</text>
<polygon fill="none" stroke="black" points="76.5,-79 76.5,-104 160.5,-104 160.5,-79 76.5,-79"/>
<text text-anchor="start" x="83.5" y="-87.8" font-family="Times New Roman,serif" font-size="14.00">VARIABLE</text>
<polygon fill="none" stroke="black" points="160.5,-79 160.5,-104 228.5,-104 228.5,-79 160.5,-79"/>
<text text-anchor="start" x="185" y="-87.8" font-family="Times New Roman,serif" font-size="14.00">I64</text>
<polygon fill="none" stroke="black" points="228.5,-79 228.5,-104 277.5,-104 277.5,-79 228.5,-79"/>
<text text-anchor="start" x="237" y="-87.8" font-family="Times New Roman,serif" font-size="14.00">Local</text>
<polygon fill="none" stroke="black" points="277.5,-79 277.5,-104 304.5,-104 304.5,-79 277.5,-79"/>
<text text-anchor="start" x="284" y="-87.8" font-family="Times New Roman,serif" font-size="14.00">20</text>
<polygon fill="none" stroke="black" points="304.5,-79 304.5,-104 361.5,-104 361.5,-79 304.5,-79"/>
<text text-anchor="start" x="329.5" y="-87.8" font-family="Times New Roman,serif" font-size="14.00">4</text>
<polygon fill="none" stroke="black" points="8.5,-54 8.5,-79 76.5,-79 76.5,-54 8.5,-54"/>
<text text-anchor="start" x="13.5" y="-62.8" font-family="Times New Roman,serif" font-size="14.00">capacidad</text>
<polygon fill="none" stroke="black" points="76.5,-54 76.5,-79 160.5,-79 160.5,-54 76.5,-54"/>
<text text-anchor="start" x="83.5" y="-62.8" font-family="Times New Roman,serif" font-size="14.00">VARIABLE</text>
<polygon fill="none" stroke="black" points="160.5,-54 160.5,-79 228.5,-79 228.5,-54 160.5,-54"/>
<text text-anchor="start" x="174.5" y="-62.8" font-family="Times New Roman,serif" font-size="14.00">USIZE</text>
<polygon fill="none" stroke="black" points="228.5,-54 228.5,-79 277.5,-79 277.5,-54 228.5,-54"/>
<text text-anchor="start" x="237" y="-62.8" font-family="Times New Roman,serif" font-size="14.00">Local</text>
<polygon fill="none" stroke="black" points="277.5,-54 277.5,-79 304.5,-79 304.5,-54 277.5,-54"/>
<text text-anchor="start" x="287.5" y="-62.8" font-family="Times New Roman,serif" font-size="14.00">2</text>
<polygon fill="none" stroke="black" points="304.5,-54 304.5,-79 361.5,-79 361.5,-54 304.5,-54"/>
<text text-anchor="start" x="326" y="-62.8" font-family="Times New Roman,serif" font-size="14.00">10</text>
<polygon fill="none" stroke="black" points="8.5,-29 8.5,-54 76.5,-54 76.5,-29 8.5,-29"/>
<text text-anchor="start" x="24.5" y="-37.8" font-family="Times New Roman,serif" font-size="14.00">vector</text>
<polygon fill="none" stroke="black" points="76.5,-29 76.5,-54 160.5,-54 160.5,-29 76.5,-29"/>
<text text-anchor="start" x="83.5" y="-37.8" font-family="Times New Roman,serif" font-size="14.00">VARIABLE</text>
<polygon fill="none" stroke="black" points="160.5,-29 160.5,-54 228.5,-54 228.5,-29 160.5,-29"/>
<text text-anchor="start" x="165.5" y="-37.8" font-family="Times New Roman,serif" font-size="14.00">VECTOR</text>
<polygon fill="none" stroke="black" points="228.5,-29 228.5,-54 277.5,-54 277.5,-29 228.5,-29"/>
<text text-anchor="start" x="237" y="-37.8" font-family="Times New Roman,serif" font-size="14.00">Local</text>
<polygon fill="none" stroke="black" points="277.5,-29 277.5,-54 304.5,-54 304.5,-29 277.5,-29"/>
<text text-anchor="start" x="287.5" y="-37.8" font-family="Times New Roman,serif" font-size="14.00">2</text>
<polygon fill="none" stroke="black" points="304.5,-29 304.5,-54 361.5,-54 361.5,-29 304.5,-29"/>
<text text-anchor="start" x="326" y="-37.8" font-family="Times New Roman,serif" font-size="14.00">28</text>
<polygon fill="none" stroke="black" points="8.5,-4 8.5,-29 76.5,-29 76.5,-4 8.5,-4"/>
<text text-anchor="start" x="28" y="-12.8" font-family="Times New Roman,serif" font-size="14.00">value</text>
<polygon fill="none" stroke="black" points="76.5,-4 76.5,-29 160.5,-29 160.5,-4 76.5,-4"/>
<text text-anchor="start" x="83.5" y="-12.8" font-family="Times New Roman,serif" font-size="14.00">VARIABLE</text>
<polygon fill="none" stroke="black" points="160.5,-4 160.5,-29 228.5,-29 228.5,-4 160.5,-4"/>
<text text-anchor="start" x="185" y="-12.8" font-family="Times New Roman,serif" font-size="14.00">I64</text>
<polygon fill="none" stroke="black" points="228.5,-4 228.5,-29 277.5,-29 277.5,-4 228.5,-4"/>
<text text-anchor="start" x="237" y="-12.8" font-family="Times New Roman,serif" font-size="14.00">Local</text>
<polygon fill="none" stroke="black" points="277.5,-4 277.5,-29 304.5,-29 304.5,-4 277.5,-4"/>
<text text-anchor="start" x="287.5" y="-12.8" font-family="Times New Roman,serif" font-size="14.00">2</text>
<polygon fill="none" stroke="black" points="304.5,-4 304.5,-29 361.5,-29 361.5,-4 304.5,-4"/>
<text text-anchor="start" x="326" y="-12.8" font-family="Times New Roman,serif" font-size="14.00">51</text>
</g>
</g>
</svg>
