<?xml version="1.0" encoding="UTF-8" standalone="no"?>
<!DOCTYPE svg PUBLIC "-//W3C//DTD SVG 1.1//EN"
 "http://www.w3.org/Graphics/SVG/1.1/DTD/svg11.dtd">
<!-- Generated by graphviz version 3.0.0 (20220226.1711)
 -->
<!-- Pages: 1 -->
<svg width="443pt" height="262pt"
 viewBox="0.00 0.00 443.00 262.00" xmlns="http://www.w3.org/2000/svg" xmlns:xlink="http://www.w3.org/1999/xlink">
<g id="graph0" class="graph" transform="scale(1 1) rotate(0) translate(4 258)">
<polygon fill="white" stroke="transparent" points="-4,4 -4,-258 439,-258 439,4 -4,4"/>
<!-- tablaSimbolos -->
<g id="node1" class="node">
<title>tablaSimbolos</title>
<polygon fill="none" stroke="black" points="8.5,-229 8.5,-250 132.5,-250 132.5,-229 8.5,-229"/>
<text text-anchor="start" x="64" y="-235.8" font-family="Times New Roman,serif" font-size="14.00">Id</text>
<polygon fill="none" stroke="black" points="132.5,-229 132.5,-250 216.5,-250 216.5,-229 132.5,-229"/>
<text text-anchor="start" x="135.5" y="-235.8" font-family="Times New Roman,serif" font-size="14.00">Tipo símbolo</text>
<polygon fill="none" stroke="black" points="216.5,-229 216.5,-250 294.5,-250 294.5,-229 216.5,-229"/>
<text text-anchor="start" x="227.5" y="-235.8" font-family="Times New Roman,serif" font-size="14.00">Tipo dato</text>
<polygon fill="none" stroke="black" points="294.5,-229 294.5,-250 343.5,-250 343.5,-229 294.5,-229"/>
<text text-anchor="start" x="297.5" y="-235.8" font-family="Times New Roman,serif" font-size="14.00">Ámbito</text>
<polygon fill="none" stroke="black" points="343.5,-229 343.5,-250 370.5,-250 370.5,-229 343.5,-229"/>
<text text-anchor="start" x="346.5" y="-235.8" font-family="Times New Roman,serif" font-size="14.00">Fila</text>
<polygon fill="none" stroke="black" points="370.5,-229 370.5,-250 427.5,-250 427.5,-229 370.5,-229"/>
<text text-anchor="start" x="373.5" y="-235.8" font-family="Times New Roman,serif" font-size="14.00">Columna</text>
<polygon fill="none" stroke="black" points="8.5,-204 8.5,-229 132.5,-229 132.5,-204 8.5,-204"/>
<text text-anchor="start" x="54" y="-212.8" font-family="Times New Roman,serif" font-size="14.00">Venta</text>
<polygon fill="none" stroke="black" points="132.5,-204 132.5,-229 216.5,-229 216.5,-204 132.5,-204"/>
<text text-anchor="start" x="139.5" y="-212.8" font-family="Times New Roman,serif" font-size="14.00">VARIABLE</text>
<polygon fill="none" stroke="black" points="216.5,-204 216.5,-229 294.5,-229 294.5,-204 216.5,-204"/>
<text text-anchor="start" x="227.5" y="-212.8" font-family="Times New Roman,serif" font-size="14.00">STRUCT</text>
<polygon fill="none" stroke="black" points="294.5,-204 294.5,-229 343.5,-229 343.5,-204 294.5,-204"/>
<text text-anchor="start" x="303" y="-212.8" font-family="Times New Roman,serif" font-size="14.00">Local</text>
<polygon fill="none" stroke="black" points="343.5,-204 343.5,-229 370.5,-229 370.5,-204 343.5,-204"/>
<text text-anchor="start" x="353.5" y="-212.8" font-family="Times New Roman,serif" font-size="14.00">5</text>
<polygon fill="none" stroke="black" points="370.5,-204 370.5,-229 427.5,-229 427.5,-204 370.5,-204"/>
<text text-anchor="start" x="392" y="-212.8" font-family="Times New Roman,serif" font-size="14.00">19</text>
<polygon fill="none" stroke="black" points="8.5,-179 8.5,-204 132.5,-204 132.5,-179 8.5,-179"/>
<text text-anchor="start" x="39.5" y="-187.8" font-family="Times New Roman,serif" font-size="14.00">crear_tabla</text>
<polygon fill="none" stroke="black" points="132.5,-179 132.5,-204 216.5,-204 216.5,-179 132.5,-179"/>
<text text-anchor="start" x="143" y="-187.8" font-family="Times New Roman,serif" font-size="14.00">FUNCION</text>
<polygon fill="none" stroke="black" points="216.5,-179 216.5,-204 294.5,-204 294.5,-179 216.5,-179"/>
<text text-anchor="start" x="221.5" y="-187.8" font-family="Times New Roman,serif" font-size="14.00">Vec &#45;Venta&#45;</text>
<polygon fill="none" stroke="black" points="294.5,-179 294.5,-204 343.5,-204 343.5,-179 294.5,-179"/>
<text text-anchor="start" x="303" y="-187.8" font-family="Times New Roman,serif" font-size="14.00">Local</text>
<polygon fill="none" stroke="black" points="343.5,-179 343.5,-204 370.5,-204 370.5,-179 343.5,-179"/>
<text text-anchor="start" x="350" y="-187.8" font-family="Times New Roman,serif" font-size="14.00">11</text>
<polygon fill="none" stroke="black" points="370.5,-179 370.5,-204 427.5,-204 427.5,-179 370.5,-179"/>
<text text-anchor="start" x="392" y="-187.8" font-family="Times New Roman,serif" font-size="14.00">12</text>
<polygon fill="none" stroke="black" points="8.5,-154 8.5,-179 132.5,-179 132.5,-154 8.5,-154"/>
<text text-anchor="start" x="33" y="-162.8" font-family="Times New Roman,serif" font-size="14.00">insertar_tabla</text>
<polygon fill="none" stroke="black" points="132.5,-154 132.5,-179 216.5,-179 216.5,-154 132.5,-154"/>
<text text-anchor="start" x="143" y="-162.8" font-family="Times New Roman,serif" font-size="14.00">FUNCION</text>
<polygon fill="none" stroke="black" points="216.5,-154 216.5,-179 294.5,-179 294.5,-154 216.5,-154"/>
<text text-anchor="start" x="238" y="-162.8" font-family="Times New Roman,serif" font-size="14.00">VOID</text>
<polygon fill="none" stroke="black" points="294.5,-154 294.5,-179 343.5,-179 343.5,-154 294.5,-154"/>
<text text-anchor="start" x="303" y="-162.8" font-family="Times New Roman,serif" font-size="14.00">Local</text>
<polygon fill="none" stroke="black" points="343.5,-154 343.5,-179 370.5,-179 370.5,-154 343.5,-154"/>
<text text-anchor="start" x="350" y="-162.8" font-family="Times New Roman,serif" font-size="14.00">20</text>
<polygon fill="none" stroke="black" points="370.5,-154 370.5,-179 427.5,-179 427.5,-154 370.5,-154"/>
<text text-anchor="start" x="392" y="-162.8" font-family="Times New Roman,serif" font-size="14.00">12</text>
<polygon fill="none" stroke="black" points="8.5,-129 8.5,-154 132.5,-154 132.5,-129 8.5,-129"/>
<text text-anchor="start" x="13.5" y="-137.8" font-family="Times New Roman,serif" font-size="14.00">select_venta_por_id</text>
<polygon fill="none" stroke="black" points="132.5,-129 132.5,-154 216.5,-154 216.5,-129 132.5,-129"/>
<text text-anchor="start" x="143" y="-137.8" font-family="Times New Roman,serif" font-size="14.00">FUNCION</text>
<polygon fill="none" stroke="black" points="216.5,-129 216.5,-154 294.5,-154 294.5,-129 216.5,-129"/>
<text text-anchor="start" x="238" y="-137.8" font-family="Times New Roman,serif" font-size="14.00">VOID</text>
<polygon fill="none" stroke="black" points="294.5,-129 294.5,-154 343.5,-154 343.5,-129 294.5,-129"/>
<text text-anchor="start" x="303" y="-137.8" font-family="Times New Roman,serif" font-size="14.00">Local</text>
<polygon fill="none" stroke="black" points="343.5,-129 343.5,-154 370.5,-154 370.5,-129 343.5,-129"/>
<text text-anchor="start" x="350" y="-137.8" font-family="Times New Roman,serif" font-size="14.00">36</text>
<polygon fill="none" stroke="black" points="370.5,-129 370.5,-154 427.5,-154 427.5,-129 370.5,-129"/>
<text text-anchor="start" x="392" y="-137.8" font-family="Times New Roman,serif" font-size="14.00">12</text>
<polygon fill="none" stroke="black" points="8.5,-104 8.5,-129 132.5,-129 132.5,-104 8.5,-104"/>
<text text-anchor="start" x="20.5" y="-112.8" font-family="Times New Roman,serif" font-size="14.00">eliminar_elemento</text>
<polygon fill="none" stroke="black" points="132.5,-104 132.5,-129 216.5,-129 216.5,-104 132.5,-104"/>
<text text-anchor="start" x="143" y="-112.8" font-family="Times New Roman,serif" font-size="14.00">FUNCION</text>
<polygon fill="none" stroke="black" points="216.5,-104 216.5,-129 294.5,-129 294.5,-104 216.5,-104"/>
<text text-anchor="start" x="238" y="-112.8" font-family="Times New Roman,serif" font-size="14.00">VOID</text>
<polygon fill="none" stroke="black" points="294.5,-104 294.5,-129 343.5,-129 343.5,-104 294.5,-104"/>
<text text-anchor="start" x="303" y="-112.8" font-family="Times New Roman,serif" font-size="14.00">Local</text>
<polygon fill="none" stroke="black" points="343.5,-104 343.5,-129 370.5,-129 370.5,-104 343.5,-104"/>
<text text-anchor="start" x="350" y="-112.8" font-family="Times New Roman,serif" font-size="14.00">41</text>
<polygon fill="none" stroke="black" points="370.5,-104 370.5,-129 427.5,-129 427.5,-104 370.5,-104"/>
<text text-anchor="start" x="392" y="-112.8" font-family="Times New Roman,serif" font-size="14.00">12</text>
<polygon fill="none" stroke="black" points="8.5,-79 8.5,-104 132.5,-104 132.5,-79 8.5,-79"/>
<text text-anchor="start" x="26.5" y="-87.8" font-family="Times New Roman,serif" font-size="14.00">editar_elemento</text>
<polygon fill="none" stroke="black" points="132.5,-79 132.5,-104 216.5,-104 216.5,-79 132.5,-79"/>
<text text-anchor="start" x="143" y="-87.8" font-family="Times New Roman,serif" font-size="14.00">FUNCION</text>
<polygon fill="none" stroke="black" points="216.5,-79 216.5,-104 294.5,-104 294.5,-79 216.5,-79"/>
<text text-anchor="start" x="238" y="-87.8" font-family="Times New Roman,serif" font-size="14.00">VOID</text>
<polygon fill="none" stroke="black" points="294.5,-79 294.5,-104 343.5,-104 343.5,-79 294.5,-79"/>
<text text-anchor="start" x="303" y="-87.8" font-family="Times New Roman,serif" font-size="14.00">Local</text>
<polygon fill="none" stroke="black" points="343.5,-79 343.5,-104 370.5,-104 370.5,-79 343.5,-79"/>
<text text-anchor="start" x="350" y="-87.8" font-family="Times New Roman,serif" font-size="14.00">53</text>
<polygon fill="none" stroke="black" points="370.5,-79 370.5,-104 427.5,-104 427.5,-79 370.5,-79"/>
<text text-anchor="start" x="392" y="-87.8" font-family="Times New Roman,serif" font-size="14.00">12</text>
<polygon fill="none" stroke="black" points="8.5,-54 8.5,-79 132.5,-79 132.5,-54 8.5,-54"/>
<text text-anchor="start" x="52.5" y="-62.8" font-family="Times New Roman,serif" font-size="14.00">ventas</text>
<polygon fill="none" stroke="black" points="132.5,-54 132.5,-79 216.5,-79 216.5,-54 132.5,-54"/>
<text text-anchor="start" x="144" y="-62.8" font-family="Times New Roman,serif" font-size="14.00">MODULO</text>
<polygon fill="none" stroke="black" points="216.5,-54 216.5,-79 294.5,-79 294.5,-54 216.5,-54"/>
<polygon fill="none" stroke="black" points="294.5,-54 294.5,-79 343.5,-79 343.5,-54 294.5,-54"/>
<text text-anchor="start" x="303" y="-62.8" font-family="Times New Roman,serif" font-size="14.00">Local</text>
<polygon fill="none" stroke="black" points="343.5,-54 343.5,-79 370.5,-79 370.5,-54 343.5,-54"/>
<text text-anchor="start" x="353.5" y="-62.8" font-family="Times New Roman,serif" font-size="14.00">3</text>
<polygon fill="none" stroke="black" points="370.5,-54 370.5,-79 427.5,-79 427.5,-54 370.5,-54"/>
<text text-anchor="start" x="395.5" y="-62.8" font-family="Times New Roman,serif" font-size="14.00">4</text>
<polygon fill="none" stroke="black" points="8.5,-29 8.5,-54 132.5,-54 132.5,-29 8.5,-29"/>
<text text-anchor="start" x="53.5" y="-37.8" font-family="Times New Roman,serif" font-size="14.00">tienda</text>
<polygon fill="none" stroke="black" points="132.5,-29 132.5,-54 216.5,-54 216.5,-29 132.5,-29"/>
<text text-anchor="start" x="144" y="-37.8" font-family="Times New Roman,serif" font-size="14.00">MODULO</text>
<polygon fill="none" stroke="black" points="216.5,-29 216.5,-54 294.5,-54 294.5,-29 216.5,-29"/>
<polygon fill="none" stroke="black" points="294.5,-29 294.5,-54 343.5,-54 343.5,-29 294.5,-29"/>
<text text-anchor="start" x="300" y="-37.8" font-family="Times New Roman,serif" font-size="14.00">Global</text>
<polygon fill="none" stroke="black" points="343.5,-29 343.5,-54 370.5,-54 370.5,-29 343.5,-29"/>
<text text-anchor="start" x="353.5" y="-37.8" font-family="Times New Roman,serif" font-size="14.00">1</text>
<polygon fill="none" stroke="black" points="370.5,-29 370.5,-54 427.5,-54 427.5,-29 370.5,-29"/>
<text text-anchor="start" x="395.5" y="-37.8" font-family="Times New Roman,serif" font-size="14.00">0</text>
<polygon fill="none" stroke="black" points="8.5,-4 8.5,-29 132.5,-29 132.5,-4 8.5,-4"/>
<text text-anchor="start" x="52.5" y="-12.8" font-family="Times New Roman,serif" font-size="14.00">vector</text>
<polygon fill="none" stroke="black" points="132.5,-4 132.5,-29 216.5,-29 216.5,-4 132.5,-4"/>
<text text-anchor="start" x="139.5" y="-12.8" font-family="Times New Roman,serif" font-size="14.00">VARIABLE</text>
<polygon fill="none" stroke="black" points="216.5,-4 216.5,-29 294.5,-29 294.5,-4 216.5,-4"/>
<text text-anchor="start" x="226.5" y="-12.8" font-family="Times New Roman,serif" font-size="14.00">VECTOR</text>
<polygon fill="none" stroke="black" points="294.5,-4 294.5,-29 343.5,-29 343.5,-4 294.5,-4"/>
<text text-anchor="start" x="303" y="-12.8" font-family="Times New Roman,serif" font-size="14.00">Local</text>
<polygon fill="none" stroke="black" points="343.5,-4 343.5,-29 370.5,-29 370.5,-4 343.5,-4"/>
<text text-anchor="start" x="350" y="-12.8" font-family="Times New Roman,serif" font-size="14.00">67</text>
<polygon fill="none" stroke="black" points="370.5,-4 370.5,-29 427.5,-29 427.5,-4 370.5,-4"/>
<text text-anchor="start" x="395.5" y="-12.8" font-family="Times New Roman,serif" font-size="14.00">4</text>
</g>
</g>
</svg>
