<?xml version="1.0" encoding="UTF-8" standalone="no"?>
<!DOCTYPE svg PUBLIC "-//W3C//DTD SVG 1.1//EN"
 "http://www.w3.org/Graphics/SVG/1.1/DTD/svg11.dtd">
<!-- Generated by graphviz version 3.0.0 (20220226.1711)
 -->
<!-- Pages: 1 -->
<svg width="354pt" height="287pt"
 viewBox="0.00 0.00 354.00 287.00" xmlns="http://www.w3.org/2000/svg" xmlns:xlink="http://www.w3.org/1999/xlink">
<g id="graph0" class="graph" transform="scale(1 1) rotate(0) translate(4 283)">
<polygon fill="white" stroke="transparent" points="-4,4 -4,-283 350,-283 350,4 -4,4"/>
<!-- tablaSimbolos -->
<g id="node1" class="node">
<title>tablaSimbolos</title>
<polygon fill="none" stroke="black" points="8,-253.5 8,-274.5 55,-274.5 55,-253.5 8,-253.5"/>
<text text-anchor="start" x="25" y="-260.3" font-family="Times New Roman,serif" font-size="14.00">Id</text>
<polygon fill="none" stroke="black" points="55,-253.5 55,-274.5 139,-274.5 139,-253.5 55,-253.5"/>
<text text-anchor="start" x="58" y="-260.3" font-family="Times New Roman,serif" font-size="14.00">Tipo símbolo</text>
<polygon fill="none" stroke="black" points="139,-253.5 139,-274.5 201,-274.5 201,-253.5 139,-253.5"/>
<text text-anchor="start" x="142" y="-260.3" font-family="Times New Roman,serif" font-size="14.00">Tipo dato</text>
<polygon fill="none" stroke="black" points="201,-253.5 201,-274.5 250,-274.5 250,-253.5 201,-253.5"/>
<text text-anchor="start" x="204" y="-260.3" font-family="Times New Roman,serif" font-size="14.00">Ámbito</text>
<polygon fill="none" stroke="black" points="250,-253.5 250,-274.5 281,-274.5 281,-253.5 250,-253.5"/>
<text text-anchor="start" x="255" y="-260.3" font-family="Times New Roman,serif" font-size="14.00">Fila</text>
<polygon fill="none" stroke="black" points="281,-253.5 281,-274.5 338,-274.5 338,-253.5 281,-253.5"/>
<text text-anchor="start" x="284" y="-260.3" font-family="Times New Roman,serif" font-size="14.00">Columna</text>
<polygon fill="none" stroke="black" points="8,-228.5 8,-253.5 55,-253.5 55,-228.5 8,-228.5"/>
<text text-anchor="start" x="28" y="-237.3" font-family="Times New Roman,serif" font-size="14.00">a</text>
<polygon fill="none" stroke="black" points="55,-228.5 55,-253.5 139,-253.5 139,-228.5 55,-228.5"/>
<text text-anchor="start" x="62" y="-237.3" font-family="Times New Roman,serif" font-size="14.00">VARIABLE</text>
<polygon fill="none" stroke="black" points="139,-228.5 139,-253.5 201,-253.5 201,-228.5 139,-228.5"/>
<text text-anchor="start" x="160.5" y="-237.3" font-family="Times New Roman,serif" font-size="14.00">I64</text>
<polygon fill="none" stroke="black" points="201,-228.5 201,-253.5 250,-253.5 250,-228.5 201,-228.5"/>
<text text-anchor="start" x="209.5" y="-237.3" font-family="Times New Roman,serif" font-size="14.00">Local</text>
<polygon fill="none" stroke="black" points="250,-228.5 250,-253.5 281,-253.5 281,-228.5 250,-228.5"/>
<text text-anchor="start" x="262" y="-237.3" font-family="Times New Roman,serif" font-size="14.00">3</text>
<polygon fill="none" stroke="black" points="281,-228.5 281,-253.5 338,-253.5 338,-228.5 281,-228.5"/>
<text text-anchor="start" x="306" y="-237.3" font-family="Times New Roman,serif" font-size="14.00">4</text>
<polygon fill="none" stroke="black" points="8,-203.5 8,-228.5 55,-228.5 55,-203.5 8,-203.5"/>
<text text-anchor="start" x="21.5" y="-212.3" font-family="Times New Roman,serif" font-size="14.00">aux</text>
<polygon fill="none" stroke="black" points="55,-203.5 55,-228.5 139,-228.5 139,-203.5 55,-203.5"/>
<text text-anchor="start" x="62" y="-212.3" font-family="Times New Roman,serif" font-size="14.00">VARIABLE</text>
<polygon fill="none" stroke="black" points="139,-203.5 139,-228.5 201,-228.5 201,-203.5 139,-203.5"/>
<text text-anchor="start" x="160.5" y="-212.3" font-family="Times New Roman,serif" font-size="14.00">I64</text>
<polygon fill="none" stroke="black" points="201,-203.5 201,-228.5 250,-228.5 250,-203.5 201,-203.5"/>
<text text-anchor="start" x="209.5" y="-212.3" font-family="Times New Roman,serif" font-size="14.00">Local</text>
<polygon fill="none" stroke="black" points="250,-203.5 250,-228.5 281,-228.5 281,-203.5 250,-203.5"/>
<text text-anchor="start" x="258.5" y="-212.3" font-family="Times New Roman,serif" font-size="14.00">21</text>
<polygon fill="none" stroke="black" points="281,-203.5 281,-228.5 338,-228.5 338,-203.5 281,-203.5"/>
<text text-anchor="start" x="306" y="-212.3" font-family="Times New Roman,serif" font-size="14.00">4</text>
<polygon fill="none" stroke="black" points="8,-178.5 8,-203.5 55,-203.5 55,-178.5 8,-178.5"/>
<text text-anchor="start" x="16" y="-187.3" font-family="Times New Roman,serif" font-size="14.00">index</text>
<polygon fill="none" stroke="black" points="55,-178.5 55,-203.5 139,-203.5 139,-178.5 55,-178.5"/>
<text text-anchor="start" x="62" y="-187.3" font-family="Times New Roman,serif" font-size="14.00">VARIABLE</text>
<polygon fill="none" stroke="black" points="139,-178.5 139,-203.5 201,-203.5 201,-178.5 139,-178.5"/>
<text text-anchor="start" x="160.5" y="-187.3" font-family="Times New Roman,serif" font-size="14.00">I64</text>
<polygon fill="none" stroke="black" points="201,-178.5 201,-203.5 250,-203.5 250,-178.5 201,-178.5"/>
<text text-anchor="start" x="209.5" y="-187.3" font-family="Times New Roman,serif" font-size="14.00">Local</text>
<polygon fill="none" stroke="black" points="250,-178.5 250,-203.5 281,-203.5 281,-178.5 250,-178.5"/>
<text text-anchor="start" x="258.5" y="-187.3" font-family="Times New Roman,serif" font-size="14.00">56</text>
<polygon fill="none" stroke="black" points="281,-178.5 281,-203.5 338,-203.5 338,-178.5 281,-178.5"/>
<text text-anchor="start" x="306" y="-187.3" font-family="Times New Roman,serif" font-size="14.00">4</text>
<polygon fill="none" stroke="black" points="8,-153.5 8,-178.5 55,-178.5 55,-153.5 8,-153.5"/>
<text text-anchor="start" x="13" y="-162.3" font-family="Times New Roman,serif" font-size="14.00">output</text>
<polygon fill="none" stroke="black" points="55,-153.5 55,-178.5 139,-178.5 139,-153.5 55,-153.5"/>
<text text-anchor="start" x="62" y="-162.3" font-family="Times New Roman,serif" font-size="14.00">VARIABLE</text>
<polygon fill="none" stroke="black" points="139,-153.5 139,-178.5 201,-178.5 201,-153.5 139,-153.5"/>
<text text-anchor="start" x="144" y="-162.3" font-family="Times New Roman,serif" font-size="14.00">STRING</text>
<polygon fill="none" stroke="black" points="201,-153.5 201,-178.5 250,-178.5 250,-153.5 201,-153.5"/>
<text text-anchor="start" x="209.5" y="-162.3" font-family="Times New Roman,serif" font-size="14.00">Local</text>
<polygon fill="none" stroke="black" points="250,-153.5 250,-178.5 281,-178.5 281,-153.5 250,-153.5"/>
<text text-anchor="start" x="255" y="-162.3" font-family="Times New Roman,serif" font-size="14.00">122</text>
<polygon fill="none" stroke="black" points="281,-153.5 281,-178.5 338,-178.5 338,-153.5 281,-153.5"/>
<text text-anchor="start" x="306" y="-162.3" font-family="Times New Roman,serif" font-size="14.00">4</text>
<polygon fill="none" stroke="black" points="8,-128.5 8,-153.5 55,-153.5 55,-128.5 8,-128.5"/>
<text text-anchor="start" x="29.5" y="-137.3" font-family="Times New Roman,serif" font-size="14.00">i</text>
<polygon fill="none" stroke="black" points="55,-128.5 55,-153.5 139,-153.5 139,-128.5 55,-128.5"/>
<text text-anchor="start" x="62" y="-137.3" font-family="Times New Roman,serif" font-size="14.00">VARIABLE</text>
<polygon fill="none" stroke="black" points="139,-128.5 139,-153.5 201,-153.5 201,-128.5 139,-128.5"/>
<text text-anchor="start" x="160.5" y="-137.3" font-family="Times New Roman,serif" font-size="14.00">I64</text>
<polygon fill="none" stroke="black" points="201,-128.5 201,-153.5 250,-153.5 250,-128.5 201,-128.5"/>
<text text-anchor="start" x="209.5" y="-137.3" font-family="Times New Roman,serif" font-size="14.00">Local</text>
<polygon fill="none" stroke="black" points="250,-128.5 250,-153.5 281,-153.5 281,-128.5 250,-128.5"/>
<text text-anchor="start" x="255" y="-137.3" font-family="Times New Roman,serif" font-size="14.00">123</text>
<polygon fill="none" stroke="black" points="281,-128.5 281,-153.5 338,-153.5 338,-128.5 281,-128.5"/>
<text text-anchor="start" x="306" y="-137.3" font-family="Times New Roman,serif" font-size="14.00">4</text>
<polygon fill="none" stroke="black" points="8,-103.5 8,-128.5 55,-128.5 55,-103.5 8,-103.5"/>
<text text-anchor="start" x="29.5" y="-112.3" font-family="Times New Roman,serif" font-size="14.00">j</text>
<polygon fill="none" stroke="black" points="55,-103.5 55,-128.5 139,-128.5 139,-103.5 55,-103.5"/>
<text text-anchor="start" x="62" y="-112.3" font-family="Times New Roman,serif" font-size="14.00">VARIABLE</text>
<polygon fill="none" stroke="black" points="139,-103.5 139,-128.5 201,-128.5 201,-103.5 139,-103.5"/>
<text text-anchor="start" x="160.5" y="-112.3" font-family="Times New Roman,serif" font-size="14.00">I64</text>
<polygon fill="none" stroke="black" points="201,-103.5 201,-128.5 250,-128.5 250,-103.5 201,-103.5"/>
<text text-anchor="start" x="209.5" y="-112.3" font-family="Times New Roman,serif" font-size="14.00">Local</text>
<polygon fill="none" stroke="black" points="250,-103.5 250,-128.5 281,-128.5 281,-103.5 250,-103.5"/>
<text text-anchor="start" x="255" y="-112.3" font-family="Times New Roman,serif" font-size="14.00">126</text>
<polygon fill="none" stroke="black" points="281,-103.5 281,-128.5 338,-128.5 338,-103.5 281,-103.5"/>
<text text-anchor="start" x="306" y="-112.3" font-family="Times New Roman,serif" font-size="14.00">8</text>
<polygon fill="none" stroke="black" points="8,-78.5 8,-103.5 55,-103.5 55,-78.5 8,-78.5"/>
<text text-anchor="start" x="28" y="-87.3" font-family="Times New Roman,serif" font-size="14.00">k</text>
<polygon fill="none" stroke="black" points="55,-78.5 55,-103.5 139,-103.5 139,-78.5 55,-78.5"/>
<text text-anchor="start" x="62" y="-87.3" font-family="Times New Roman,serif" font-size="14.00">VARIABLE</text>
<polygon fill="none" stroke="black" points="139,-78.5 139,-103.5 201,-103.5 201,-78.5 139,-78.5"/>
<text text-anchor="start" x="160.5" y="-87.3" font-family="Times New Roman,serif" font-size="14.00">I64</text>
<polygon fill="none" stroke="black" points="201,-78.5 201,-103.5 250,-103.5 250,-78.5 201,-78.5"/>
<text text-anchor="start" x="209.5" y="-87.3" font-family="Times New Roman,serif" font-size="14.00">Local</text>
<polygon fill="none" stroke="black" points="250,-78.5 250,-103.5 281,-103.5 281,-78.5 250,-78.5"/>
<text text-anchor="start" x="255" y="-87.3" font-family="Times New Roman,serif" font-size="14.00">130</text>
<polygon fill="none" stroke="black" points="281,-78.5 281,-103.5 338,-103.5 338,-78.5 281,-78.5"/>
<text text-anchor="start" x="306" y="-87.3" font-family="Times New Roman,serif" font-size="14.00">8</text>
<polygon fill="none" stroke="black" points="8,-53.5 8,-78.5 55,-78.5 55,-53.5 8,-53.5"/>
<text text-anchor="start" x="23.5" y="-62.3" font-family="Times New Roman,serif" font-size="14.00">arr</text>
<polygon fill="none" stroke="black" points="55,-53.5 55,-78.5 139,-78.5 139,-53.5 55,-53.5"/>
<text text-anchor="start" x="62" y="-62.3" font-family="Times New Roman,serif" font-size="14.00">VARIABLE</text>
<polygon fill="none" stroke="black" points="139,-53.5 139,-78.5 201,-78.5 201,-53.5 139,-53.5"/>
<text text-anchor="start" x="145.5" y="-62.3" font-family="Times New Roman,serif" font-size="14.00">ARRAY</text>
<polygon fill="none" stroke="black" points="201,-53.5 201,-78.5 250,-78.5 250,-53.5 201,-53.5"/>
<text text-anchor="start" x="209.5" y="-62.3" font-family="Times New Roman,serif" font-size="14.00">Local</text>
<polygon fill="none" stroke="black" points="250,-53.5 250,-78.5 281,-78.5 281,-53.5 250,-53.5"/>
<text text-anchor="start" x="255" y="-62.3" font-family="Times New Roman,serif" font-size="14.00">142</text>
<polygon fill="none" stroke="black" points="281,-53.5 281,-78.5 338,-78.5 338,-53.5 281,-53.5"/>
<text text-anchor="start" x="306" y="-62.3" font-family="Times New Roman,serif" font-size="14.00">4</text>
<polygon fill="none" stroke="black" points="8,-28.5 8,-53.5 55,-53.5 55,-28.5 8,-28.5"/>
<text text-anchor="start" x="29.5" y="-37.3" font-family="Times New Roman,serif" font-size="14.00">i</text>
<polygon fill="none" stroke="black" points="55,-28.5 55,-53.5 139,-53.5 139,-28.5 55,-28.5"/>
<text text-anchor="start" x="62" y="-37.3" font-family="Times New Roman,serif" font-size="14.00">VARIABLE</text>
<polygon fill="none" stroke="black" points="139,-28.5 139,-53.5 201,-53.5 201,-28.5 139,-28.5"/>
<text text-anchor="start" x="160.5" y="-37.3" font-family="Times New Roman,serif" font-size="14.00">I64</text>
<polygon fill="none" stroke="black" points="201,-28.5 201,-53.5 250,-53.5 250,-28.5 201,-28.5"/>
<text text-anchor="start" x="209.5" y="-37.3" font-family="Times New Roman,serif" font-size="14.00">Local</text>
<polygon fill="none" stroke="black" points="250,-28.5 250,-53.5 281,-53.5 281,-28.5 250,-28.5"/>
<text text-anchor="start" x="255" y="-37.3" font-family="Times New Roman,serif" font-size="14.00">143</text>
<polygon fill="none" stroke="black" points="281,-28.5 281,-53.5 338,-53.5 338,-28.5 281,-28.5"/>
<text text-anchor="start" x="306" y="-37.3" font-family="Times New Roman,serif" font-size="14.00">4</text>
<polygon fill="none" stroke="black" points="8,-3.5 8,-28.5 55,-28.5 55,-3.5 8,-3.5"/>
<text text-anchor="start" x="28" y="-12.3" font-family="Times New Roman,serif" font-size="14.00">e</text>
<polygon fill="none" stroke="black" points="55,-3.5 55,-28.5 139,-28.5 139,-3.5 55,-3.5"/>
<text text-anchor="start" x="62" y="-12.3" font-family="Times New Roman,serif" font-size="14.00">VARIABLE</text>
<polygon fill="none" stroke="black" points="139,-3.5 139,-28.5 201,-28.5 201,-3.5 139,-3.5"/>
<text text-anchor="start" x="160.5" y="-12.3" font-family="Times New Roman,serif" font-size="14.00">I64</text>
<polygon fill="none" stroke="black" points="201,-3.5 201,-28.5 250,-28.5 250,-3.5 201,-3.5"/>
<text text-anchor="start" x="209.5" y="-12.3" font-family="Times New Roman,serif" font-size="14.00">Local</text>
<polygon fill="none" stroke="black" points="250,-3.5 250,-28.5 281,-28.5 281,-3.5 250,-3.5"/>
<text text-anchor="start" x="255" y="-12.3" font-family="Times New Roman,serif" font-size="14.00">151</text>
<polygon fill="none" stroke="black" points="281,-3.5 281,-28.5 338,-28.5 338,-3.5 281,-3.5"/>
<text text-anchor="start" x="306" y="-12.3" font-family="Times New Roman,serif" font-size="14.00">4</text>
</g>
</g>
</svg>
