<?xml version="1.0" encoding="UTF-8" standalone="no"?>
<!DOCTYPE svg PUBLIC "-//W3C//DTD SVG 1.1//EN"
 "http://www.w3.org/Graphics/SVG/1.1/DTD/svg11.dtd">
<!-- Generated by graphviz version 3.0.0 (20220226.1711)
 -->
<!-- Pages: 1 -->
<svg width="369pt" height="187pt"
 viewBox="0.00 0.00 369.00 187.00" xmlns="http://www.w3.org/2000/svg" xmlns:xlink="http://www.w3.org/1999/xlink">
<g id="graph0" class="graph" transform="scale(1 1) rotate(0) translate(4 183)">
<polygon fill="white" stroke="transparent" points="-4,4 -4,-183 365,-183 365,4 -4,4"/>
<!-- tablaSimbolos -->
<g id="node1" class="node">
<title>tablaSimbolos</title>
<polygon fill="none" stroke="black" points="8.5,-153.5 8.5,-174.5 70.5,-174.5 70.5,-153.5 8.5,-153.5"/>
<text text-anchor="start" x="33" y="-160.3" font-family="Times New Roman,serif" font-size="14.00">Id</text>
<polygon fill="none" stroke="black" points="70.5,-153.5 70.5,-174.5 154.5,-174.5 154.5,-153.5 70.5,-153.5"/>
<text text-anchor="start" x="73.5" y="-160.3" font-family="Times New Roman,serif" font-size="14.00">Tipo símbolo</text>
<polygon fill="none" stroke="black" points="154.5,-153.5 154.5,-174.5 220.5,-174.5 220.5,-153.5 154.5,-153.5"/>
<text text-anchor="start" x="159.5" y="-160.3" font-family="Times New Roman,serif" font-size="14.00">Tipo dato</text>
<polygon fill="none" stroke="black" points="220.5,-153.5 220.5,-174.5 269.5,-174.5 269.5,-153.5 220.5,-153.5"/>
<text text-anchor="start" x="223.5" y="-160.3" font-family="Times New Roman,serif" font-size="14.00">Ámbito</text>
<polygon fill="none" stroke="black" points="269.5,-153.5 269.5,-174.5 296.5,-174.5 296.5,-153.5 269.5,-153.5"/>
<text text-anchor="start" x="272.5" y="-160.3" font-family="Times New Roman,serif" font-size="14.00">Fila</text>
<polygon fill="none" stroke="black" points="296.5,-153.5 296.5,-174.5 353.5,-174.5 353.5,-153.5 296.5,-153.5"/>
<text text-anchor="start" x="299.5" y="-160.3" font-family="Times New Roman,serif" font-size="14.00">Columna</text>
<polygon fill="none" stroke="black" points="8.5,-128.5 8.5,-153.5 70.5,-153.5 70.5,-128.5 8.5,-128.5"/>
<text text-anchor="start" x="16.5" y="-137.3" font-family="Times New Roman,serif" font-size="14.00">Persona</text>
<polygon fill="none" stroke="black" points="70.5,-128.5 70.5,-153.5 154.5,-153.5 154.5,-128.5 70.5,-128.5"/>
<text text-anchor="start" x="77.5" y="-137.3" font-family="Times New Roman,serif" font-size="14.00">VARIABLE</text>
<polygon fill="none" stroke="black" points="154.5,-128.5 154.5,-153.5 220.5,-153.5 220.5,-128.5 154.5,-128.5"/>
<text text-anchor="start" x="159.5" y="-137.3" font-family="Times New Roman,serif" font-size="14.00">STRUCT</text>
<polygon fill="none" stroke="black" points="220.5,-128.5 220.5,-153.5 269.5,-153.5 269.5,-128.5 220.5,-128.5"/>
<text text-anchor="start" x="226" y="-137.3" font-family="Times New Roman,serif" font-size="14.00">Global</text>
<polygon fill="none" stroke="black" points="269.5,-128.5 269.5,-153.5 296.5,-153.5 296.5,-128.5 269.5,-128.5"/>
<text text-anchor="start" x="279.5" y="-137.3" font-family="Times New Roman,serif" font-size="14.00">1</text>
<polygon fill="none" stroke="black" points="296.5,-128.5 296.5,-153.5 353.5,-153.5 353.5,-128.5 296.5,-128.5"/>
<text text-anchor="start" x="321.5" y="-137.3" font-family="Times New Roman,serif" font-size="14.00">7</text>
<polygon fill="none" stroke="black" points="8.5,-103.5 8.5,-128.5 70.5,-128.5 70.5,-103.5 8.5,-103.5"/>
<text text-anchor="start" x="16" y="-112.3" font-family="Times New Roman,serif" font-size="14.00">imprimir</text>
<polygon fill="none" stroke="black" points="70.5,-103.5 70.5,-128.5 154.5,-128.5 154.5,-103.5 70.5,-103.5"/>
<text text-anchor="start" x="81" y="-112.3" font-family="Times New Roman,serif" font-size="14.00">FUNCION</text>
<polygon fill="none" stroke="black" points="154.5,-103.5 154.5,-128.5 220.5,-128.5 220.5,-103.5 154.5,-103.5"/>
<text text-anchor="start" x="170" y="-112.3" font-family="Times New Roman,serif" font-size="14.00">VOID</text>
<polygon fill="none" stroke="black" points="220.5,-103.5 220.5,-128.5 269.5,-128.5 269.5,-103.5 220.5,-103.5"/>
<text text-anchor="start" x="226" y="-112.3" font-family="Times New Roman,serif" font-size="14.00">Global</text>
<polygon fill="none" stroke="black" points="269.5,-103.5 269.5,-128.5 296.5,-128.5 296.5,-103.5 269.5,-103.5"/>
<text text-anchor="start" x="279.5" y="-112.3" font-family="Times New Roman,serif" font-size="14.00">7</text>
<polygon fill="none" stroke="black" points="296.5,-103.5 296.5,-128.5 353.5,-128.5 353.5,-103.5 296.5,-103.5"/>
<text text-anchor="start" x="321.5" y="-112.3" font-family="Times New Roman,serif" font-size="14.00">0</text>
<polygon fill="none" stroke="black" points="8.5,-78.5 8.5,-103.5 70.5,-103.5 70.5,-78.5 8.5,-78.5"/>
<text text-anchor="start" x="18" y="-87.3" font-family="Times New Roman,serif" font-size="14.00">nombre</text>
<polygon fill="none" stroke="black" points="70.5,-78.5 70.5,-103.5 154.5,-103.5 154.5,-78.5 70.5,-78.5"/>
<text text-anchor="start" x="77.5" y="-87.3" font-family="Times New Roman,serif" font-size="14.00">VARIABLE</text>
<polygon fill="none" stroke="black" points="154.5,-78.5 154.5,-103.5 220.5,-103.5 220.5,-78.5 154.5,-78.5"/>
<text text-anchor="start" x="173.5" y="-87.3" font-family="Times New Roman,serif" font-size="14.00">STR</text>
<polygon fill="none" stroke="black" points="220.5,-78.5 220.5,-103.5 269.5,-103.5 269.5,-78.5 220.5,-78.5"/>
<text text-anchor="start" x="229" y="-87.3" font-family="Times New Roman,serif" font-size="14.00">Local</text>
<polygon fill="none" stroke="black" points="269.5,-78.5 269.5,-103.5 296.5,-103.5 296.5,-78.5 269.5,-78.5"/>
<text text-anchor="start" x="276" y="-87.3" font-family="Times New Roman,serif" font-size="14.00">15</text>
<polygon fill="none" stroke="black" points="296.5,-78.5 296.5,-103.5 353.5,-103.5 353.5,-78.5 296.5,-78.5"/>
<text text-anchor="start" x="321.5" y="-87.3" font-family="Times New Roman,serif" font-size="14.00">8</text>
<polygon fill="none" stroke="black" points="8.5,-53.5 8.5,-78.5 70.5,-78.5 70.5,-53.5 8.5,-53.5"/>
<text text-anchor="start" x="25.5" y="-62.3" font-family="Times New Roman,serif" font-size="14.00">edad</text>
<polygon fill="none" stroke="black" points="70.5,-53.5 70.5,-78.5 154.5,-78.5 154.5,-53.5 70.5,-53.5"/>
<text text-anchor="start" x="77.5" y="-62.3" font-family="Times New Roman,serif" font-size="14.00">VARIABLE</text>
<polygon fill="none" stroke="black" points="154.5,-53.5 154.5,-78.5 220.5,-78.5 220.5,-53.5 154.5,-53.5"/>
<text text-anchor="start" x="178" y="-62.3" font-family="Times New Roman,serif" font-size="14.00">I64</text>
<polygon fill="none" stroke="black" points="220.5,-53.5 220.5,-78.5 269.5,-78.5 269.5,-53.5 220.5,-53.5"/>
<text text-anchor="start" x="229" y="-62.3" font-family="Times New Roman,serif" font-size="14.00">Local</text>
<polygon fill="none" stroke="black" points="269.5,-53.5 269.5,-78.5 296.5,-78.5 296.5,-53.5 269.5,-53.5"/>
<text text-anchor="start" x="276" y="-62.3" font-family="Times New Roman,serif" font-size="14.00">16</text>
<polygon fill="none" stroke="black" points="296.5,-53.5 296.5,-78.5 353.5,-78.5 353.5,-53.5 296.5,-53.5"/>
<text text-anchor="start" x="321.5" y="-62.3" font-family="Times New Roman,serif" font-size="14.00">8</text>
<polygon fill="none" stroke="black" points="8.5,-28.5 8.5,-53.5 70.5,-53.5 70.5,-28.5 8.5,-28.5"/>
<text text-anchor="start" x="13.5" y="-37.3" font-family="Times New Roman,serif" font-size="14.00">nPersona</text>
<polygon fill="none" stroke="black" points="70.5,-28.5 70.5,-53.5 154.5,-53.5 154.5,-28.5 70.5,-28.5"/>
<text text-anchor="start" x="77.5" y="-37.3" font-family="Times New Roman,serif" font-size="14.00">VARIABLE</text>
<polygon fill="none" stroke="black" points="154.5,-28.5 154.5,-53.5 220.5,-53.5 220.5,-28.5 154.5,-28.5"/>
<text text-anchor="start" x="159.5" y="-37.3" font-family="Times New Roman,serif" font-size="14.00">STRUCT</text>
<polygon fill="none" stroke="black" points="220.5,-28.5 220.5,-53.5 269.5,-53.5 269.5,-28.5 220.5,-28.5"/>
<text text-anchor="start" x="229" y="-37.3" font-family="Times New Roman,serif" font-size="14.00">Local</text>
<polygon fill="none" stroke="black" points="269.5,-28.5 269.5,-53.5 296.5,-53.5 296.5,-28.5 269.5,-28.5"/>
<text text-anchor="start" x="276" y="-37.3" font-family="Times New Roman,serif" font-size="14.00">14</text>
<polygon fill="none" stroke="black" points="296.5,-28.5 296.5,-53.5 353.5,-53.5 353.5,-28.5 296.5,-28.5"/>
<text text-anchor="start" x="321.5" y="-37.3" font-family="Times New Roman,serif" font-size="14.00">4</text>
<polygon fill="none" stroke="black" points="8.5,-3.5 8.5,-28.5 70.5,-28.5 70.5,-3.5 8.5,-3.5"/>
<text text-anchor="start" x="13.5" y="-12.3" font-family="Times New Roman,serif" font-size="14.00">nPersona</text>
<polygon fill="none" stroke="black" points="70.5,-3.5 70.5,-28.5 154.5,-28.5 154.5,-3.5 70.5,-3.5"/>
<text text-anchor="start" x="77.5" y="-12.3" font-family="Times New Roman,serif" font-size="14.00">VARIABLE</text>
<polygon fill="none" stroke="black" points="154.5,-3.5 154.5,-28.5 220.5,-28.5 220.5,-3.5 154.5,-3.5"/>
<text text-anchor="start" x="159.5" y="-12.3" font-family="Times New Roman,serif" font-size="14.00">STRUCT</text>
<polygon fill="none" stroke="black" points="220.5,-3.5 220.5,-28.5 269.5,-28.5 269.5,-3.5 220.5,-3.5"/>
<text text-anchor="start" x="229" y="-12.3" font-family="Times New Roman,serif" font-size="14.00">Local</text>
<polygon fill="none" stroke="black" points="269.5,-3.5 269.5,-28.5 296.5,-28.5 296.5,-3.5 269.5,-3.5"/>
<text text-anchor="start" x="279.5" y="-12.3" font-family="Times New Roman,serif" font-size="14.00">7</text>
<polygon fill="none" stroke="black" points="296.5,-3.5 296.5,-28.5 353.5,-28.5 353.5,-3.5 296.5,-3.5"/>
<text text-anchor="start" x="318" y="-12.3" font-family="Times New Roman,serif" font-size="14.00">12</text>
</g>
</g>
</svg>
