<?xml version="1.0" encoding="UTF-8" standalone="no"?>
<!DOCTYPE svg PUBLIC "-//W3C//DTD SVG 1.1//EN"
 "http://www.w3.org/Graphics/SVG/1.1/DTD/svg11.dtd">
<!-- Generated by graphviz version 3.0.0 (20220226.1711)
 -->
<!-- Pages: 1 -->
<svg width="679pt" height="62pt"
 viewBox="0.00 0.00 679.00 62.00" xmlns="http://www.w3.org/2000/svg" xmlns:xlink="http://www.w3.org/1999/xlink">
<g id="graph0" class="graph" transform="scale(1 1) rotate(0) translate(4 58)">
<polygon fill="white" stroke="transparent" points="-4,4 -4,-58 675,-58 675,4 -4,4"/>
<!-- tablaSimbolos -->
<g id="node1" class="node">
<title>tablaSimbolos</title>
<polygon fill="none" stroke="black" points="8.5,-29 8.5,-50 36.5,-50 36.5,-29 8.5,-29"/>
<text text-anchor="start" x="11.5" y="-35.8" font-family="Times New Roman,serif" font-size="14.00">No.</text>
<polygon fill="none" stroke="black" points="36.5,-29 36.5,-50 395.5,-50 395.5,-29 36.5,-29"/>
<text text-anchor="start" x="182" y="-35.8" font-family="Times New Roman,serif" font-size="14.00">Descripción</text>
<polygon fill="none" stroke="black" points="395.5,-29 395.5,-50 444.5,-50 444.5,-29 395.5,-29"/>
<text text-anchor="start" x="398.5" y="-35.8" font-family="Times New Roman,serif" font-size="14.00">Ámbito</text>
<polygon fill="none" stroke="black" points="444.5,-29 444.5,-50 482.5,-50 482.5,-29 444.5,-29"/>
<text text-anchor="start" x="447.5" y="-35.8" font-family="Times New Roman,serif" font-size="14.00">Línea</text>
<polygon fill="none" stroke="black" points="482.5,-29 482.5,-50 539.5,-50 539.5,-29 482.5,-29"/>
<text text-anchor="start" x="485.5" y="-35.8" font-family="Times New Roman,serif" font-size="14.00">Columna</text>
<polygon fill="none" stroke="black" points="539.5,-29 539.5,-50 663.5,-50 663.5,-29 539.5,-29"/>
<text text-anchor="start" x="565" y="-35.8" font-family="Times New Roman,serif" font-size="14.00">Fecha y hora</text>
<polygon fill="none" stroke="black" points="8.5,-4 8.5,-29 36.5,-29 36.5,-4 8.5,-4"/>
<text text-anchor="start" x="19" y="-12.8" font-family="Times New Roman,serif" font-size="14.00">1</text>
<polygon fill="none" stroke="black" points="36.5,-4 36.5,-29 395.5,-29 395.5,-4 36.5,-4"/>
<text text-anchor="start" x="41.5" y="-12.8" font-family="Times New Roman,serif" font-size="14.00">Semantic error, MAIN method not found. &#45;&#45; Line: 0 Column: 0</text>
<polygon fill="none" stroke="black" points="395.5,-4 395.5,-29 444.5,-29 444.5,-4 395.5,-4"/>
<text text-anchor="start" x="401" y="-12.8" font-family="Times New Roman,serif" font-size="14.00">Global</text>
<polygon fill="none" stroke="black" points="444.5,-4 444.5,-29 482.5,-29 482.5,-4 444.5,-4"/>
<text text-anchor="start" x="460" y="-12.8" font-family="Times New Roman,serif" font-size="14.00">0</text>
<polygon fill="none" stroke="black" points="482.5,-4 482.5,-29 539.5,-29 539.5,-4 482.5,-4"/>
<text text-anchor="start" x="507.5" y="-12.8" font-family="Times New Roman,serif" font-size="14.00">0</text>
<polygon fill="none" stroke="black" points="539.5,-4 539.5,-29 663.5,-29 663.5,-4 539.5,-4"/>
<text text-anchor="start" x="544.5" y="-12.8" font-family="Times New Roman,serif" font-size="14.00">04&#45;14&#45;2022 01:40:07</text>
</g>
</g>
</svg>
