<?xml version="1.0" encoding="UTF-8" standalone="no"?>
<!DOCTYPE svg PUBLIC "-//W3C//DTD SVG 1.1//EN"
 "http://www.w3.org/Graphics/SVG/1.1/DTD/svg11.dtd">
<!-- Generated by graphviz version 3.0.0 (20220226.1711)
 -->
<!-- Pages: 1 -->
<svg width="864pt" height="262pt"
 viewBox="0.00 0.00 864.00 262.00" xmlns="http://www.w3.org/2000/svg" xmlns:xlink="http://www.w3.org/1999/xlink">
<g id="graph0" class="graph" transform="scale(1 1) rotate(0) translate(4 258)">
<polygon fill="white" stroke="transparent" points="-4,4 -4,-258 860,-258 860,4 -4,4"/>
<!-- tablaSimbolos -->
<g id="node1" class="node">
<title>tablaSimbolos</title>
<polygon fill="none" stroke="black" points="8,-229 8,-250 36,-250 36,-229 8,-229"/>
<text text-anchor="start" x="11" y="-235.8" font-family="Times New Roman,serif" font-size="14.00">No.</text>
<polygon fill="none" stroke="black" points="36,-229 36,-250 580,-250 580,-229 36,-229"/>
<text text-anchor="start" x="274" y="-235.8" font-family="Times New Roman,serif" font-size="14.00">Descripción</text>
<polygon fill="none" stroke="black" points="580,-229 580,-250 629,-250 629,-229 580,-229"/>
<text text-anchor="start" x="583" y="-235.8" font-family="Times New Roman,serif" font-size="14.00">Ámbito</text>
<polygon fill="none" stroke="black" points="629,-229 629,-250 667,-250 667,-229 629,-229"/>
<text text-anchor="start" x="632" y="-235.8" font-family="Times New Roman,serif" font-size="14.00">Línea</text>
<polygon fill="none" stroke="black" points="667,-229 667,-250 724,-250 724,-229 667,-229"/>
<text text-anchor="start" x="670" y="-235.8" font-family="Times New Roman,serif" font-size="14.00">Columna</text>
<polygon fill="none" stroke="black" points="724,-229 724,-250 848,-250 848,-229 724,-229"/>
<text text-anchor="start" x="749.5" y="-235.8" font-family="Times New Roman,serif" font-size="14.00">Fecha y hora</text>
<polygon fill="none" stroke="black" points="8,-204 8,-229 36,-229 36,-204 8,-204"/>
<text text-anchor="start" x="18.5" y="-212.8" font-family="Times New Roman,serif" font-size="14.00">1</text>
<polygon fill="none" stroke="black" points="36,-204 36,-229 580,-229 580,-204 36,-204"/>
<text text-anchor="start" x="41" y="-212.8" font-family="Times New Roman,serif" font-size="14.00">Semantic error, the condition of the expression is not a boolean expression. &#45;&#45; Line:6 Column: 5</text>
<polygon fill="none" stroke="black" points="580,-204 580,-229 629,-229 629,-204 580,-204"/>
<text text-anchor="start" x="588.5" y="-212.8" font-family="Times New Roman,serif" font-size="14.00">Local</text>
<polygon fill="none" stroke="black" points="629,-204 629,-229 667,-229 667,-204 629,-204"/>
<text text-anchor="start" x="644.5" y="-212.8" font-family="Times New Roman,serif" font-size="14.00">6</text>
<polygon fill="none" stroke="black" points="667,-204 667,-229 724,-229 724,-204 667,-204"/>
<text text-anchor="start" x="692" y="-212.8" font-family="Times New Roman,serif" font-size="14.00">5</text>
<polygon fill="none" stroke="black" points="724,-204 724,-229 848,-229 848,-204 724,-204"/>
<text text-anchor="start" x="729" y="-212.8" font-family="Times New Roman,serif" font-size="14.00">03&#45;26&#45;2022 13:58:50</text>
<polygon fill="none" stroke="black" points="8,-179 8,-204 36,-204 36,-179 8,-179"/>
<text text-anchor="start" x="18.5" y="-187.8" font-family="Times New Roman,serif" font-size="14.00">2</text>
<polygon fill="none" stroke="black" points="36,-179 36,-204 580,-204 580,-179 36,-179"/>
<text text-anchor="start" x="101" y="-187.8" font-family="Times New Roman,serif" font-size="14.00">Semantic error, can&#39;t initialize a I64 with STR value. &#45;&#45; Line:28 Column: 24</text>
<polygon fill="none" stroke="black" points="580,-179 580,-204 629,-204 629,-179 580,-179"/>
<text text-anchor="start" x="588.5" y="-187.8" font-family="Times New Roman,serif" font-size="14.00">Local</text>
<polygon fill="none" stroke="black" points="629,-179 629,-204 667,-204 667,-179 629,-179"/>
<text text-anchor="start" x="641" y="-187.8" font-family="Times New Roman,serif" font-size="14.00">28</text>
<polygon fill="none" stroke="black" points="667,-179 667,-204 724,-204 724,-179 667,-179"/>
<text text-anchor="start" x="688.5" y="-187.8" font-family="Times New Roman,serif" font-size="14.00">24</text>
<polygon fill="none" stroke="black" points="724,-179 724,-204 848,-204 848,-179 724,-179"/>
<text text-anchor="start" x="729" y="-187.8" font-family="Times New Roman,serif" font-size="14.00">03&#45;26&#45;2022 13:58:50</text>
<polygon fill="none" stroke="black" points="8,-154 8,-179 36,-179 36,-154 8,-154"/>
<text text-anchor="start" x="18.5" y="-162.8" font-family="Times New Roman,serif" font-size="14.00">3</text>
<polygon fill="none" stroke="black" points="36,-154 36,-179 580,-179 580,-154 36,-154"/>
<text text-anchor="start" x="113" y="-162.8" font-family="Times New Roman,serif" font-size="14.00">Semantic error, can&#39;t add I64 type to STR type. &#45;&#45; Line: 3 Column: 19</text>
<polygon fill="none" stroke="black" points="580,-154 580,-179 629,-179 629,-154 580,-154"/>
<text text-anchor="start" x="588.5" y="-162.8" font-family="Times New Roman,serif" font-size="14.00">Local</text>
<polygon fill="none" stroke="black" points="629,-154 629,-179 667,-179 667,-154 629,-154"/>
<text text-anchor="start" x="644.5" y="-162.8" font-family="Times New Roman,serif" font-size="14.00">3</text>
<polygon fill="none" stroke="black" points="667,-154 667,-179 724,-179 724,-154 667,-154"/>
<text text-anchor="start" x="688.5" y="-162.8" font-family="Times New Roman,serif" font-size="14.00">19</text>
<polygon fill="none" stroke="black" points="724,-154 724,-179 848,-179 848,-154 724,-154"/>
<text text-anchor="start" x="729" y="-162.8" font-family="Times New Roman,serif" font-size="14.00">03&#45;26&#45;2022 13:58:50</text>
<polygon fill="none" stroke="black" points="8,-129 8,-154 36,-154 36,-129 8,-129"/>
<text text-anchor="start" x="18.5" y="-137.8" font-family="Times New Roman,serif" font-size="14.00">4</text>
<polygon fill="none" stroke="black" points="36,-129 36,-154 580,-154 580,-129 36,-129"/>
<text text-anchor="start" x="120" y="-137.8" font-family="Times New Roman,serif" font-size="14.00">Semantic error, &quot;x&quot; variable doesn&#39;t not exist. &#45;&#45; Line: 4 Column: 18</text>
<polygon fill="none" stroke="black" points="580,-129 580,-154 629,-154 629,-129 580,-129"/>
<text text-anchor="start" x="588.5" y="-137.8" font-family="Times New Roman,serif" font-size="14.00">Local</text>
<polygon fill="none" stroke="black" points="629,-129 629,-154 667,-154 667,-129 629,-129"/>
<text text-anchor="start" x="644.5" y="-137.8" font-family="Times New Roman,serif" font-size="14.00">4</text>
<polygon fill="none" stroke="black" points="667,-129 667,-154 724,-154 724,-129 667,-129"/>
<text text-anchor="start" x="688.5" y="-137.8" font-family="Times New Roman,serif" font-size="14.00">18</text>
<polygon fill="none" stroke="black" points="724,-129 724,-154 848,-154 848,-129 724,-129"/>
<text text-anchor="start" x="729" y="-137.8" font-family="Times New Roman,serif" font-size="14.00">03&#45;26&#45;2022 13:58:50</text>
<polygon fill="none" stroke="black" points="8,-104 8,-129 36,-129 36,-104 8,-104"/>
<text text-anchor="start" x="18.5" y="-112.8" font-family="Times New Roman,serif" font-size="14.00">5</text>
<polygon fill="none" stroke="black" points="36,-104 36,-129 580,-129 580,-104 36,-104"/>
<text text-anchor="start" x="116.5" y="-112.8" font-family="Times New Roman,serif" font-size="14.00">Semantic error, cannot break outside of a loop. &#45;&#45; Line:10 Column: 5</text>
<polygon fill="none" stroke="black" points="580,-104 580,-129 629,-129 629,-104 580,-104"/>
<text text-anchor="start" x="585.5" y="-112.8" font-family="Times New Roman,serif" font-size="14.00">Global</text>
<polygon fill="none" stroke="black" points="629,-104 629,-129 667,-129 667,-104 629,-104"/>
<text text-anchor="start" x="641" y="-112.8" font-family="Times New Roman,serif" font-size="14.00">10</text>
<polygon fill="none" stroke="black" points="667,-104 667,-129 724,-129 724,-104 667,-104"/>
<text text-anchor="start" x="692" y="-112.8" font-family="Times New Roman,serif" font-size="14.00">5</text>
<polygon fill="none" stroke="black" points="724,-104 724,-129 848,-129 848,-104 724,-104"/>
<text text-anchor="start" x="729" y="-112.8" font-family="Times New Roman,serif" font-size="14.00">03&#45;26&#45;2022 13:58:50</text>
<polygon fill="none" stroke="black" points="8,-79 8,-104 36,-104 36,-79 8,-79"/>
<text text-anchor="start" x="18.5" y="-87.8" font-family="Times New Roman,serif" font-size="14.00">6</text>
<polygon fill="none" stroke="black" points="36,-79 36,-104 580,-104 580,-79 36,-79"/>
<text text-anchor="start" x="64.5" y="-87.8" font-family="Times New Roman,serif" font-size="14.00">Semantic error, the element &quot;variable1&quot; already exist in this scope. &#45;&#45; Line:17 Column: 4</text>
<polygon fill="none" stroke="black" points="580,-79 580,-104 629,-104 629,-79 580,-79"/>
<text text-anchor="start" x="588.5" y="-87.8" font-family="Times New Roman,serif" font-size="14.00">Local</text>
<polygon fill="none" stroke="black" points="629,-79 629,-104 667,-104 667,-79 629,-79"/>
<text text-anchor="start" x="641" y="-87.8" font-family="Times New Roman,serif" font-size="14.00">17</text>
<polygon fill="none" stroke="black" points="667,-79 667,-104 724,-104 724,-79 667,-79"/>
<text text-anchor="start" x="692" y="-87.8" font-family="Times New Roman,serif" font-size="14.00">4</text>
<polygon fill="none" stroke="black" points="724,-79 724,-104 848,-104 848,-79 724,-79"/>
<text text-anchor="start" x="729" y="-87.8" font-family="Times New Roman,serif" font-size="14.00">03&#45;26&#45;2022 13:58:50</text>
<polygon fill="none" stroke="black" points="8,-54 8,-79 36,-79 36,-54 8,-54"/>
<text text-anchor="start" x="18.5" y="-62.8" font-family="Times New Roman,serif" font-size="14.00">7</text>
<polygon fill="none" stroke="black" points="36,-54 36,-79 580,-79 580,-54 36,-54"/>
<text text-anchor="start" x="103" y="-62.8" font-family="Times New Roman,serif" font-size="14.00">Semantic error, can&#39;t assign I64 type to STR type. &#45;&#45; Line: 20 Column: 15</text>
<polygon fill="none" stroke="black" points="580,-54 580,-79 629,-79 629,-54 580,-54"/>
<text text-anchor="start" x="588.5" y="-62.8" font-family="Times New Roman,serif" font-size="14.00">Local</text>
<polygon fill="none" stroke="black" points="629,-54 629,-79 667,-79 667,-54 629,-54"/>
<text text-anchor="start" x="641" y="-62.8" font-family="Times New Roman,serif" font-size="14.00">20</text>
<polygon fill="none" stroke="black" points="667,-54 667,-79 724,-79 724,-54 667,-54"/>
<text text-anchor="start" x="688.5" y="-62.8" font-family="Times New Roman,serif" font-size="14.00">15</text>
<polygon fill="none" stroke="black" points="724,-54 724,-79 848,-79 848,-54 724,-54"/>
<text text-anchor="start" x="729" y="-62.8" font-family="Times New Roman,serif" font-size="14.00">03&#45;26&#45;2022 13:58:50</text>
<polygon fill="none" stroke="black" points="8,-29 8,-54 36,-54 36,-29 8,-29"/>
<text text-anchor="start" x="18.5" y="-37.8" font-family="Times New Roman,serif" font-size="14.00">8</text>
<polygon fill="none" stroke="black" points="36,-29 36,-54 580,-54 580,-29 36,-29"/>
<text text-anchor="start" x="129.5" y="-37.8" font-family="Times New Roman,serif" font-size="14.00">Semantic error, can&#39;t be divided by zero. &#45;&#45; Line: 22 Column: 15</text>
<polygon fill="none" stroke="black" points="580,-29 580,-54 629,-54 629,-29 580,-29"/>
<text text-anchor="start" x="588.5" y="-37.8" font-family="Times New Roman,serif" font-size="14.00">Local</text>
<polygon fill="none" stroke="black" points="629,-29 629,-54 667,-54 667,-29 629,-29"/>
<text text-anchor="start" x="641" y="-37.8" font-family="Times New Roman,serif" font-size="14.00">22</text>
<polygon fill="none" stroke="black" points="667,-29 667,-54 724,-54 724,-29 667,-29"/>
<text text-anchor="start" x="688.5" y="-37.8" font-family="Times New Roman,serif" font-size="14.00">15</text>
<polygon fill="none" stroke="black" points="724,-29 724,-54 848,-54 848,-29 724,-29"/>
<text text-anchor="start" x="729" y="-37.8" font-family="Times New Roman,serif" font-size="14.00">03&#45;26&#45;2022 13:58:50</text>
<polygon fill="none" stroke="black" points="8,-4 8,-29 36,-29 36,-4 8,-4"/>
<text text-anchor="start" x="18.5" y="-12.8" font-family="Times New Roman,serif" font-size="14.00">9</text>
<polygon fill="none" stroke="black" points="36,-4 36,-29 580,-29 580,-4 36,-4"/>
<text text-anchor="start" x="96" y="-12.8" font-family="Times New Roman,serif" font-size="14.00">Semantic error, can&#39;t modify a non&#45;mutable I64 type. &#45;&#45; Line: 25 Column: 14</text>
<polygon fill="none" stroke="black" points="580,-4 580,-29 629,-29 629,-4 580,-4"/>
<text text-anchor="start" x="588.5" y="-12.8" font-family="Times New Roman,serif" font-size="14.00">Local</text>
<polygon fill="none" stroke="black" points="629,-4 629,-29 667,-29 667,-4 629,-4"/>
<text text-anchor="start" x="641" y="-12.8" font-family="Times New Roman,serif" font-size="14.00">25</text>
<polygon fill="none" stroke="black" points="667,-4 667,-29 724,-29 724,-4 667,-4"/>
<text text-anchor="start" x="688.5" y="-12.8" font-family="Times New Roman,serif" font-size="14.00">14</text>
<polygon fill="none" stroke="black" points="724,-4 724,-29 848,-29 848,-4 724,-4"/>
<text text-anchor="start" x="729" y="-12.8" font-family="Times New Roman,serif" font-size="14.00">03&#45;26&#45;2022 13:58:50</text>
</g>
</g>
</svg>
