<?xml version="1.0" encoding="UTF-8" standalone="no"?>
<!DOCTYPE svg PUBLIC "-//W3C//DTD SVG 1.1//EN"
 "http://www.w3.org/Graphics/SVG/1.1/DTD/svg11.dtd">
<!-- Generated by graphviz version 3.0.0 (20220226.1711)
 -->
<!-- Pages: 1 -->
<svg width="534pt" height="62pt"
 viewBox="0.00 0.00 534.00 62.00" xmlns="http://www.w3.org/2000/svg" xmlns:xlink="http://www.w3.org/1999/xlink">
<g id="graph0" class="graph" transform="scale(1 1) rotate(0) translate(4 58)">
<polygon fill="white" stroke="transparent" points="-4,4 -4,-58 530,-58 530,4 -4,4"/>
<!-- tablaSimbolos -->
<g id="node1" class="node">
<title>tablaSimbolos</title>
<polygon fill="none" stroke="black" points="8,-29 8,-50 36,-50 36,-29 8,-29"/>
<text text-anchor="start" x="11" y="-35.8" font-family="Times New Roman,serif" font-size="14.00">No.</text>
<polygon fill="none" stroke="black" points="36,-29 36,-50 250,-50 250,-29 36,-29"/>
<text text-anchor="start" x="109" y="-35.8" font-family="Times New Roman,serif" font-size="14.00">Descripción</text>
<polygon fill="none" stroke="black" points="250,-29 250,-50 299,-50 299,-29 250,-29"/>
<text text-anchor="start" x="253" y="-35.8" font-family="Times New Roman,serif" font-size="14.00">Ámbito</text>
<polygon fill="none" stroke="black" points="299,-29 299,-50 337,-50 337,-29 299,-29"/>
<text text-anchor="start" x="302" y="-35.8" font-family="Times New Roman,serif" font-size="14.00">Línea</text>
<polygon fill="none" stroke="black" points="337,-29 337,-50 394,-50 394,-29 337,-29"/>
<text text-anchor="start" x="340" y="-35.8" font-family="Times New Roman,serif" font-size="14.00">Columna</text>
<polygon fill="none" stroke="black" points="394,-29 394,-50 518,-50 518,-29 394,-29"/>
<text text-anchor="start" x="419.5" y="-35.8" font-family="Times New Roman,serif" font-size="14.00">Fecha y hora</text>
<polygon fill="none" stroke="black" points="8,-4 8,-29 36,-29 36,-4 8,-4"/>
<text text-anchor="start" x="18.5" y="-12.8" font-family="Times New Roman,serif" font-size="14.00">1</text>
<polygon fill="none" stroke="black" points="36,-4 36,-29 250,-29 250,-4 36,-4"/>
<text text-anchor="start" x="41" y="-12.8" font-family="Times New Roman,serif" font-size="14.00">no viable alternative at input &#39;pila[0];&#39;</text>
<polygon fill="none" stroke="black" points="250,-4 250,-29 299,-29 299,-4 250,-4"/>
<text text-anchor="start" x="255.5" y="-12.8" font-family="Times New Roman,serif" font-size="14.00">Global</text>
<polygon fill="none" stroke="black" points="299,-4 299,-29 337,-29 337,-4 299,-4"/>
<text text-anchor="start" x="314.5" y="-12.8" font-family="Times New Roman,serif" font-size="14.00">6</text>
<polygon fill="none" stroke="black" points="337,-4 337,-29 394,-29 394,-4 337,-4"/>
<text text-anchor="start" x="358.5" y="-12.8" font-family="Times New Roman,serif" font-size="14.00">27</text>
<polygon fill="none" stroke="black" points="394,-4 394,-29 518,-29 518,-4 394,-4"/>
<text text-anchor="start" x="399" y="-12.8" font-family="Times New Roman,serif" font-size="14.00">04&#45;05&#45;2022 23:48:57</text>
</g>
</g>
</svg>
