<?xml version="1.0" encoding="UTF-8" standalone="no"?>
<!DOCTYPE svg PUBLIC "-//W3C//DTD SVG 1.1//EN"
 "http://www.w3.org/Graphics/SVG/1.1/DTD/svg11.dtd">
<!-- Generated by graphviz version 3.0.0 (20220226.1711)
 -->
<!-- Pages: 1 -->
<svg width="352pt" height="62pt"
 viewBox="0.00 0.00 352.00 62.00" xmlns="http://www.w3.org/2000/svg" xmlns:xlink="http://www.w3.org/1999/xlink">
<g id="graph0" class="graph" transform="scale(1 1) rotate(0) translate(4 58)">
<polygon fill="white" stroke="transparent" points="-4,4 -4,-58 348,-58 348,4 -4,4"/>
<!-- tablaSimbolos -->
<g id="node1" class="node">
<title>tablaSimbolos</title>
<polygon fill="none" stroke="black" points="8,-29 8,-50 42,-50 42,-29 8,-29"/>
<text text-anchor="start" x="18.5" y="-35.8" font-family="Times New Roman,serif" font-size="14.00">Id</text>
<polygon fill="none" stroke="black" points="42,-29 42,-50 126,-50 126,-29 42,-29"/>
<text text-anchor="start" x="45" y="-35.8" font-family="Times New Roman,serif" font-size="14.00">Tipo símbolo</text>
<polygon fill="none" stroke="black" points="126,-29 126,-50 203,-50 203,-29 126,-29"/>
<text text-anchor="start" x="136.5" y="-35.8" font-family="Times New Roman,serif" font-size="14.00">Tipo dato</text>
<polygon fill="none" stroke="black" points="203,-29 203,-50 252,-50 252,-29 203,-29"/>
<text text-anchor="start" x="206" y="-35.8" font-family="Times New Roman,serif" font-size="14.00">Ámbito</text>
<polygon fill="none" stroke="black" points="252,-29 252,-50 279,-50 279,-29 252,-29"/>
<text text-anchor="start" x="255" y="-35.8" font-family="Times New Roman,serif" font-size="14.00">Fila</text>
<polygon fill="none" stroke="black" points="279,-29 279,-50 336,-50 336,-29 279,-29"/>
<text text-anchor="start" x="282" y="-35.8" font-family="Times New Roman,serif" font-size="14.00">Columna</text>
<polygon fill="none" stroke="black" points="8,-4 8,-29 42,-29 42,-4 8,-4"/>
<text text-anchor="start" x="13" y="-12.8" font-family="Times New Roman,serif" font-size="14.00">cola</text>
<polygon fill="none" stroke="black" points="42,-4 42,-29 126,-29 126,-4 42,-4"/>
<text text-anchor="start" x="49" y="-12.8" font-family="Times New Roman,serif" font-size="14.00">VARIABLE</text>
<polygon fill="none" stroke="black" points="126,-4 126,-29 203,-29 203,-4 126,-4"/>
<text text-anchor="start" x="131" y="-12.8" font-family="Times New Roman,serif" font-size="14.00">BOOLEAN</text>
<polygon fill="none" stroke="black" points="203,-4 203,-29 252,-29 252,-4 203,-4"/>
<text text-anchor="start" x="211.5" y="-12.8" font-family="Times New Roman,serif" font-size="14.00">Local</text>
<polygon fill="none" stroke="black" points="252,-4 252,-29 279,-29 279,-4 252,-4"/>
<text text-anchor="start" x="262" y="-12.8" font-family="Times New Roman,serif" font-size="14.00">2</text>
<polygon fill="none" stroke="black" points="279,-4 279,-29 336,-29 336,-4 279,-4"/>
<text text-anchor="start" x="304" y="-12.8" font-family="Times New Roman,serif" font-size="14.00">4</text>
</g>
</g>
</svg>
