<?xml version="1.0" encoding="UTF-8" standalone="no"?>
<!DOCTYPE svg PUBLIC "-//W3C//DTD SVG 1.1//EN"
 "http://www.w3.org/Graphics/SVG/1.1/DTD/svg11.dtd">
<!-- Generated by graphviz version 3.0.0 (20220226.1711)
 -->
<!-- Pages: 1 -->
<svg width="347pt" height="162pt"
 viewBox="0.00 0.00 347.00 162.00" xmlns="http://www.w3.org/2000/svg" xmlns:xlink="http://www.w3.org/1999/xlink">
<g id="graph0" class="graph" transform="scale(1 1) rotate(0) translate(4 158)">
<polygon fill="white" stroke="transparent" points="-4,4 -4,-158 343,-158 343,4 -4,4"/>
<!-- tablaSimbolos -->
<g id="node1" class="node">
<title>tablaSimbolos</title>
<polygon fill="none" stroke="black" points="8.5,-129 8.5,-150 52.5,-150 52.5,-129 8.5,-129"/>
<text text-anchor="start" x="24" y="-135.8" font-family="Times New Roman,serif" font-size="14.00">Id</text>
<polygon fill="none" stroke="black" points="52.5,-129 52.5,-150 136.5,-150 136.5,-129 52.5,-129"/>
<text text-anchor="start" x="55.5" y="-135.8" font-family="Times New Roman,serif" font-size="14.00">Tipo símbolo</text>
<polygon fill="none" stroke="black" points="136.5,-129 136.5,-150 198.5,-150 198.5,-129 136.5,-129"/>
<text text-anchor="start" x="139.5" y="-135.8" font-family="Times New Roman,serif" font-size="14.00">Tipo dato</text>
<polygon fill="none" stroke="black" points="198.5,-129 198.5,-150 247.5,-150 247.5,-129 198.5,-129"/>
<text text-anchor="start" x="201.5" y="-135.8" font-family="Times New Roman,serif" font-size="14.00">Ámbito</text>
<polygon fill="none" stroke="black" points="247.5,-129 247.5,-150 274.5,-150 274.5,-129 247.5,-129"/>
<text text-anchor="start" x="250.5" y="-135.8" font-family="Times New Roman,serif" font-size="14.00">Fila</text>
<polygon fill="none" stroke="black" points="274.5,-129 274.5,-150 331.5,-150 331.5,-129 274.5,-129"/>
<text text-anchor="start" x="277.5" y="-135.8" font-family="Times New Roman,serif" font-size="14.00">Columna</text>
<polygon fill="none" stroke="black" points="8.5,-104 8.5,-129 52.5,-129 52.5,-104 8.5,-104"/>
<text text-anchor="start" x="13.5" y="-112.8" font-family="Times New Roman,serif" font-size="14.00">sumar</text>
<polygon fill="none" stroke="black" points="52.5,-104 52.5,-129 136.5,-129 136.5,-104 52.5,-104"/>
<text text-anchor="start" x="63" y="-112.8" font-family="Times New Roman,serif" font-size="14.00">FUNCION</text>
<polygon fill="none" stroke="black" points="136.5,-104 136.5,-129 198.5,-129 198.5,-104 136.5,-104"/>
<text text-anchor="start" x="150" y="-112.8" font-family="Times New Roman,serif" font-size="14.00">VOID</text>
<polygon fill="none" stroke="black" points="198.5,-104 198.5,-129 247.5,-129 247.5,-104 198.5,-104"/>
<text text-anchor="start" x="204" y="-112.8" font-family="Times New Roman,serif" font-size="14.00">Global</text>
<polygon fill="none" stroke="black" points="247.5,-104 247.5,-129 274.5,-129 274.5,-104 247.5,-104"/>
<text text-anchor="start" x="257.5" y="-112.8" font-family="Times New Roman,serif" font-size="14.00">1</text>
<polygon fill="none" stroke="black" points="274.5,-104 274.5,-129 331.5,-129 331.5,-104 274.5,-104"/>
<text text-anchor="start" x="299.5" y="-112.8" font-family="Times New Roman,serif" font-size="14.00">0</text>
<polygon fill="none" stroke="black" points="8.5,-79 8.5,-104 52.5,-104 52.5,-79 8.5,-79"/>
<text text-anchor="start" x="15" y="-87.8" font-family="Times New Roman,serif" font-size="14.00">num1</text>
<polygon fill="none" stroke="black" points="52.5,-79 52.5,-104 136.5,-104 136.5,-79 52.5,-79"/>
<text text-anchor="start" x="59.5" y="-87.8" font-family="Times New Roman,serif" font-size="14.00">VARIABLE</text>
<polygon fill="none" stroke="black" points="136.5,-79 136.5,-104 198.5,-104 198.5,-79 136.5,-79"/>
<text text-anchor="start" x="158" y="-87.8" font-family="Times New Roman,serif" font-size="14.00">I64</text>
<polygon fill="none" stroke="black" points="198.5,-79 198.5,-104 247.5,-104 247.5,-79 198.5,-79"/>
<text text-anchor="start" x="207" y="-87.8" font-family="Times New Roman,serif" font-size="14.00">Local</text>
<polygon fill="none" stroke="black" points="247.5,-79 247.5,-104 274.5,-104 274.5,-79 247.5,-79"/>
<text text-anchor="start" x="257.5" y="-87.8" font-family="Times New Roman,serif" font-size="14.00">7</text>
<polygon fill="none" stroke="black" points="274.5,-79 274.5,-104 331.5,-104 331.5,-79 274.5,-79"/>
<text text-anchor="start" x="299.5" y="-87.8" font-family="Times New Roman,serif" font-size="14.00">4</text>
<polygon fill="none" stroke="black" points="8.5,-54 8.5,-79 52.5,-79 52.5,-54 8.5,-54"/>
<text text-anchor="start" x="15" y="-62.8" font-family="Times New Roman,serif" font-size="14.00">num2</text>
<polygon fill="none" stroke="black" points="52.5,-54 52.5,-79 136.5,-79 136.5,-54 52.5,-54"/>
<text text-anchor="start" x="59.5" y="-62.8" font-family="Times New Roman,serif" font-size="14.00">VARIABLE</text>
<polygon fill="none" stroke="black" points="136.5,-54 136.5,-79 198.5,-79 198.5,-54 136.5,-54"/>
<text text-anchor="start" x="158" y="-62.8" font-family="Times New Roman,serif" font-size="14.00">I64</text>
<polygon fill="none" stroke="black" points="198.5,-54 198.5,-79 247.5,-79 247.5,-54 198.5,-54"/>
<text text-anchor="start" x="207" y="-62.8" font-family="Times New Roman,serif" font-size="14.00">Local</text>
<polygon fill="none" stroke="black" points="247.5,-54 247.5,-79 274.5,-79 274.5,-54 247.5,-54"/>
<text text-anchor="start" x="257.5" y="-62.8" font-family="Times New Roman,serif" font-size="14.00">8</text>
<polygon fill="none" stroke="black" points="274.5,-54 274.5,-79 331.5,-79 331.5,-54 274.5,-54"/>
<text text-anchor="start" x="299.5" y="-62.8" font-family="Times New Roman,serif" font-size="14.00">4</text>
<polygon fill="none" stroke="black" points="8.5,-29 8.5,-54 52.5,-54 52.5,-29 8.5,-29"/>
<text text-anchor="start" x="15" y="-37.8" font-family="Times New Roman,serif" font-size="14.00">num1</text>
<polygon fill="none" stroke="black" points="52.5,-29 52.5,-54 136.5,-54 136.5,-29 52.5,-29"/>
<text text-anchor="start" x="59.5" y="-37.8" font-family="Times New Roman,serif" font-size="14.00">VARIABLE</text>
<polygon fill="none" stroke="black" points="136.5,-29 136.5,-54 198.5,-54 198.5,-29 136.5,-29"/>
<text text-anchor="start" x="158" y="-37.8" font-family="Times New Roman,serif" font-size="14.00">I64</text>
<polygon fill="none" stroke="black" points="198.5,-29 198.5,-54 247.5,-54 247.5,-29 198.5,-29"/>
<text text-anchor="start" x="207" y="-37.8" font-family="Times New Roman,serif" font-size="14.00">Local</text>
<polygon fill="none" stroke="black" points="247.5,-29 247.5,-54 274.5,-54 274.5,-29 247.5,-29"/>
<text text-anchor="start" x="257.5" y="-37.8" font-family="Times New Roman,serif" font-size="14.00">1</text>
<polygon fill="none" stroke="black" points="274.5,-29 274.5,-54 331.5,-54 331.5,-29 274.5,-29"/>
<text text-anchor="start" x="299.5" y="-37.8" font-family="Times New Roman,serif" font-size="14.00">9</text>
<polygon fill="none" stroke="black" points="8.5,-4 8.5,-29 52.5,-29 52.5,-4 8.5,-4"/>
<text text-anchor="start" x="15" y="-12.8" font-family="Times New Roman,serif" font-size="14.00">num2</text>
<polygon fill="none" stroke="black" points="52.5,-4 52.5,-29 136.5,-29 136.5,-4 52.5,-4"/>
<text text-anchor="start" x="59.5" y="-12.8" font-family="Times New Roman,serif" font-size="14.00">VARIABLE</text>
<polygon fill="none" stroke="black" points="136.5,-4 136.5,-29 198.5,-29 198.5,-4 136.5,-4"/>
<text text-anchor="start" x="158" y="-12.8" font-family="Times New Roman,serif" font-size="14.00">I64</text>
<polygon fill="none" stroke="black" points="198.5,-4 198.5,-29 247.5,-29 247.5,-4 198.5,-4"/>
<text text-anchor="start" x="207" y="-12.8" font-family="Times New Roman,serif" font-size="14.00">Local</text>
<polygon fill="none" stroke="black" points="247.5,-4 247.5,-29 274.5,-29 274.5,-4 247.5,-4"/>
<text text-anchor="start" x="257.5" y="-12.8" font-family="Times New Roman,serif" font-size="14.00">1</text>
<polygon fill="none" stroke="black" points="274.5,-4 274.5,-29 331.5,-29 331.5,-4 274.5,-4"/>
<text text-anchor="start" x="296" y="-12.8" font-family="Times New Roman,serif" font-size="14.00">18</text>
</g>
</g>
</svg>
