<?xml version="1.0" encoding="UTF-8" standalone="no"?>
<!DOCTYPE svg PUBLIC "-//W3C//DTD SVG 1.1//EN"
 "http://www.w3.org/Graphics/SVG/1.1/DTD/svg11.dtd">
<!-- Generated by graphviz version 3.0.0 (20220226.1711)
 -->
<!-- Pages: 1 -->
<svg width="369pt" height="262pt"
 viewBox="0.00 0.00 369.00 262.00" xmlns="http://www.w3.org/2000/svg" xmlns:xlink="http://www.w3.org/1999/xlink">
<g id="graph0" class="graph" transform="scale(1 1) rotate(0) translate(4 258)">
<polygon fill="white" stroke="transparent" points="-4,4 -4,-258 365,-258 365,4 -4,4"/>
<!-- tablaSimbolos -->
<g id="node1" class="node">
<title>tablaSimbolos</title>
<polygon fill="none" stroke="black" points="8.5,-229 8.5,-250 70.5,-250 70.5,-229 8.5,-229"/>
<text text-anchor="start" x="33" y="-235.8" font-family="Times New Roman,serif" font-size="14.00">Id</text>
<polygon fill="none" stroke="black" points="70.5,-229 70.5,-250 154.5,-250 154.5,-229 70.5,-229"/>
<text text-anchor="start" x="73.5" y="-235.8" font-family="Times New Roman,serif" font-size="14.00">Tipo símbolo</text>
<polygon fill="none" stroke="black" points="154.5,-229 154.5,-250 220.5,-250 220.5,-229 154.5,-229"/>
<text text-anchor="start" x="159.5" y="-235.8" font-family="Times New Roman,serif" font-size="14.00">Tipo dato</text>
<polygon fill="none" stroke="black" points="220.5,-229 220.5,-250 269.5,-250 269.5,-229 220.5,-229"/>
<text text-anchor="start" x="223.5" y="-235.8" font-family="Times New Roman,serif" font-size="14.00">Ámbito</text>
<polygon fill="none" stroke="black" points="269.5,-229 269.5,-250 296.5,-250 296.5,-229 269.5,-229"/>
<text text-anchor="start" x="272.5" y="-235.8" font-family="Times New Roman,serif" font-size="14.00">Fila</text>
<polygon fill="none" stroke="black" points="296.5,-229 296.5,-250 353.5,-250 353.5,-229 296.5,-229"/>
<text text-anchor="start" x="299.5" y="-235.8" font-family="Times New Roman,serif" font-size="14.00">Columna</text>
<polygon fill="none" stroke="black" points="8.5,-204 8.5,-229 70.5,-229 70.5,-204 8.5,-204"/>
<text text-anchor="start" x="16.5" y="-212.8" font-family="Times New Roman,serif" font-size="14.00">Persona</text>
<polygon fill="none" stroke="black" points="70.5,-204 70.5,-229 154.5,-229 154.5,-204 70.5,-204"/>
<text text-anchor="start" x="77.5" y="-212.8" font-family="Times New Roman,serif" font-size="14.00">VARIABLE</text>
<polygon fill="none" stroke="black" points="154.5,-204 154.5,-229 220.5,-229 220.5,-204 154.5,-204"/>
<text text-anchor="start" x="159.5" y="-212.8" font-family="Times New Roman,serif" font-size="14.00">STRUCT</text>
<polygon fill="none" stroke="black" points="220.5,-204 220.5,-229 269.5,-229 269.5,-204 220.5,-204"/>
<text text-anchor="start" x="226" y="-212.8" font-family="Times New Roman,serif" font-size="14.00">Global</text>
<polygon fill="none" stroke="black" points="269.5,-204 269.5,-229 296.5,-229 296.5,-204 269.5,-204"/>
<text text-anchor="start" x="279.5" y="-212.8" font-family="Times New Roman,serif" font-size="14.00">1</text>
<polygon fill="none" stroke="black" points="296.5,-204 296.5,-229 353.5,-229 353.5,-204 296.5,-204"/>
<text text-anchor="start" x="321.5" y="-212.8" font-family="Times New Roman,serif" font-size="14.00">7</text>
<polygon fill="none" stroke="black" points="8.5,-179 8.5,-204 70.5,-204 70.5,-179 8.5,-179"/>
<text text-anchor="start" x="16" y="-187.8" font-family="Times New Roman,serif" font-size="14.00">imprimir</text>
<polygon fill="none" stroke="black" points="70.5,-179 70.5,-204 154.5,-204 154.5,-179 70.5,-179"/>
<text text-anchor="start" x="81" y="-187.8" font-family="Times New Roman,serif" font-size="14.00">FUNCION</text>
<polygon fill="none" stroke="black" points="154.5,-179 154.5,-204 220.5,-204 220.5,-179 154.5,-179"/>
<text text-anchor="start" x="170" y="-187.8" font-family="Times New Roman,serif" font-size="14.00">VOID</text>
<polygon fill="none" stroke="black" points="220.5,-179 220.5,-204 269.5,-204 269.5,-179 220.5,-179"/>
<text text-anchor="start" x="226" y="-187.8" font-family="Times New Roman,serif" font-size="14.00">Global</text>
<polygon fill="none" stroke="black" points="269.5,-179 269.5,-204 296.5,-204 296.5,-179 269.5,-179"/>
<text text-anchor="start" x="279.5" y="-187.8" font-family="Times New Roman,serif" font-size="14.00">7</text>
<polygon fill="none" stroke="black" points="296.5,-179 296.5,-204 353.5,-204 353.5,-179 296.5,-179"/>
<text text-anchor="start" x="321.5" y="-187.8" font-family="Times New Roman,serif" font-size="14.00">0</text>
<polygon fill="none" stroke="black" points="8.5,-154 8.5,-179 70.5,-179 70.5,-154 8.5,-154"/>
<text text-anchor="start" x="18.5" y="-162.8" font-family="Times New Roman,serif" font-size="14.00">escribir</text>
<polygon fill="none" stroke="black" points="70.5,-154 70.5,-179 154.5,-179 154.5,-154 70.5,-154"/>
<text text-anchor="start" x="81" y="-162.8" font-family="Times New Roman,serif" font-size="14.00">FUNCION</text>
<polygon fill="none" stroke="black" points="154.5,-154 154.5,-179 220.5,-179 220.5,-154 154.5,-154"/>
<text text-anchor="start" x="170" y="-162.8" font-family="Times New Roman,serif" font-size="14.00">VOID</text>
<polygon fill="none" stroke="black" points="220.5,-154 220.5,-179 269.5,-179 269.5,-154 220.5,-154"/>
<text text-anchor="start" x="226" y="-162.8" font-family="Times New Roman,serif" font-size="14.00">Global</text>
<polygon fill="none" stroke="black" points="269.5,-154 269.5,-179 296.5,-179 296.5,-154 269.5,-154"/>
<text text-anchor="start" x="276" y="-162.8" font-family="Times New Roman,serif" font-size="14.00">13</text>
<polygon fill="none" stroke="black" points="296.5,-154 296.5,-179 353.5,-179 353.5,-154 296.5,-154"/>
<text text-anchor="start" x="321.5" y="-162.8" font-family="Times New Roman,serif" font-size="14.00">0</text>
<polygon fill="none" stroke="black" points="8.5,-129 8.5,-154 70.5,-154 70.5,-129 8.5,-129"/>
<text text-anchor="start" x="18" y="-137.8" font-family="Times New Roman,serif" font-size="14.00">nombre</text>
<polygon fill="none" stroke="black" points="70.5,-129 70.5,-154 154.5,-154 154.5,-129 70.5,-129"/>
<text text-anchor="start" x="77.5" y="-137.8" font-family="Times New Roman,serif" font-size="14.00">VARIABLE</text>
<polygon fill="none" stroke="black" points="154.5,-129 154.5,-154 220.5,-154 220.5,-129 154.5,-129"/>
<text text-anchor="start" x="173.5" y="-137.8" font-family="Times New Roman,serif" font-size="14.00">STR</text>
<polygon fill="none" stroke="black" points="220.5,-129 220.5,-154 269.5,-154 269.5,-129 220.5,-129"/>
<text text-anchor="start" x="229" y="-137.8" font-family="Times New Roman,serif" font-size="14.00">Local</text>
<polygon fill="none" stroke="black" points="269.5,-129 269.5,-154 296.5,-154 296.5,-129 269.5,-129"/>
<text text-anchor="start" x="276" y="-137.8" font-family="Times New Roman,serif" font-size="14.00">20</text>
<polygon fill="none" stroke="black" points="296.5,-129 296.5,-154 353.5,-154 353.5,-129 296.5,-129"/>
<text text-anchor="start" x="321.5" y="-137.8" font-family="Times New Roman,serif" font-size="14.00">8</text>
<polygon fill="none" stroke="black" points="8.5,-104 8.5,-129 70.5,-129 70.5,-104 8.5,-104"/>
<text text-anchor="start" x="25.5" y="-112.8" font-family="Times New Roman,serif" font-size="14.00">edad</text>
<polygon fill="none" stroke="black" points="70.5,-104 70.5,-129 154.5,-129 154.5,-104 70.5,-104"/>
<text text-anchor="start" x="77.5" y="-112.8" font-family="Times New Roman,serif" font-size="14.00">VARIABLE</text>
<polygon fill="none" stroke="black" points="154.5,-104 154.5,-129 220.5,-129 220.5,-104 154.5,-104"/>
<text text-anchor="start" x="178" y="-112.8" font-family="Times New Roman,serif" font-size="14.00">I64</text>
<polygon fill="none" stroke="black" points="220.5,-104 220.5,-129 269.5,-129 269.5,-104 220.5,-104"/>
<text text-anchor="start" x="229" y="-112.8" font-family="Times New Roman,serif" font-size="14.00">Local</text>
<polygon fill="none" stroke="black" points="269.5,-104 269.5,-129 296.5,-129 296.5,-104 269.5,-104"/>
<text text-anchor="start" x="276" y="-112.8" font-family="Times New Roman,serif" font-size="14.00">21</text>
<polygon fill="none" stroke="black" points="296.5,-104 296.5,-129 353.5,-129 353.5,-104 296.5,-104"/>
<text text-anchor="start" x="321.5" y="-112.8" font-family="Times New Roman,serif" font-size="14.00">8</text>
<polygon fill="none" stroke="black" points="8.5,-79 8.5,-104 70.5,-104 70.5,-79 8.5,-79"/>
<text text-anchor="start" x="13.5" y="-87.8" font-family="Times New Roman,serif" font-size="14.00">nPersona</text>
<polygon fill="none" stroke="black" points="70.5,-79 70.5,-104 154.5,-104 154.5,-79 70.5,-79"/>
<text text-anchor="start" x="77.5" y="-87.8" font-family="Times New Roman,serif" font-size="14.00">VARIABLE</text>
<polygon fill="none" stroke="black" points="154.5,-79 154.5,-104 220.5,-104 220.5,-79 154.5,-79"/>
<text text-anchor="start" x="159.5" y="-87.8" font-family="Times New Roman,serif" font-size="14.00">STRUCT</text>
<polygon fill="none" stroke="black" points="220.5,-79 220.5,-104 269.5,-104 269.5,-79 220.5,-79"/>
<text text-anchor="start" x="229" y="-87.8" font-family="Times New Roman,serif" font-size="14.00">Local</text>
<polygon fill="none" stroke="black" points="269.5,-79 269.5,-104 296.5,-104 296.5,-79 269.5,-79"/>
<text text-anchor="start" x="276" y="-87.8" font-family="Times New Roman,serif" font-size="14.00">19</text>
<polygon fill="none" stroke="black" points="296.5,-79 296.5,-104 353.5,-104 353.5,-79 296.5,-79"/>
<text text-anchor="start" x="321.5" y="-87.8" font-family="Times New Roman,serif" font-size="14.00">4</text>
<polygon fill="none" stroke="black" points="8.5,-54 8.5,-79 70.5,-79 70.5,-54 8.5,-54"/>
<text text-anchor="start" x="28.5" y="-62.8" font-family="Times New Roman,serif" font-size="14.00">arr1</text>
<polygon fill="none" stroke="black" points="70.5,-54 70.5,-79 154.5,-79 154.5,-54 70.5,-54"/>
<text text-anchor="start" x="77.5" y="-62.8" font-family="Times New Roman,serif" font-size="14.00">VARIABLE</text>
<polygon fill="none" stroke="black" points="154.5,-54 154.5,-79 220.5,-79 220.5,-54 154.5,-54"/>
<text text-anchor="start" x="163" y="-62.8" font-family="Times New Roman,serif" font-size="14.00">ARRAY</text>
<polygon fill="none" stroke="black" points="220.5,-54 220.5,-79 269.5,-79 269.5,-54 220.5,-54"/>
<text text-anchor="start" x="229" y="-62.8" font-family="Times New Roman,serif" font-size="14.00">Local</text>
<polygon fill="none" stroke="black" points="269.5,-54 269.5,-79 296.5,-79 296.5,-54 269.5,-54"/>
<text text-anchor="start" x="276" y="-62.8" font-family="Times New Roman,serif" font-size="14.00">23</text>
<polygon fill="none" stroke="black" points="296.5,-54 296.5,-79 353.5,-79 353.5,-54 296.5,-54"/>
<text text-anchor="start" x="321.5" y="-62.8" font-family="Times New Roman,serif" font-size="14.00">4</text>
<polygon fill="none" stroke="black" points="8.5,-29 8.5,-54 70.5,-54 70.5,-29 8.5,-29"/>
<text text-anchor="start" x="13.5" y="-37.8" font-family="Times New Roman,serif" font-size="14.00">nPersona</text>
<polygon fill="none" stroke="black" points="70.5,-29 70.5,-54 154.5,-54 154.5,-29 70.5,-29"/>
<text text-anchor="start" x="77.5" y="-37.8" font-family="Times New Roman,serif" font-size="14.00">VARIABLE</text>
<polygon fill="none" stroke="black" points="154.5,-29 154.5,-54 220.5,-54 220.5,-29 154.5,-29"/>
<text text-anchor="start" x="159.5" y="-37.8" font-family="Times New Roman,serif" font-size="14.00">STRUCT</text>
<polygon fill="none" stroke="black" points="220.5,-29 220.5,-54 269.5,-54 269.5,-29 220.5,-29"/>
<text text-anchor="start" x="229" y="-37.8" font-family="Times New Roman,serif" font-size="14.00">Local</text>
<polygon fill="none" stroke="black" points="269.5,-29 269.5,-54 296.5,-54 296.5,-29 269.5,-29"/>
<text text-anchor="start" x="279.5" y="-37.8" font-family="Times New Roman,serif" font-size="14.00">7</text>
<polygon fill="none" stroke="black" points="296.5,-29 296.5,-54 353.5,-54 353.5,-29 296.5,-29"/>
<text text-anchor="start" x="318" y="-37.8" font-family="Times New Roman,serif" font-size="14.00">12</text>
<polygon fill="none" stroke="black" points="8.5,-4 8.5,-29 70.5,-29 70.5,-4 8.5,-4"/>
<text text-anchor="start" x="18" y="-12.8" font-family="Times New Roman,serif" font-size="14.00">numero</text>
<polygon fill="none" stroke="black" points="70.5,-4 70.5,-29 154.5,-29 154.5,-4 70.5,-4"/>
<text text-anchor="start" x="77.5" y="-12.8" font-family="Times New Roman,serif" font-size="14.00">VARIABLE</text>
<polygon fill="none" stroke="black" points="154.5,-4 154.5,-29 220.5,-29 220.5,-4 154.5,-4"/>
<text text-anchor="start" x="178" y="-12.8" font-family="Times New Roman,serif" font-size="14.00">I64</text>
<polygon fill="none" stroke="black" points="220.5,-4 220.5,-29 269.5,-29 269.5,-4 220.5,-4"/>
<text text-anchor="start" x="229" y="-12.8" font-family="Times New Roman,serif" font-size="14.00">Local</text>
<polygon fill="none" stroke="black" points="269.5,-4 269.5,-29 296.5,-29 296.5,-4 269.5,-4"/>
<text text-anchor="start" x="279.5" y="-12.8" font-family="Times New Roman,serif" font-size="14.00">7</text>
<polygon fill="none" stroke="black" points="296.5,-4 296.5,-29 353.5,-29 353.5,-4 296.5,-4"/>
<text text-anchor="start" x="318" y="-12.8" font-family="Times New Roman,serif" font-size="14.00">30</text>
</g>
</g>
</svg>
