<?xml version="1.0" encoding="UTF-8" standalone="no"?>
<!DOCTYPE svg PUBLIC "-//W3C//DTD SVG 1.1//EN"
 "http://www.w3.org/Graphics/SVG/1.1/DTD/svg11.dtd">
<!-- Generated by graphviz version 3.0.0 (20220226.1711)
 -->
<!-- Pages: 1 -->
<svg width="335pt" height="87pt"
 viewBox="0.00 0.00 335.00 87.00" xmlns="http://www.w3.org/2000/svg" xmlns:xlink="http://www.w3.org/1999/xlink">
<g id="graph0" class="graph" transform="scale(1 1) rotate(0) translate(4 83)">
<polygon fill="white" stroke="transparent" points="-4,4 -4,-83 331,-83 331,4 -4,4"/>
<!-- tablaSimbolos -->
<g id="node1" class="node">
<title>tablaSimbolos</title>
<polygon fill="none" stroke="black" points="8.5,-53.5 8.5,-74.5 36.5,-74.5 36.5,-53.5 8.5,-53.5"/>
<text text-anchor="start" x="11.5" y="-60.3" font-family="Times New Roman,serif" font-size="14.00">No.</text>
<polygon fill="none" stroke="black" points="36.5,-53.5 36.5,-74.5 118.5,-74.5 118.5,-53.5 36.5,-53.5"/>
<text text-anchor="start" x="39.5" y="-60.3" font-family="Times New Roman,serif" font-size="14.00">Nombre tabla</text>
<polygon fill="none" stroke="black" points="118.5,-53.5 118.5,-74.5 281.5,-74.5 281.5,-53.5 118.5,-53.5"/>
<text text-anchor="start" x="121.5" y="-60.3" font-family="Times New Roman,serif" font-size="14.00">Nombre de la base de datos</text>
<polygon fill="none" stroke="black" points="281.5,-53.5 281.5,-74.5 319.5,-74.5 319.5,-53.5 281.5,-53.5"/>
<text text-anchor="start" x="284.5" y="-60.3" font-family="Times New Roman,serif" font-size="14.00">Línea</text>
<polygon fill="none" stroke="black" points="8.5,-28.5 8.5,-53.5 36.5,-53.5 36.5,-28.5 8.5,-28.5"/>
<text text-anchor="start" x="19" y="-37.3" font-family="Times New Roman,serif" font-size="14.00">1</text>
<polygon fill="none" stroke="black" points="36.5,-28.5 36.5,-53.5 118.5,-53.5 118.5,-28.5 36.5,-28.5"/>
<text text-anchor="start" x="52.5" y="-37.3" font-family="Times New Roman,serif" font-size="14.00">unidades</text>
<polygon fill="none" stroke="black" points="118.5,-28.5 118.5,-53.5 281.5,-53.5 281.5,-28.5 118.5,-28.5"/>
<text text-anchor="start" x="143" y="-37.3" font-family="Times New Roman,serif" font-size="14.00">continental_motores</text>
<polygon fill="none" stroke="black" points="281.5,-28.5 281.5,-53.5 319.5,-53.5 319.5,-28.5 281.5,-28.5"/>
<text text-anchor="start" x="297" y="-37.3" font-family="Times New Roman,serif" font-size="14.00">3</text>
<polygon fill="none" stroke="black" points="8.5,-3.5 8.5,-28.5 36.5,-28.5 36.5,-3.5 8.5,-3.5"/>
<text text-anchor="start" x="19" y="-12.3" font-family="Times New Roman,serif" font-size="14.00">2</text>
<polygon fill="none" stroke="black" points="36.5,-3.5 36.5,-28.5 118.5,-28.5 118.5,-3.5 36.5,-3.5"/>
<text text-anchor="start" x="56.5" y="-12.3" font-family="Times New Roman,serif" font-size="14.00">clientes</text>
<polygon fill="none" stroke="black" points="118.5,-3.5 118.5,-28.5 281.5,-28.5 281.5,-3.5 118.5,-3.5"/>
<text text-anchor="start" x="143" y="-12.3" font-family="Times New Roman,serif" font-size="14.00">continental_motores</text>
<polygon fill="none" stroke="black" points="281.5,-3.5 281.5,-28.5 319.5,-28.5 319.5,-3.5 281.5,-3.5"/>
<text text-anchor="start" x="293.5" y="-12.3" font-family="Times New Roman,serif" font-size="14.00">84</text>
</g>
</g>
</svg>
