<?xml version="1.0" encoding="UTF-8" standalone="no"?>
<!DOCTYPE svg PUBLIC "-//W3C//DTD SVG 1.1//EN"
 "http://www.w3.org/Graphics/SVG/1.1/DTD/svg11.dtd">
<!-- Generated by graphviz version 3.0.0 (20220226.1711)
 -->
<!-- Pages: 1 -->
<svg width="335pt" height="62pt"
 viewBox="0.00 0.00 335.00 62.00" xmlns="http://www.w3.org/2000/svg" xmlns:xlink="http://www.w3.org/1999/xlink">
<g id="graph0" class="graph" transform="scale(1 1) rotate(0) translate(4 58)">
<polygon fill="white" stroke="transparent" points="-4,4 -4,-58 331,-58 331,4 -4,4"/>
<!-- tablaSimbolos -->
<g id="node1" class="node">
<title>tablaSimbolos</title>
<polygon fill="none" stroke="black" points="8.5,-29 8.5,-50 36.5,-50 36.5,-29 8.5,-29"/>
<text text-anchor="start" x="11.5" y="-35.8" font-family="Times New Roman,serif" font-size="14.00">No.</text>
<polygon fill="none" stroke="black" points="36.5,-29 36.5,-50 118.5,-50 118.5,-29 36.5,-29"/>
<text text-anchor="start" x="39.5" y="-35.8" font-family="Times New Roman,serif" font-size="14.00">Nombre tabla</text>
<polygon fill="none" stroke="black" points="118.5,-29 118.5,-50 281.5,-50 281.5,-29 118.5,-29"/>
<text text-anchor="start" x="121.5" y="-35.8" font-family="Times New Roman,serif" font-size="14.00">Nombre de la base de datos</text>
<polygon fill="none" stroke="black" points="281.5,-29 281.5,-50 319.5,-50 319.5,-29 281.5,-29"/>
<text text-anchor="start" x="284.5" y="-35.8" font-family="Times New Roman,serif" font-size="14.00">Línea</text>
<polygon fill="none" stroke="black" points="8.5,-4 8.5,-29 36.5,-29 36.5,-4 8.5,-4"/>
<text text-anchor="start" x="19" y="-12.8" font-family="Times New Roman,serif" font-size="14.00">1</text>
<polygon fill="none" stroke="black" points="36.5,-4 36.5,-29 118.5,-29 118.5,-4 36.5,-4"/>
<text text-anchor="start" x="59.5" y="-12.8" font-family="Times New Roman,serif" font-size="14.00">ventas</text>
<polygon fill="none" stroke="black" points="118.5,-4 118.5,-29 281.5,-29 281.5,-4 118.5,-4"/>
<text text-anchor="start" x="183" y="-12.8" font-family="Times New Roman,serif" font-size="14.00">tienda</text>
<polygon fill="none" stroke="black" points="281.5,-4 281.5,-29 319.5,-29 319.5,-4 281.5,-4"/>
<text text-anchor="start" x="297" y="-12.8" font-family="Times New Roman,serif" font-size="14.00">3</text>
</g>
</g>
</svg>
