<?xml version="1.0" encoding="UTF-8" standalone="no"?>
<!DOCTYPE svg PUBLIC "-//W3C//DTD SVG 1.1//EN"
 "http://www.w3.org/Graphics/SVG/1.1/DTD/svg11.dtd">
<!-- Generated by graphviz version 3.0.0 (20220226.1711)
 -->
<!-- Pages: 1 -->
<svg width="663pt" height="62pt"
 viewBox="0.00 0.00 663.00 62.00" xmlns="http://www.w3.org/2000/svg" xmlns:xlink="http://www.w3.org/1999/xlink">
<g id="graph0" class="graph" transform="scale(1 1) rotate(0) translate(4 58)">
<polygon fill="white" stroke="transparent" points="-4,4 -4,-58 659,-58 659,4 -4,4"/>
<!-- tablaSimbolos -->
<g id="node1" class="node">
<title>tablaSimbolos</title>
<polygon fill="none" stroke="black" points="8.5,-29 8.5,-50 36.5,-50 36.5,-29 8.5,-29"/>
<text text-anchor="start" x="11.5" y="-35.8" font-family="Times New Roman,serif" font-size="14.00">No.</text>
<polygon fill="none" stroke="black" points="36.5,-29 36.5,-50 379.5,-50 379.5,-29 36.5,-29"/>
<text text-anchor="start" x="174" y="-35.8" font-family="Times New Roman,serif" font-size="14.00">Descripción</text>
<polygon fill="none" stroke="black" points="379.5,-29 379.5,-50 428.5,-50 428.5,-29 379.5,-29"/>
<text text-anchor="start" x="382.5" y="-35.8" font-family="Times New Roman,serif" font-size="14.00">Ámbito</text>
<polygon fill="none" stroke="black" points="428.5,-29 428.5,-50 466.5,-50 466.5,-29 428.5,-29"/>
<text text-anchor="start" x="431.5" y="-35.8" font-family="Times New Roman,serif" font-size="14.00">Línea</text>
<polygon fill="none" stroke="black" points="466.5,-29 466.5,-50 523.5,-50 523.5,-29 466.5,-29"/>
<text text-anchor="start" x="469.5" y="-35.8" font-family="Times New Roman,serif" font-size="14.00">Columna</text>
<polygon fill="none" stroke="black" points="523.5,-29 523.5,-50 647.5,-50 647.5,-29 523.5,-29"/>
<text text-anchor="start" x="549" y="-35.8" font-family="Times New Roman,serif" font-size="14.00">Fecha y hora</text>
<polygon fill="none" stroke="black" points="8.5,-4 8.5,-29 36.5,-29 36.5,-4 8.5,-4"/>
<text text-anchor="start" x="19" y="-12.8" font-family="Times New Roman,serif" font-size="14.00">1</text>
<polygon fill="none" stroke="black" points="36.5,-4 36.5,-29 379.5,-29 379.5,-4 36.5,-4"/>
<text text-anchor="start" x="41.5" y="-12.8" font-family="Times New Roman,serif" font-size="14.00">no viable alternative at input &#39;fnimprimir(num1:i64,num2i64)&#39;</text>
<polygon fill="none" stroke="black" points="379.5,-4 379.5,-29 428.5,-29 428.5,-4 379.5,-4"/>
<text text-anchor="start" x="385" y="-12.8" font-family="Times New Roman,serif" font-size="14.00">Global</text>
<polygon fill="none" stroke="black" points="428.5,-4 428.5,-29 466.5,-29 466.5,-4 428.5,-4"/>
<text text-anchor="start" x="444" y="-12.8" font-family="Times New Roman,serif" font-size="14.00">1</text>
<polygon fill="none" stroke="black" points="466.5,-4 466.5,-29 523.5,-29 523.5,-4 466.5,-4"/>
<text text-anchor="start" x="488" y="-12.8" font-family="Times New Roman,serif" font-size="14.00">28</text>
<polygon fill="none" stroke="black" points="523.5,-4 523.5,-29 647.5,-29 647.5,-4 523.5,-4"/>
<text text-anchor="start" x="528.5" y="-12.8" font-family="Times New Roman,serif" font-size="14.00">04&#45;08&#45;2022 17:31:51</text>
</g>
</g>
</svg>
