<?xml version="1.0" encoding="UTF-8" standalone="no"?>
<!DOCTYPE svg PUBLIC "-//W3C//DTD SVG 1.1//EN"
 "http://www.w3.org/Graphics/SVG/1.1/DTD/svg11.dtd">
<!-- Generated by graphviz version 3.0.0 (20220226.1711)
 -->
<!-- Pages: 1 -->
<svg width="411pt" height="287pt"
 viewBox="0.00 0.00 411.00 287.00" xmlns="http://www.w3.org/2000/svg" xmlns:xlink="http://www.w3.org/1999/xlink">
<g id="graph0" class="graph" transform="scale(1 1) rotate(0) translate(4 283)">
<polygon fill="white" stroke="transparent" points="-4,4 -4,-283 407,-283 407,4 -4,4"/>
<!-- tablaSimbolos -->
<g id="node1" class="node">
<title>tablaSimbolos</title>
<polygon fill="none" stroke="black" points="8.5,-253.5 8.5,-274.5 110.5,-274.5 110.5,-253.5 8.5,-253.5"/>
<text text-anchor="start" x="53" y="-260.3" font-family="Times New Roman,serif" font-size="14.00">Id</text>
<polygon fill="none" stroke="black" points="110.5,-253.5 110.5,-274.5 194.5,-274.5 194.5,-253.5 110.5,-253.5"/>
<text text-anchor="start" x="113.5" y="-260.3" font-family="Times New Roman,serif" font-size="14.00">Tipo símbolo</text>
<polygon fill="none" stroke="black" points="194.5,-253.5 194.5,-274.5 262.5,-274.5 262.5,-253.5 194.5,-253.5"/>
<text text-anchor="start" x="200.5" y="-260.3" font-family="Times New Roman,serif" font-size="14.00">Tipo dato</text>
<polygon fill="none" stroke="black" points="262.5,-253.5 262.5,-274.5 311.5,-274.5 311.5,-253.5 262.5,-253.5"/>
<text text-anchor="start" x="265.5" y="-260.3" font-family="Times New Roman,serif" font-size="14.00">Ámbito</text>
<polygon fill="none" stroke="black" points="311.5,-253.5 311.5,-274.5 338.5,-274.5 338.5,-253.5 311.5,-253.5"/>
<text text-anchor="start" x="314.5" y="-260.3" font-family="Times New Roman,serif" font-size="14.00">Fila</text>
<polygon fill="none" stroke="black" points="338.5,-253.5 338.5,-274.5 395.5,-274.5 395.5,-253.5 338.5,-253.5"/>
<text text-anchor="start" x="341.5" y="-260.3" font-family="Times New Roman,serif" font-size="14.00">Columna</text>
<polygon fill="none" stroke="black" points="8.5,-228.5 8.5,-253.5 110.5,-253.5 110.5,-228.5 8.5,-228.5"/>
<text text-anchor="start" x="33.5" y="-237.3" font-family="Times New Roman,serif" font-size="14.00">llenarMat</text>
<polygon fill="none" stroke="black" points="110.5,-228.5 110.5,-253.5 194.5,-253.5 194.5,-228.5 110.5,-228.5"/>
<text text-anchor="start" x="121" y="-237.3" font-family="Times New Roman,serif" font-size="14.00">FUNCION</text>
<polygon fill="none" stroke="black" points="194.5,-228.5 194.5,-253.5 262.5,-253.5 262.5,-228.5 194.5,-228.5"/>
<text text-anchor="start" x="211" y="-237.3" font-family="Times New Roman,serif" font-size="14.00">VOID</text>
<polygon fill="none" stroke="black" points="262.5,-228.5 262.5,-253.5 311.5,-253.5 311.5,-228.5 262.5,-228.5"/>
<text text-anchor="start" x="268" y="-237.3" font-family="Times New Roman,serif" font-size="14.00">Global</text>
<polygon fill="none" stroke="black" points="311.5,-228.5 311.5,-253.5 338.5,-253.5 338.5,-228.5 311.5,-228.5"/>
<text text-anchor="start" x="321.5" y="-237.3" font-family="Times New Roman,serif" font-size="14.00">1</text>
<polygon fill="none" stroke="black" points="338.5,-228.5 338.5,-253.5 395.5,-253.5 395.5,-228.5 338.5,-228.5"/>
<text text-anchor="start" x="363.5" y="-237.3" font-family="Times New Roman,serif" font-size="14.00">0</text>
<polygon fill="none" stroke="black" points="8.5,-203.5 8.5,-228.5 110.5,-228.5 110.5,-203.5 8.5,-203.5"/>
<text text-anchor="start" x="17" y="-212.3" font-family="Times New Roman,serif" font-size="14.00">imprimirVector</text>
<polygon fill="none" stroke="black" points="110.5,-203.5 110.5,-228.5 194.5,-228.5 194.5,-203.5 110.5,-203.5"/>
<text text-anchor="start" x="121" y="-212.3" font-family="Times New Roman,serif" font-size="14.00">FUNCION</text>
<polygon fill="none" stroke="black" points="194.5,-203.5 194.5,-228.5 262.5,-228.5 262.5,-203.5 194.5,-203.5"/>
<text text-anchor="start" x="211" y="-212.3" font-family="Times New Roman,serif" font-size="14.00">VOID</text>
<polygon fill="none" stroke="black" points="262.5,-203.5 262.5,-228.5 311.5,-228.5 311.5,-203.5 262.5,-203.5"/>
<text text-anchor="start" x="268" y="-212.3" font-family="Times New Roman,serif" font-size="14.00">Global</text>
<polygon fill="none" stroke="black" points="311.5,-203.5 311.5,-228.5 338.5,-228.5 338.5,-203.5 311.5,-203.5"/>
<text text-anchor="start" x="318" y="-212.3" font-family="Times New Roman,serif" font-size="14.00">25</text>
<polygon fill="none" stroke="black" points="338.5,-203.5 338.5,-228.5 395.5,-228.5 395.5,-203.5 338.5,-203.5"/>
<text text-anchor="start" x="363.5" y="-212.3" font-family="Times New Roman,serif" font-size="14.00">0</text>
<polygon fill="none" stroke="black" points="8.5,-178.5 8.5,-203.5 110.5,-203.5 110.5,-178.5 8.5,-178.5"/>
<text text-anchor="start" x="13.5" y="-187.3" font-family="Times New Roman,serif" font-size="14.00">imprimirVector2</text>
<polygon fill="none" stroke="black" points="110.5,-178.5 110.5,-203.5 194.5,-203.5 194.5,-178.5 110.5,-178.5"/>
<text text-anchor="start" x="121" y="-187.3" font-family="Times New Roman,serif" font-size="14.00">FUNCION</text>
<polygon fill="none" stroke="black" points="194.5,-178.5 194.5,-203.5 262.5,-203.5 262.5,-178.5 194.5,-178.5"/>
<text text-anchor="start" x="211" y="-187.3" font-family="Times New Roman,serif" font-size="14.00">VOID</text>
<polygon fill="none" stroke="black" points="262.5,-178.5 262.5,-203.5 311.5,-203.5 311.5,-178.5 262.5,-178.5"/>
<text text-anchor="start" x="268" y="-187.3" font-family="Times New Roman,serif" font-size="14.00">Global</text>
<polygon fill="none" stroke="black" points="311.5,-178.5 311.5,-203.5 338.5,-203.5 338.5,-178.5 311.5,-178.5"/>
<text text-anchor="start" x="318" y="-187.3" font-family="Times New Roman,serif" font-size="14.00">30</text>
<polygon fill="none" stroke="black" points="338.5,-178.5 338.5,-203.5 395.5,-203.5 395.5,-178.5 338.5,-178.5"/>
<text text-anchor="start" x="363.5" y="-187.3" font-family="Times New Roman,serif" font-size="14.00">0</text>
<polygon fill="none" stroke="black" points="8.5,-153.5 8.5,-178.5 110.5,-178.5 110.5,-153.5 8.5,-153.5"/>
<text text-anchor="start" x="44" y="-162.3" font-family="Times New Roman,serif" font-size="14.00">matA</text>
<polygon fill="none" stroke="black" points="110.5,-153.5 110.5,-178.5 194.5,-178.5 194.5,-153.5 110.5,-153.5"/>
<text text-anchor="start" x="117.5" y="-162.3" font-family="Times New Roman,serif" font-size="14.00">VARIABLE</text>
<polygon fill="none" stroke="black" points="194.5,-153.5 194.5,-178.5 262.5,-178.5 262.5,-153.5 194.5,-153.5"/>
<text text-anchor="start" x="204" y="-162.3" font-family="Times New Roman,serif" font-size="14.00">ARRAY</text>
<polygon fill="none" stroke="black" points="262.5,-153.5 262.5,-178.5 311.5,-178.5 311.5,-153.5 262.5,-153.5"/>
<text text-anchor="start" x="271" y="-162.3" font-family="Times New Roman,serif" font-size="14.00">Local</text>
<polygon fill="none" stroke="black" points="311.5,-153.5 311.5,-178.5 338.5,-178.5 338.5,-153.5 311.5,-153.5"/>
<text text-anchor="start" x="318" y="-162.3" font-family="Times New Roman,serif" font-size="14.00">12</text>
<polygon fill="none" stroke="black" points="338.5,-153.5 338.5,-178.5 395.5,-178.5 395.5,-153.5 338.5,-153.5"/>
<text text-anchor="start" x="363.5" y="-162.3" font-family="Times New Roman,serif" font-size="14.00">4</text>
<polygon fill="none" stroke="black" points="8.5,-128.5 8.5,-153.5 110.5,-153.5 110.5,-128.5 8.5,-128.5"/>
<text text-anchor="start" x="44.5" y="-137.3" font-family="Times New Roman,serif" font-size="14.00">matB</text>
<polygon fill="none" stroke="black" points="110.5,-128.5 110.5,-153.5 194.5,-153.5 194.5,-128.5 110.5,-128.5"/>
<text text-anchor="start" x="117.5" y="-137.3" font-family="Times New Roman,serif" font-size="14.00">VARIABLE</text>
<polygon fill="none" stroke="black" points="194.5,-128.5 194.5,-153.5 262.5,-153.5 262.5,-128.5 194.5,-128.5"/>
<text text-anchor="start" x="204" y="-137.3" font-family="Times New Roman,serif" font-size="14.00">ARRAY</text>
<polygon fill="none" stroke="black" points="262.5,-128.5 262.5,-153.5 311.5,-153.5 311.5,-128.5 262.5,-128.5"/>
<text text-anchor="start" x="271" y="-137.3" font-family="Times New Roman,serif" font-size="14.00">Local</text>
<polygon fill="none" stroke="black" points="311.5,-128.5 311.5,-153.5 338.5,-153.5 338.5,-128.5 311.5,-128.5"/>
<text text-anchor="start" x="318" y="-137.3" font-family="Times New Roman,serif" font-size="14.00">13</text>
<polygon fill="none" stroke="black" points="338.5,-128.5 338.5,-153.5 395.5,-153.5 395.5,-128.5 338.5,-128.5"/>
<text text-anchor="start" x="363.5" y="-137.3" font-family="Times New Roman,serif" font-size="14.00">4</text>
<polygon fill="none" stroke="black" points="8.5,-103.5 8.5,-128.5 110.5,-128.5 110.5,-103.5 8.5,-103.5"/>
<text text-anchor="start" x="44" y="-112.3" font-family="Times New Roman,serif" font-size="14.00">matR</text>
<polygon fill="none" stroke="black" points="110.5,-103.5 110.5,-128.5 194.5,-128.5 194.5,-103.5 110.5,-103.5"/>
<text text-anchor="start" x="117.5" y="-112.3" font-family="Times New Roman,serif" font-size="14.00">VARIABLE</text>
<polygon fill="none" stroke="black" points="194.5,-103.5 194.5,-128.5 262.5,-128.5 262.5,-103.5 194.5,-103.5"/>
<text text-anchor="start" x="204" y="-112.3" font-family="Times New Roman,serif" font-size="14.00">ARRAY</text>
<polygon fill="none" stroke="black" points="262.5,-103.5 262.5,-128.5 311.5,-128.5 311.5,-103.5 262.5,-103.5"/>
<text text-anchor="start" x="271" y="-112.3" font-family="Times New Roman,serif" font-size="14.00">Local</text>
<polygon fill="none" stroke="black" points="311.5,-103.5 311.5,-128.5 338.5,-128.5 338.5,-103.5 311.5,-103.5"/>
<text text-anchor="start" x="318" y="-112.3" font-family="Times New Roman,serif" font-size="14.00">14</text>
<polygon fill="none" stroke="black" points="338.5,-103.5 338.5,-128.5 395.5,-128.5 395.5,-103.5 338.5,-103.5"/>
<text text-anchor="start" x="363.5" y="-112.3" font-family="Times New Roman,serif" font-size="14.00">4</text>
<polygon fill="none" stroke="black" points="8.5,-78.5 8.5,-103.5 110.5,-103.5 110.5,-78.5 8.5,-78.5"/>
<text text-anchor="start" x="52.5" y="-87.3" font-family="Times New Roman,serif" font-size="14.00">v1</text>
<polygon fill="none" stroke="black" points="110.5,-78.5 110.5,-103.5 194.5,-103.5 194.5,-78.5 110.5,-78.5"/>
<text text-anchor="start" x="117.5" y="-87.3" font-family="Times New Roman,serif" font-size="14.00">VARIABLE</text>
<polygon fill="none" stroke="black" points="194.5,-78.5 194.5,-103.5 262.5,-103.5 262.5,-78.5 194.5,-78.5"/>
<text text-anchor="start" x="199.5" y="-87.3" font-family="Times New Roman,serif" font-size="14.00">VECTOR</text>
<polygon fill="none" stroke="black" points="262.5,-78.5 262.5,-103.5 311.5,-103.5 311.5,-78.5 262.5,-78.5"/>
<text text-anchor="start" x="271" y="-87.3" font-family="Times New Roman,serif" font-size="14.00">Local</text>
<polygon fill="none" stroke="black" points="311.5,-78.5 311.5,-103.5 338.5,-103.5 338.5,-78.5 311.5,-78.5"/>
<text text-anchor="start" x="318" y="-87.3" font-family="Times New Roman,serif" font-size="14.00">15</text>
<polygon fill="none" stroke="black" points="338.5,-78.5 338.5,-103.5 395.5,-103.5 395.5,-78.5 338.5,-78.5"/>
<text text-anchor="start" x="363.5" y="-87.3" font-family="Times New Roman,serif" font-size="14.00">4</text>
<polygon fill="none" stroke="black" points="8.5,-53.5 8.5,-78.5 110.5,-78.5 110.5,-53.5 8.5,-53.5"/>
<text text-anchor="start" x="52.5" y="-62.3" font-family="Times New Roman,serif" font-size="14.00">v2</text>
<polygon fill="none" stroke="black" points="110.5,-53.5 110.5,-78.5 194.5,-78.5 194.5,-53.5 110.5,-53.5"/>
<text text-anchor="start" x="117.5" y="-62.3" font-family="Times New Roman,serif" font-size="14.00">VARIABLE</text>
<polygon fill="none" stroke="black" points="194.5,-53.5 194.5,-78.5 262.5,-78.5 262.5,-53.5 194.5,-53.5"/>
<text text-anchor="start" x="199.5" y="-62.3" font-family="Times New Roman,serif" font-size="14.00">VECTOR</text>
<polygon fill="none" stroke="black" points="262.5,-53.5 262.5,-78.5 311.5,-78.5 311.5,-53.5 262.5,-53.5"/>
<text text-anchor="start" x="271" y="-62.3" font-family="Times New Roman,serif" font-size="14.00">Local</text>
<polygon fill="none" stroke="black" points="311.5,-53.5 311.5,-78.5 338.5,-78.5 338.5,-53.5 311.5,-53.5"/>
<text text-anchor="start" x="318" y="-62.3" font-family="Times New Roman,serif" font-size="14.00">16</text>
<polygon fill="none" stroke="black" points="338.5,-53.5 338.5,-78.5 395.5,-78.5 395.5,-53.5 338.5,-53.5"/>
<text text-anchor="start" x="363.5" y="-62.3" font-family="Times New Roman,serif" font-size="14.00">4</text>
<polygon fill="none" stroke="black" points="8.5,-28.5 8.5,-53.5 110.5,-53.5 110.5,-28.5 8.5,-28.5"/>
<text text-anchor="start" x="56" y="-37.3" font-family="Times New Roman,serif" font-size="14.00">a</text>
<polygon fill="none" stroke="black" points="110.5,-28.5 110.5,-53.5 194.5,-53.5 194.5,-28.5 110.5,-28.5"/>
<text text-anchor="start" x="117.5" y="-37.3" font-family="Times New Roman,serif" font-size="14.00">VARIABLE</text>
<polygon fill="none" stroke="black" points="194.5,-28.5 194.5,-53.5 262.5,-53.5 262.5,-28.5 194.5,-28.5"/>
<text text-anchor="start" x="199.5" y="-37.3" font-family="Times New Roman,serif" font-size="14.00">VECTOR</text>
<polygon fill="none" stroke="black" points="262.5,-28.5 262.5,-53.5 311.5,-53.5 311.5,-28.5 262.5,-28.5"/>
<text text-anchor="start" x="271" y="-37.3" font-family="Times New Roman,serif" font-size="14.00">Local</text>
<polygon fill="none" stroke="black" points="311.5,-28.5 311.5,-53.5 338.5,-53.5 338.5,-28.5 311.5,-28.5"/>
<text text-anchor="start" x="318" y="-37.3" font-family="Times New Roman,serif" font-size="14.00">25</text>
<polygon fill="none" stroke="black" points="338.5,-28.5 338.5,-53.5 395.5,-53.5 395.5,-28.5 338.5,-28.5"/>
<text text-anchor="start" x="360" y="-37.3" font-family="Times New Roman,serif" font-size="14.00">18</text>
<polygon fill="none" stroke="black" points="8.5,-3.5 8.5,-28.5 110.5,-28.5 110.5,-3.5 8.5,-3.5"/>
<text text-anchor="start" x="56" y="-12.3" font-family="Times New Roman,serif" font-size="14.00">a</text>
<polygon fill="none" stroke="black" points="110.5,-3.5 110.5,-28.5 194.5,-28.5 194.5,-3.5 110.5,-3.5"/>
<text text-anchor="start" x="117.5" y="-12.3" font-family="Times New Roman,serif" font-size="14.00">VARIABLE</text>
<polygon fill="none" stroke="black" points="194.5,-3.5 194.5,-28.5 262.5,-28.5 262.5,-3.5 194.5,-3.5"/>
<text text-anchor="start" x="199.5" y="-12.3" font-family="Times New Roman,serif" font-size="14.00">VECTOR</text>
<polygon fill="none" stroke="black" points="262.5,-3.5 262.5,-28.5 311.5,-28.5 311.5,-3.5 262.5,-3.5"/>
<text text-anchor="start" x="271" y="-12.3" font-family="Times New Roman,serif" font-size="14.00">Local</text>
<polygon fill="none" stroke="black" points="311.5,-3.5 311.5,-28.5 338.5,-28.5 338.5,-3.5 311.5,-3.5"/>
<text text-anchor="start" x="318" y="-12.3" font-family="Times New Roman,serif" font-size="14.00">30</text>
<polygon fill="none" stroke="black" points="338.5,-3.5 338.5,-28.5 395.5,-28.5 395.5,-3.5 338.5,-3.5"/>
<text text-anchor="start" x="360" y="-12.3" font-family="Times New Roman,serif" font-size="14.00">19</text>
</g>
</g>
</svg>
