<?xml version="1.0" encoding="UTF-8" standalone="no"?>
<!DOCTYPE svg PUBLIC "-//W3C//DTD SVG 1.1//EN"
 "http://www.w3.org/Graphics/SVG/1.1/DTD/svg11.dtd">
<!-- Generated by graphviz version 3.0.0 (20220226.1711)
 -->
<!-- Pages: 1 -->
<svg width="322pt" height="112pt"
 viewBox="0.00 0.00 322.00 112.00" xmlns="http://www.w3.org/2000/svg" xmlns:xlink="http://www.w3.org/1999/xlink">
<g id="graph0" class="graph" transform="scale(1 1) rotate(0) translate(4 108)">
<polygon fill="white" stroke="transparent" points="-4,4 -4,-108 318,-108 318,4 -4,4"/>
<!-- tablaSimbolos -->
<g id="node1" class="node">
<title>tablaSimbolos</title>
<polygon fill="none" stroke="black" points="8,-79 8,-100 27,-100 27,-79 8,-79"/>
<text text-anchor="start" x="11" y="-85.8" font-family="Times New Roman,serif" font-size="14.00">Id</text>
<polygon fill="none" stroke="black" points="27,-79 27,-100 111,-100 111,-79 27,-79"/>
<text text-anchor="start" x="30" y="-85.8" font-family="Times New Roman,serif" font-size="14.00">Tipo símbolo</text>
<polygon fill="none" stroke="black" points="111,-79 111,-100 173,-100 173,-79 111,-79"/>
<text text-anchor="start" x="114" y="-85.8" font-family="Times New Roman,serif" font-size="14.00">Tipo dato</text>
<polygon fill="none" stroke="black" points="173,-79 173,-100 222,-100 222,-79 173,-79"/>
<text text-anchor="start" x="176" y="-85.8" font-family="Times New Roman,serif" font-size="14.00">Ámbito</text>
<polygon fill="none" stroke="black" points="222,-79 222,-100 249,-100 249,-79 222,-79"/>
<text text-anchor="start" x="225" y="-85.8" font-family="Times New Roman,serif" font-size="14.00">Fila</text>
<polygon fill="none" stroke="black" points="249,-79 249,-100 306,-100 306,-79 249,-79"/>
<text text-anchor="start" x="252" y="-85.8" font-family="Times New Roman,serif" font-size="14.00">Columna</text>
<polygon fill="none" stroke="black" points="8,-54 8,-79 27,-79 27,-54 8,-54"/>
<text text-anchor="start" x="14" y="-62.8" font-family="Times New Roman,serif" font-size="14.00">a</text>
<polygon fill="none" stroke="black" points="27,-54 27,-79 111,-79 111,-54 27,-54"/>
<text text-anchor="start" x="34" y="-62.8" font-family="Times New Roman,serif" font-size="14.00">VARIABLE</text>
<polygon fill="none" stroke="black" points="111,-54 111,-79 173,-79 173,-54 111,-54"/>
<text text-anchor="start" x="132.5" y="-62.8" font-family="Times New Roman,serif" font-size="14.00">I64</text>
<polygon fill="none" stroke="black" points="173,-54 173,-79 222,-79 222,-54 173,-54"/>
<text text-anchor="start" x="181.5" y="-62.8" font-family="Times New Roman,serif" font-size="14.00">Local</text>
<polygon fill="none" stroke="black" points="222,-54 222,-79 249,-79 249,-54 222,-54"/>
<text text-anchor="start" x="232" y="-62.8" font-family="Times New Roman,serif" font-size="14.00">2</text>
<polygon fill="none" stroke="black" points="249,-54 249,-79 306,-79 306,-54 249,-54"/>
<text text-anchor="start" x="274" y="-62.8" font-family="Times New Roman,serif" font-size="14.00">4</text>
<polygon fill="none" stroke="black" points="8,-29 8,-54 27,-54 27,-29 8,-29"/>
<text text-anchor="start" x="13.5" y="-37.8" font-family="Times New Roman,serif" font-size="14.00">b</text>
<polygon fill="none" stroke="black" points="27,-29 27,-54 111,-54 111,-29 27,-29"/>
<text text-anchor="start" x="34" y="-37.8" font-family="Times New Roman,serif" font-size="14.00">VARIABLE</text>
<polygon fill="none" stroke="black" points="111,-29 111,-54 173,-54 173,-29 111,-29"/>
<text text-anchor="start" x="132.5" y="-37.8" font-family="Times New Roman,serif" font-size="14.00">I64</text>
<polygon fill="none" stroke="black" points="173,-29 173,-54 222,-54 222,-29 173,-29"/>
<text text-anchor="start" x="181.5" y="-37.8" font-family="Times New Roman,serif" font-size="14.00">Local</text>
<polygon fill="none" stroke="black" points="222,-29 222,-54 249,-54 249,-29 222,-29"/>
<text text-anchor="start" x="232" y="-37.8" font-family="Times New Roman,serif" font-size="14.00">3</text>
<polygon fill="none" stroke="black" points="249,-29 249,-54 306,-54 306,-29 249,-29"/>
<text text-anchor="start" x="274" y="-37.8" font-family="Times New Roman,serif" font-size="14.00">4</text>
<polygon fill="none" stroke="black" points="8,-4 8,-29 27,-29 27,-4 8,-4"/>
<text text-anchor="start" x="14" y="-12.8" font-family="Times New Roman,serif" font-size="14.00">c</text>
<polygon fill="none" stroke="black" points="27,-4 27,-29 111,-29 111,-4 27,-4"/>
<text text-anchor="start" x="34" y="-12.8" font-family="Times New Roman,serif" font-size="14.00">VARIABLE</text>
<polygon fill="none" stroke="black" points="111,-4 111,-29 173,-29 173,-4 111,-4"/>
<text text-anchor="start" x="132.5" y="-12.8" font-family="Times New Roman,serif" font-size="14.00">I64</text>
<polygon fill="none" stroke="black" points="173,-4 173,-29 222,-29 222,-4 173,-4"/>
<text text-anchor="start" x="181.5" y="-12.8" font-family="Times New Roman,serif" font-size="14.00">Local</text>
<polygon fill="none" stroke="black" points="222,-4 222,-29 249,-29 249,-4 222,-4"/>
<text text-anchor="start" x="232" y="-12.8" font-family="Times New Roman,serif" font-size="14.00">4</text>
<polygon fill="none" stroke="black" points="249,-4 249,-29 306,-29 306,-4 249,-4"/>
<text text-anchor="start" x="274" y="-12.8" font-family="Times New Roman,serif" font-size="14.00">4</text>
</g>
</g>
</svg>
