<?xml version="1.0" encoding="UTF-8" standalone="no"?>
<!DOCTYPE svg PUBLIC "-//W3C//DTD SVG 1.1//EN"
 "http://www.w3.org/Graphics/SVG/1.1/DTD/svg11.dtd">
<!-- Generated by graphviz version 3.0.0 (20220226.1711)
 -->
<!-- Pages: 1 -->
<svg width="339pt" height="62pt"
 viewBox="0.00 0.00 339.00 62.00" xmlns="http://www.w3.org/2000/svg" xmlns:xlink="http://www.w3.org/1999/xlink">
<g id="graph0" class="graph" transform="scale(1 1) rotate(0) translate(4 58)">
<polygon fill="white" stroke="transparent" points="-4,4 -4,-58 335,-58 335,4 -4,4"/>
<!-- tablaSimbolos -->
<g id="node1" class="node">
<title>tablaSimbolos</title>
<polygon fill="none" stroke="black" points="8.5,-29 8.5,-50 38.5,-50 38.5,-29 8.5,-29"/>
<text text-anchor="start" x="17" y="-35.8" font-family="Times New Roman,serif" font-size="14.00">Id</text>
<polygon fill="none" stroke="black" points="38.5,-29 38.5,-50 122.5,-50 122.5,-29 38.5,-29"/>
<text text-anchor="start" x="41.5" y="-35.8" font-family="Times New Roman,serif" font-size="14.00">Tipo símbolo</text>
<polygon fill="none" stroke="black" points="122.5,-29 122.5,-50 190.5,-50 190.5,-29 122.5,-29"/>
<text text-anchor="start" x="128.5" y="-35.8" font-family="Times New Roman,serif" font-size="14.00">Tipo dato</text>
<polygon fill="none" stroke="black" points="190.5,-29 190.5,-50 239.5,-50 239.5,-29 190.5,-29"/>
<text text-anchor="start" x="193.5" y="-35.8" font-family="Times New Roman,serif" font-size="14.00">Ámbito</text>
<polygon fill="none" stroke="black" points="239.5,-29 239.5,-50 266.5,-50 266.5,-29 239.5,-29"/>
<text text-anchor="start" x="242.5" y="-35.8" font-family="Times New Roman,serif" font-size="14.00">Fila</text>
<polygon fill="none" stroke="black" points="266.5,-29 266.5,-50 323.5,-50 323.5,-29 266.5,-29"/>
<text text-anchor="start" x="269.5" y="-35.8" font-family="Times New Roman,serif" font-size="14.00">Columna</text>
<polygon fill="none" stroke="black" points="8.5,-4 8.5,-29 38.5,-29 38.5,-4 8.5,-4"/>
<text text-anchor="start" x="13.5" y="-12.8" font-family="Times New Roman,serif" font-size="14.00">pila</text>
<polygon fill="none" stroke="black" points="38.5,-4 38.5,-29 122.5,-29 122.5,-4 38.5,-4"/>
<text text-anchor="start" x="45.5" y="-12.8" font-family="Times New Roman,serif" font-size="14.00">VARIABLE</text>
<polygon fill="none" stroke="black" points="122.5,-4 122.5,-29 190.5,-29 190.5,-4 122.5,-4"/>
<text text-anchor="start" x="127.5" y="-12.8" font-family="Times New Roman,serif" font-size="14.00">VECTOR</text>
<polygon fill="none" stroke="black" points="190.5,-4 190.5,-29 239.5,-29 239.5,-4 190.5,-4"/>
<text text-anchor="start" x="199" y="-12.8" font-family="Times New Roman,serif" font-size="14.00">Local</text>
<polygon fill="none" stroke="black" points="239.5,-4 239.5,-29 266.5,-29 266.5,-4 239.5,-4"/>
<text text-anchor="start" x="249.5" y="-12.8" font-family="Times New Roman,serif" font-size="14.00">2</text>
<polygon fill="none" stroke="black" points="266.5,-4 266.5,-29 323.5,-29 323.5,-4 266.5,-4"/>
<text text-anchor="start" x="291.5" y="-12.8" font-family="Times New Roman,serif" font-size="14.00">4</text>
</g>
</g>
</svg>
