<?xml version="1.0" encoding="UTF-8" standalone="no"?>
<!DOCTYPE svg PUBLIC "-//W3C//DTD SVG 1.1//EN"
 "http://www.w3.org/Graphics/SVG/1.1/DTD/svg11.dtd">
<!-- Generated by graphviz version 3.0.0 (20220226.1711)
 -->
<!-- Pages: 1 -->
<svg width="362pt" height="87pt"
 viewBox="0.00 0.00 362.00 87.00" xmlns="http://www.w3.org/2000/svg" xmlns:xlink="http://www.w3.org/1999/xlink">
<g id="graph0" class="graph" transform="scale(1 1) rotate(0) translate(4 83)">
<polygon fill="white" stroke="transparent" points="-4,4 -4,-83 358,-83 358,4 -4,4"/>
<!-- tablaSimbolos -->
<g id="node1" class="node">
<title>tablaSimbolos</title>
<polygon fill="none" stroke="black" points="8,-53.5 8,-74.5 61,-74.5 61,-53.5 8,-53.5"/>
<text text-anchor="start" x="28" y="-60.3" font-family="Times New Roman,serif" font-size="14.00">Id</text>
<polygon fill="none" stroke="black" points="61,-53.5 61,-74.5 145,-74.5 145,-53.5 61,-53.5"/>
<text text-anchor="start" x="64" y="-60.3" font-family="Times New Roman,serif" font-size="14.00">Tipo símbolo</text>
<polygon fill="none" stroke="black" points="145,-53.5 145,-74.5 213,-74.5 213,-53.5 145,-53.5"/>
<text text-anchor="start" x="151" y="-60.3" font-family="Times New Roman,serif" font-size="14.00">Tipo dato</text>
<polygon fill="none" stroke="black" points="213,-53.5 213,-74.5 262,-74.5 262,-53.5 213,-53.5"/>
<text text-anchor="start" x="216" y="-60.3" font-family="Times New Roman,serif" font-size="14.00">Ámbito</text>
<polygon fill="none" stroke="black" points="262,-53.5 262,-74.5 289,-74.5 289,-53.5 262,-53.5"/>
<text text-anchor="start" x="265" y="-60.3" font-family="Times New Roman,serif" font-size="14.00">Fila</text>
<polygon fill="none" stroke="black" points="289,-53.5 289,-74.5 346,-74.5 346,-53.5 289,-53.5"/>
<text text-anchor="start" x="292" y="-60.3" font-family="Times New Roman,serif" font-size="14.00">Columna</text>
<polygon fill="none" stroke="black" points="8,-28.5 8,-53.5 61,-53.5 61,-28.5 8,-28.5"/>
<text text-anchor="start" x="23.5" y="-37.3" font-family="Times New Roman,serif" font-size="14.00">arr1</text>
<polygon fill="none" stroke="black" points="61,-28.5 61,-53.5 145,-53.5 145,-28.5 61,-28.5"/>
<text text-anchor="start" x="68" y="-37.3" font-family="Times New Roman,serif" font-size="14.00">VARIABLE</text>
<polygon fill="none" stroke="black" points="145,-28.5 145,-53.5 213,-53.5 213,-28.5 145,-28.5"/>
<text text-anchor="start" x="150" y="-37.3" font-family="Times New Roman,serif" font-size="14.00">VECTOR</text>
<polygon fill="none" stroke="black" points="213,-28.5 213,-53.5 262,-53.5 262,-28.5 213,-28.5"/>
<text text-anchor="start" x="221.5" y="-37.3" font-family="Times New Roman,serif" font-size="14.00">Local</text>
<polygon fill="none" stroke="black" points="262,-28.5 262,-53.5 289,-53.5 289,-28.5 262,-28.5"/>
<text text-anchor="start" x="272" y="-37.3" font-family="Times New Roman,serif" font-size="14.00">3</text>
<polygon fill="none" stroke="black" points="289,-28.5 289,-53.5 346,-53.5 346,-28.5 289,-28.5"/>
<text text-anchor="start" x="314" y="-37.3" font-family="Times New Roman,serif" font-size="14.00">4</text>
<polygon fill="none" stroke="black" points="8,-3.5 8,-28.5 61,-28.5 61,-3.5 8,-3.5"/>
<text text-anchor="start" x="13" y="-12.3" font-family="Times New Roman,serif" font-size="14.00">numero</text>
<polygon fill="none" stroke="black" points="61,-3.5 61,-28.5 145,-28.5 145,-3.5 61,-3.5"/>
<text text-anchor="start" x="68" y="-12.3" font-family="Times New Roman,serif" font-size="14.00">VARIABLE</text>
<polygon fill="none" stroke="black" points="145,-3.5 145,-28.5 213,-28.5 213,-3.5 145,-3.5"/>
<text text-anchor="start" x="169.5" y="-12.3" font-family="Times New Roman,serif" font-size="14.00">I64</text>
<polygon fill="none" stroke="black" points="213,-3.5 213,-28.5 262,-28.5 262,-3.5 213,-3.5"/>
<text text-anchor="start" x="221.5" y="-12.3" font-family="Times New Roman,serif" font-size="14.00">Local</text>
<polygon fill="none" stroke="black" points="262,-3.5 262,-28.5 289,-28.5 289,-3.5 262,-3.5"/>
<text text-anchor="start" x="268.5" y="-12.3" font-family="Times New Roman,serif" font-size="14.00">11</text>
<polygon fill="none" stroke="black" points="289,-3.5 289,-28.5 346,-28.5 346,-3.5 289,-3.5"/>
<text text-anchor="start" x="314" y="-12.3" font-family="Times New Roman,serif" font-size="14.00">4</text>
</g>
</g>
</svg>
