<?xml version="1.0" encoding="UTF-8" standalone="no"?>
<!DOCTYPE svg PUBLIC "-//W3C//DTD SVG 1.1//EN"
 "http://www.w3.org/Graphics/SVG/1.1/DTD/svg11.dtd">
<!-- Generated by graphviz version 3.0.0 (20220226.1711)
 -->
<!-- Pages: 1 -->
<svg width="211pt" height="62pt"
 viewBox="0.00 0.00 211.00 62.00" xmlns="http://www.w3.org/2000/svg" xmlns:xlink="http://www.w3.org/1999/xlink">
<g id="graph0" class="graph" transform="scale(1 1) rotate(0) translate(4 58)">
<polygon fill="white" stroke="transparent" points="-4,4 -4,-58 207,-58 207,4 -4,4"/>
<!-- tablaSimbolos -->
<g id="node1" class="node">
<title>tablaSimbolos</title>
<polygon fill="none" stroke="black" points="8.5,-29 8.5,-50 36.5,-50 36.5,-29 8.5,-29"/>
<text text-anchor="start" x="11.5" y="-35.8" font-family="Times New Roman,serif" font-size="14.00">No.</text>
<polygon fill="none" stroke="black" points="36.5,-29 36.5,-50 88.5,-50 88.5,-29 36.5,-29"/>
<text text-anchor="start" x="39.5" y="-35.8" font-family="Times New Roman,serif" font-size="14.00">Nombre</text>
<polygon fill="none" stroke="black" points="88.5,-29 88.5,-50 157.5,-50 157.5,-29 88.5,-29"/>
<text text-anchor="start" x="91.5" y="-35.8" font-family="Times New Roman,serif" font-size="14.00">No. Tablas</text>
<polygon fill="none" stroke="black" points="157.5,-29 157.5,-50 195.5,-50 195.5,-29 157.5,-29"/>
<text text-anchor="start" x="160.5" y="-35.8" font-family="Times New Roman,serif" font-size="14.00">Línea</text>
<polygon fill="none" stroke="black" points="8.5,-4 8.5,-29 36.5,-29 36.5,-4 8.5,-4"/>
<text text-anchor="start" x="19" y="-12.8" font-family="Times New Roman,serif" font-size="14.00">1</text>
<polygon fill="none" stroke="black" points="36.5,-4 36.5,-29 88.5,-29 88.5,-4 36.5,-4"/>
<text text-anchor="start" x="45.5" y="-12.8" font-family="Times New Roman,serif" font-size="14.00">tienda</text>
<polygon fill="none" stroke="black" points="88.5,-4 88.5,-29 157.5,-29 157.5,-4 88.5,-4"/>
<text text-anchor="start" x="119.5" y="-12.8" font-family="Times New Roman,serif" font-size="14.00">1</text>
<polygon fill="none" stroke="black" points="157.5,-4 157.5,-29 195.5,-29 195.5,-4 157.5,-4"/>
<text text-anchor="start" x="173" y="-12.8" font-family="Times New Roman,serif" font-size="14.00">1</text>
</g>
</g>
</svg>
