<?xml version="1.0" encoding="UTF-8" standalone="no"?>
<!DOCTYPE svg PUBLIC "-//W3C//DTD SVG 1.1//EN"
 "http://www.w3.org/Graphics/SVG/1.1/DTD/svg11.dtd">
<!-- Generated by graphviz version 3.0.0 (20220226.1711)
 -->
<!-- Pages: 1 -->
<svg width="371pt" height="362pt"
 viewBox="0.00 0.00 371.00 362.00" xmlns="http://www.w3.org/2000/svg" xmlns:xlink="http://www.w3.org/1999/xlink">
<g id="graph0" class="graph" transform="scale(1 1) rotate(0) translate(4 358)">
<polygon fill="white" stroke="transparent" points="-4,4 -4,-358 367,-358 367,4 -4,4"/>
<!-- tablaSimbolos -->
<g id="node1" class="node">
<title>tablaSimbolos</title>
<polygon fill="none" stroke="black" points="8.5,-329 8.5,-350 70.5,-350 70.5,-329 8.5,-329"/>
<text text-anchor="start" x="33" y="-335.8" font-family="Times New Roman,serif" font-size="14.00">Id</text>
<polygon fill="none" stroke="black" points="70.5,-329 70.5,-350 154.5,-350 154.5,-329 70.5,-329"/>
<text text-anchor="start" x="73.5" y="-335.8" font-family="Times New Roman,serif" font-size="14.00">Tipo símbolo</text>
<polygon fill="none" stroke="black" points="154.5,-329 154.5,-350 222.5,-350 222.5,-329 154.5,-329"/>
<text text-anchor="start" x="160.5" y="-335.8" font-family="Times New Roman,serif" font-size="14.00">Tipo dato</text>
<polygon fill="none" stroke="black" points="222.5,-329 222.5,-350 271.5,-350 271.5,-329 222.5,-329"/>
<text text-anchor="start" x="225.5" y="-335.8" font-family="Times New Roman,serif" font-size="14.00">Ámbito</text>
<polygon fill="none" stroke="black" points="271.5,-329 271.5,-350 298.5,-350 298.5,-329 271.5,-329"/>
<text text-anchor="start" x="274.5" y="-335.8" font-family="Times New Roman,serif" font-size="14.00">Fila</text>
<polygon fill="none" stroke="black" points="298.5,-329 298.5,-350 355.5,-350 355.5,-329 298.5,-329"/>
<text text-anchor="start" x="301.5" y="-335.8" font-family="Times New Roman,serif" font-size="14.00">Columna</text>
<polygon fill="none" stroke="black" points="8.5,-304 8.5,-329 70.5,-329 70.5,-304 8.5,-304"/>
<text text-anchor="start" x="22.5" y="-312.8" font-family="Times New Roman,serif" font-size="14.00">Brazo</text>
<polygon fill="none" stroke="black" points="70.5,-304 70.5,-329 154.5,-329 154.5,-304 70.5,-304"/>
<text text-anchor="start" x="77.5" y="-312.8" font-family="Times New Roman,serif" font-size="14.00">VARIABLE</text>
<polygon fill="none" stroke="black" points="154.5,-304 154.5,-329 222.5,-329 222.5,-304 154.5,-304"/>
<text text-anchor="start" x="160.5" y="-312.8" font-family="Times New Roman,serif" font-size="14.00">STRUCT</text>
<polygon fill="none" stroke="black" points="222.5,-304 222.5,-329 271.5,-329 271.5,-304 222.5,-304"/>
<text text-anchor="start" x="228" y="-312.8" font-family="Times New Roman,serif" font-size="14.00">Global</text>
<polygon fill="none" stroke="black" points="271.5,-304 271.5,-329 298.5,-329 298.5,-304 271.5,-304"/>
<text text-anchor="start" x="281.5" y="-312.8" font-family="Times New Roman,serif" font-size="14.00">1</text>
<polygon fill="none" stroke="black" points="298.5,-304 298.5,-329 355.5,-329 355.5,-304 298.5,-304"/>
<text text-anchor="start" x="323.5" y="-312.8" font-family="Times New Roman,serif" font-size="14.00">7</text>
<polygon fill="none" stroke="black" points="8.5,-279 8.5,-304 70.5,-304 70.5,-279 8.5,-279"/>
<text text-anchor="start" x="16.5" y="-287.8" font-family="Times New Roman,serif" font-size="14.00">Persona</text>
<polygon fill="none" stroke="black" points="70.5,-279 70.5,-304 154.5,-304 154.5,-279 70.5,-279"/>
<text text-anchor="start" x="77.5" y="-287.8" font-family="Times New Roman,serif" font-size="14.00">VARIABLE</text>
<polygon fill="none" stroke="black" points="154.5,-279 154.5,-304 222.5,-304 222.5,-279 154.5,-279"/>
<text text-anchor="start" x="160.5" y="-287.8" font-family="Times New Roman,serif" font-size="14.00">STRUCT</text>
<polygon fill="none" stroke="black" points="222.5,-279 222.5,-304 271.5,-304 271.5,-279 222.5,-279"/>
<text text-anchor="start" x="228" y="-287.8" font-family="Times New Roman,serif" font-size="14.00">Global</text>
<polygon fill="none" stroke="black" points="271.5,-279 271.5,-304 298.5,-304 298.5,-279 271.5,-279"/>
<text text-anchor="start" x="281.5" y="-287.8" font-family="Times New Roman,serif" font-size="14.00">5</text>
<polygon fill="none" stroke="black" points="298.5,-279 298.5,-304 355.5,-304 355.5,-279 298.5,-279"/>
<text text-anchor="start" x="323.5" y="-287.8" font-family="Times New Roman,serif" font-size="14.00">7</text>
<polygon fill="none" stroke="black" points="8.5,-254 8.5,-279 70.5,-279 70.5,-254 8.5,-254"/>
<text text-anchor="start" x="16" y="-262.8" font-family="Times New Roman,serif" font-size="14.00">imprimir</text>
<polygon fill="none" stroke="black" points="70.5,-254 70.5,-279 154.5,-279 154.5,-254 70.5,-254"/>
<text text-anchor="start" x="81" y="-262.8" font-family="Times New Roman,serif" font-size="14.00">FUNCION</text>
<polygon fill="none" stroke="black" points="154.5,-254 154.5,-279 222.5,-279 222.5,-254 154.5,-254"/>
<text text-anchor="start" x="171" y="-262.8" font-family="Times New Roman,serif" font-size="14.00">VOID</text>
<polygon fill="none" stroke="black" points="222.5,-254 222.5,-279 271.5,-279 271.5,-254 222.5,-254"/>
<text text-anchor="start" x="228" y="-262.8" font-family="Times New Roman,serif" font-size="14.00">Global</text>
<polygon fill="none" stroke="black" points="271.5,-254 271.5,-279 298.5,-279 298.5,-254 271.5,-254"/>
<text text-anchor="start" x="278" y="-262.8" font-family="Times New Roman,serif" font-size="14.00">12</text>
<polygon fill="none" stroke="black" points="298.5,-254 298.5,-279 355.5,-279 355.5,-254 298.5,-254"/>
<text text-anchor="start" x="323.5" y="-262.8" font-family="Times New Roman,serif" font-size="14.00">0</text>
<polygon fill="none" stroke="black" points="8.5,-229 8.5,-254 70.5,-254 70.5,-229 8.5,-229"/>
<text text-anchor="start" x="28.5" y="-237.8" font-family="Times New Roman,serif" font-size="14.00">arr1</text>
<polygon fill="none" stroke="black" points="70.5,-229 70.5,-254 154.5,-254 154.5,-229 70.5,-229"/>
<text text-anchor="start" x="77.5" y="-237.8" font-family="Times New Roman,serif" font-size="14.00">VARIABLE</text>
<polygon fill="none" stroke="black" points="154.5,-229 154.5,-254 222.5,-254 222.5,-229 154.5,-229"/>
<text text-anchor="start" x="164" y="-237.8" font-family="Times New Roman,serif" font-size="14.00">ARRAY</text>
<polygon fill="none" stroke="black" points="222.5,-229 222.5,-254 271.5,-254 271.5,-229 222.5,-229"/>
<text text-anchor="start" x="231" y="-237.8" font-family="Times New Roman,serif" font-size="14.00">Local</text>
<polygon fill="none" stroke="black" points="271.5,-229 271.5,-254 298.5,-254 298.5,-229 271.5,-229"/>
<text text-anchor="start" x="278" y="-237.8" font-family="Times New Roman,serif" font-size="14.00">22</text>
<polygon fill="none" stroke="black" points="298.5,-229 298.5,-254 355.5,-254 355.5,-229 298.5,-229"/>
<text text-anchor="start" x="323.5" y="-237.8" font-family="Times New Roman,serif" font-size="14.00">4</text>
<polygon fill="none" stroke="black" points="8.5,-204 8.5,-229 70.5,-229 70.5,-204 8.5,-204"/>
<text text-anchor="start" x="13.5" y="-212.8" font-family="Times New Roman,serif" font-size="14.00">direccion</text>
<polygon fill="none" stroke="black" points="70.5,-204 70.5,-229 154.5,-229 154.5,-204 70.5,-204"/>
<text text-anchor="start" x="77.5" y="-212.8" font-family="Times New Roman,serif" font-size="14.00">VARIABLE</text>
<polygon fill="none" stroke="black" points="154.5,-204 154.5,-229 222.5,-229 222.5,-204 154.5,-204"/>
<text text-anchor="start" x="174.5" y="-212.8" font-family="Times New Roman,serif" font-size="14.00">STR</text>
<polygon fill="none" stroke="black" points="222.5,-204 222.5,-229 271.5,-229 271.5,-204 222.5,-204"/>
<text text-anchor="start" x="231" y="-212.8" font-family="Times New Roman,serif" font-size="14.00">Local</text>
<polygon fill="none" stroke="black" points="271.5,-204 271.5,-229 298.5,-229 298.5,-204 271.5,-204"/>
<text text-anchor="start" x="278" y="-212.8" font-family="Times New Roman,serif" font-size="14.00">24</text>
<polygon fill="none" stroke="black" points="298.5,-204 298.5,-229 355.5,-229 355.5,-204 298.5,-204"/>
<text text-anchor="start" x="323.5" y="-212.8" font-family="Times New Roman,serif" font-size="14.00">8</text>
<polygon fill="none" stroke="black" points="8.5,-179 8.5,-204 70.5,-204 70.5,-179 8.5,-179"/>
<text text-anchor="start" x="19.5" y="-187.8" font-family="Times New Roman,serif" font-size="14.00">nBrazo</text>
<polygon fill="none" stroke="black" points="70.5,-179 70.5,-204 154.5,-204 154.5,-179 70.5,-179"/>
<text text-anchor="start" x="77.5" y="-187.8" font-family="Times New Roman,serif" font-size="14.00">VARIABLE</text>
<polygon fill="none" stroke="black" points="154.5,-179 154.5,-204 222.5,-204 222.5,-179 154.5,-179"/>
<text text-anchor="start" x="160.5" y="-187.8" font-family="Times New Roman,serif" font-size="14.00">STRUCT</text>
<polygon fill="none" stroke="black" points="222.5,-179 222.5,-204 271.5,-204 271.5,-179 222.5,-179"/>
<text text-anchor="start" x="231" y="-187.8" font-family="Times New Roman,serif" font-size="14.00">Local</text>
<polygon fill="none" stroke="black" points="271.5,-179 271.5,-204 298.5,-204 298.5,-179 271.5,-179"/>
<text text-anchor="start" x="278" y="-187.8" font-family="Times New Roman,serif" font-size="14.00">23</text>
<polygon fill="none" stroke="black" points="298.5,-179 298.5,-204 355.5,-204 355.5,-179 298.5,-179"/>
<text text-anchor="start" x="323.5" y="-187.8" font-family="Times New Roman,serif" font-size="14.00">4</text>
<polygon fill="none" stroke="black" points="8.5,-154 8.5,-179 70.5,-179 70.5,-154 8.5,-154"/>
<text text-anchor="start" x="18" y="-162.8" font-family="Times New Roman,serif" font-size="14.00">nombre</text>
<polygon fill="none" stroke="black" points="70.5,-154 70.5,-179 154.5,-179 154.5,-154 70.5,-154"/>
<text text-anchor="start" x="77.5" y="-162.8" font-family="Times New Roman,serif" font-size="14.00">VARIABLE</text>
<polygon fill="none" stroke="black" points="154.5,-154 154.5,-179 222.5,-179 222.5,-154 154.5,-154"/>
<text text-anchor="start" x="174.5" y="-162.8" font-family="Times New Roman,serif" font-size="14.00">STR</text>
<polygon fill="none" stroke="black" points="222.5,-154 222.5,-179 271.5,-179 271.5,-154 222.5,-154"/>
<text text-anchor="start" x="231" y="-162.8" font-family="Times New Roman,serif" font-size="14.00">Local</text>
<polygon fill="none" stroke="black" points="271.5,-154 271.5,-179 298.5,-179 298.5,-154 271.5,-154"/>
<text text-anchor="start" x="278" y="-162.8" font-family="Times New Roman,serif" font-size="14.00">28</text>
<polygon fill="none" stroke="black" points="298.5,-154 298.5,-179 355.5,-179 355.5,-154 298.5,-154"/>
<text text-anchor="start" x="323.5" y="-162.8" font-family="Times New Roman,serif" font-size="14.00">8</text>
<polygon fill="none" stroke="black" points="8.5,-129 8.5,-154 70.5,-154 70.5,-129 8.5,-129"/>
<text text-anchor="start" x="25.5" y="-137.8" font-family="Times New Roman,serif" font-size="14.00">edad</text>
<polygon fill="none" stroke="black" points="70.5,-129 70.5,-154 154.5,-154 154.5,-129 70.5,-129"/>
<text text-anchor="start" x="77.5" y="-137.8" font-family="Times New Roman,serif" font-size="14.00">VARIABLE</text>
<polygon fill="none" stroke="black" points="154.5,-129 154.5,-154 222.5,-154 222.5,-129 154.5,-129"/>
<text text-anchor="start" x="179" y="-137.8" font-family="Times New Roman,serif" font-size="14.00">I64</text>
<polygon fill="none" stroke="black" points="222.5,-129 222.5,-154 271.5,-154 271.5,-129 222.5,-129"/>
<text text-anchor="start" x="231" y="-137.8" font-family="Times New Roman,serif" font-size="14.00">Local</text>
<polygon fill="none" stroke="black" points="271.5,-129 271.5,-154 298.5,-154 298.5,-129 271.5,-129"/>
<text text-anchor="start" x="278" y="-137.8" font-family="Times New Roman,serif" font-size="14.00">29</text>
<polygon fill="none" stroke="black" points="298.5,-129 298.5,-154 355.5,-154 355.5,-129 298.5,-129"/>
<text text-anchor="start" x="323.5" y="-137.8" font-family="Times New Roman,serif" font-size="14.00">8</text>
<polygon fill="none" stroke="black" points="8.5,-104 8.5,-129 70.5,-129 70.5,-104 8.5,-104"/>
<text text-anchor="start" x="28.5" y="-112.8" font-family="Times New Roman,serif" font-size="14.00">lista</text>
<polygon fill="none" stroke="black" points="70.5,-104 70.5,-129 154.5,-129 154.5,-104 70.5,-104"/>
<text text-anchor="start" x="77.5" y="-112.8" font-family="Times New Roman,serif" font-size="14.00">VARIABLE</text>
<polygon fill="none" stroke="black" points="154.5,-104 154.5,-129 222.5,-129 222.5,-104 154.5,-104"/>
<text text-anchor="start" x="159.5" y="-112.8" font-family="Times New Roman,serif" font-size="14.00">VECTOR</text>
<polygon fill="none" stroke="black" points="222.5,-104 222.5,-129 271.5,-129 271.5,-104 222.5,-104"/>
<text text-anchor="start" x="231" y="-112.8" font-family="Times New Roman,serif" font-size="14.00">Local</text>
<polygon fill="none" stroke="black" points="271.5,-104 271.5,-129 298.5,-129 298.5,-104 271.5,-104"/>
<text text-anchor="start" x="278" y="-112.8" font-family="Times New Roman,serif" font-size="14.00">30</text>
<polygon fill="none" stroke="black" points="298.5,-104 298.5,-129 355.5,-129 355.5,-104 298.5,-104"/>
<text text-anchor="start" x="323.5" y="-112.8" font-family="Times New Roman,serif" font-size="14.00">8</text>
<polygon fill="none" stroke="black" points="8.5,-79 8.5,-104 70.5,-104 70.5,-79 8.5,-79"/>
<text text-anchor="start" x="23.5" y="-87.8" font-family="Times New Roman,serif" font-size="14.00">brazo</text>
<polygon fill="none" stroke="black" points="70.5,-79 70.5,-104 154.5,-104 154.5,-79 70.5,-79"/>
<text text-anchor="start" x="77.5" y="-87.8" font-family="Times New Roman,serif" font-size="14.00">VARIABLE</text>
<polygon fill="none" stroke="black" points="154.5,-79 154.5,-104 222.5,-104 222.5,-79 154.5,-79"/>
<text text-anchor="start" x="160.5" y="-87.8" font-family="Times New Roman,serif" font-size="14.00">STRUCT</text>
<polygon fill="none" stroke="black" points="222.5,-79 222.5,-104 271.5,-104 271.5,-79 222.5,-79"/>
<text text-anchor="start" x="231" y="-87.8" font-family="Times New Roman,serif" font-size="14.00">Local</text>
<polygon fill="none" stroke="black" points="271.5,-79 271.5,-104 298.5,-104 298.5,-79 271.5,-79"/>
<text text-anchor="start" x="278" y="-87.8" font-family="Times New Roman,serif" font-size="14.00">31</text>
<polygon fill="none" stroke="black" points="298.5,-79 298.5,-104 355.5,-104 355.5,-79 298.5,-79"/>
<text text-anchor="start" x="323.5" y="-87.8" font-family="Times New Roman,serif" font-size="14.00">8</text>
<polygon fill="none" stroke="black" points="8.5,-54 8.5,-79 70.5,-79 70.5,-54 8.5,-54"/>
<text text-anchor="start" x="13.5" y="-62.8" font-family="Times New Roman,serif" font-size="14.00">nPersona</text>
<polygon fill="none" stroke="black" points="70.5,-54 70.5,-79 154.5,-79 154.5,-54 70.5,-54"/>
<text text-anchor="start" x="77.5" y="-62.8" font-family="Times New Roman,serif" font-size="14.00">VARIABLE</text>
<polygon fill="none" stroke="black" points="154.5,-54 154.5,-79 222.5,-79 222.5,-54 154.5,-54"/>
<text text-anchor="start" x="160.5" y="-62.8" font-family="Times New Roman,serif" font-size="14.00">STRUCT</text>
<polygon fill="none" stroke="black" points="222.5,-54 222.5,-79 271.5,-79 271.5,-54 222.5,-54"/>
<text text-anchor="start" x="231" y="-62.8" font-family="Times New Roman,serif" font-size="14.00">Local</text>
<polygon fill="none" stroke="black" points="271.5,-54 271.5,-79 298.5,-79 298.5,-54 271.5,-54"/>
<text text-anchor="start" x="278" y="-62.8" font-family="Times New Roman,serif" font-size="14.00">27</text>
<polygon fill="none" stroke="black" points="298.5,-54 298.5,-79 355.5,-79 355.5,-54 298.5,-54"/>
<text text-anchor="start" x="323.5" y="-62.8" font-family="Times New Roman,serif" font-size="14.00">4</text>
<polygon fill="none" stroke="black" points="8.5,-29 8.5,-54 70.5,-54 70.5,-29 8.5,-29"/>
<text text-anchor="start" x="21.5" y="-37.8" font-family="Times New Roman,serif" font-size="14.00">vector</text>
<polygon fill="none" stroke="black" points="70.5,-29 70.5,-54 154.5,-54 154.5,-29 70.5,-29"/>
<text text-anchor="start" x="77.5" y="-37.8" font-family="Times New Roman,serif" font-size="14.00">VARIABLE</text>
<polygon fill="none" stroke="black" points="154.5,-29 154.5,-54 222.5,-54 222.5,-29 154.5,-29"/>
<text text-anchor="start" x="159.5" y="-37.8" font-family="Times New Roman,serif" font-size="14.00">VECTOR</text>
<polygon fill="none" stroke="black" points="222.5,-29 222.5,-54 271.5,-54 271.5,-29 222.5,-29"/>
<text text-anchor="start" x="231" y="-37.8" font-family="Times New Roman,serif" font-size="14.00">Local</text>
<polygon fill="none" stroke="black" points="271.5,-29 271.5,-54 298.5,-54 298.5,-29 271.5,-29"/>
<text text-anchor="start" x="278" y="-37.8" font-family="Times New Roman,serif" font-size="14.00">33</text>
<polygon fill="none" stroke="black" points="298.5,-29 298.5,-54 355.5,-54 355.5,-29 298.5,-29"/>
<text text-anchor="start" x="323.5" y="-37.8" font-family="Times New Roman,serif" font-size="14.00">4</text>
<polygon fill="none" stroke="black" points="8.5,-4 8.5,-29 70.5,-29 70.5,-4 8.5,-4"/>
<text text-anchor="start" x="17" y="-12.8" font-family="Times New Roman,serif" font-size="14.00">persona</text>
<polygon fill="none" stroke="black" points="70.5,-4 70.5,-29 154.5,-29 154.5,-4 70.5,-4"/>
<text text-anchor="start" x="77.5" y="-12.8" font-family="Times New Roman,serif" font-size="14.00">VARIABLE</text>
<polygon fill="none" stroke="black" points="154.5,-4 154.5,-29 222.5,-29 222.5,-4 154.5,-4"/>
<text text-anchor="start" x="160.5" y="-12.8" font-family="Times New Roman,serif" font-size="14.00">STRUCT</text>
<polygon fill="none" stroke="black" points="222.5,-4 222.5,-29 271.5,-29 271.5,-4 222.5,-4"/>
<text text-anchor="start" x="231" y="-12.8" font-family="Times New Roman,serif" font-size="14.00">Local</text>
<polygon fill="none" stroke="black" points="271.5,-4 271.5,-29 298.5,-29 298.5,-4 271.5,-4"/>
<text text-anchor="start" x="278" y="-12.8" font-family="Times New Roman,serif" font-size="14.00">12</text>
<polygon fill="none" stroke="black" points="298.5,-4 298.5,-29 355.5,-29 355.5,-4 298.5,-4"/>
<text text-anchor="start" x="320" y="-12.8" font-family="Times New Roman,serif" font-size="14.00">12</text>
</g>
</g>
</svg>
