<?xml version="1.0" encoding="UTF-8" standalone="no"?>
<!DOCTYPE svg PUBLIC "-//W3C//DTD SVG 1.1//EN"
 "http://www.w3.org/Graphics/SVG/1.1/DTD/svg11.dtd">
<!-- Generated by graphviz version 3.0.0 (20220226.1711)
 -->
<!-- Pages: 1 -->
<svg width="355pt" height="87pt"
 viewBox="0.00 0.00 355.00 87.00" xmlns="http://www.w3.org/2000/svg" xmlns:xlink="http://www.w3.org/1999/xlink">
<g id="graph0" class="graph" transform="scale(1 1) rotate(0) translate(4 83)">
<polygon fill="white" stroke="transparent" points="-4,4 -4,-83 351,-83 351,4 -4,4"/>
<!-- tablaSimbolos -->
<g id="node1" class="node">
<title>tablaSimbolos</title>
<polygon fill="none" stroke="black" points="8.5,-53.5 8.5,-74.5 54.5,-74.5 54.5,-53.5 8.5,-53.5"/>
<text text-anchor="start" x="25" y="-60.3" font-family="Times New Roman,serif" font-size="14.00">Id</text>
<polygon fill="none" stroke="black" points="54.5,-53.5 54.5,-74.5 138.5,-74.5 138.5,-53.5 54.5,-53.5"/>
<text text-anchor="start" x="57.5" y="-60.3" font-family="Times New Roman,serif" font-size="14.00">Tipo símbolo</text>
<polygon fill="none" stroke="black" points="138.5,-53.5 138.5,-74.5 206.5,-74.5 206.5,-53.5 138.5,-53.5"/>
<text text-anchor="start" x="144.5" y="-60.3" font-family="Times New Roman,serif" font-size="14.00">Tipo dato</text>
<polygon fill="none" stroke="black" points="206.5,-53.5 206.5,-74.5 255.5,-74.5 255.5,-53.5 206.5,-53.5"/>
<text text-anchor="start" x="209.5" y="-60.3" font-family="Times New Roman,serif" font-size="14.00">Ámbito</text>
<polygon fill="none" stroke="black" points="255.5,-53.5 255.5,-74.5 282.5,-74.5 282.5,-53.5 255.5,-53.5"/>
<text text-anchor="start" x="258.5" y="-60.3" font-family="Times New Roman,serif" font-size="14.00">Fila</text>
<polygon fill="none" stroke="black" points="282.5,-53.5 282.5,-74.5 339.5,-74.5 339.5,-53.5 282.5,-53.5"/>
<text text-anchor="start" x="285.5" y="-60.3" font-family="Times New Roman,serif" font-size="14.00">Columna</text>
<polygon fill="none" stroke="black" points="8.5,-28.5 8.5,-53.5 54.5,-53.5 54.5,-28.5 8.5,-28.5"/>
<text text-anchor="start" x="19.5" y="-37.3" font-family="Times New Roman,serif" font-size="14.00">cola</text>
<polygon fill="none" stroke="black" points="54.5,-28.5 54.5,-53.5 138.5,-53.5 138.5,-28.5 54.5,-28.5"/>
<text text-anchor="start" x="61.5" y="-37.3" font-family="Times New Roman,serif" font-size="14.00">VARIABLE</text>
<polygon fill="none" stroke="black" points="138.5,-28.5 138.5,-53.5 206.5,-53.5 206.5,-28.5 138.5,-28.5"/>
<text text-anchor="start" x="143.5" y="-37.3" font-family="Times New Roman,serif" font-size="14.00">VECTOR</text>
<polygon fill="none" stroke="black" points="206.5,-28.5 206.5,-53.5 255.5,-53.5 255.5,-28.5 206.5,-28.5"/>
<text text-anchor="start" x="215" y="-37.3" font-family="Times New Roman,serif" font-size="14.00">Local</text>
<polygon fill="none" stroke="black" points="255.5,-28.5 255.5,-53.5 282.5,-53.5 282.5,-28.5 255.5,-28.5"/>
<text text-anchor="start" x="265.5" y="-37.3" font-family="Times New Roman,serif" font-size="14.00">2</text>
<polygon fill="none" stroke="black" points="282.5,-28.5 282.5,-53.5 339.5,-53.5 339.5,-28.5 282.5,-28.5"/>
<text text-anchor="start" x="307.5" y="-37.3" font-family="Times New Roman,serif" font-size="14.00">4</text>
<polygon fill="none" stroke="black" points="8.5,-3.5 8.5,-28.5 54.5,-28.5 54.5,-3.5 8.5,-3.5"/>
<text text-anchor="start" x="13.5" y="-12.3" font-family="Times New Roman,serif" font-size="14.00">vector</text>
<polygon fill="none" stroke="black" points="54.5,-3.5 54.5,-28.5 138.5,-28.5 138.5,-3.5 54.5,-3.5"/>
<text text-anchor="start" x="61.5" y="-12.3" font-family="Times New Roman,serif" font-size="14.00">VARIABLE</text>
<polygon fill="none" stroke="black" points="138.5,-3.5 138.5,-28.5 206.5,-28.5 206.5,-3.5 138.5,-3.5"/>
<text text-anchor="start" x="143.5" y="-12.3" font-family="Times New Roman,serif" font-size="14.00">VECTOR</text>
<polygon fill="none" stroke="black" points="206.5,-3.5 206.5,-28.5 255.5,-28.5 255.5,-3.5 206.5,-3.5"/>
<text text-anchor="start" x="215" y="-12.3" font-family="Times New Roman,serif" font-size="14.00">Local</text>
<polygon fill="none" stroke="black" points="255.5,-3.5 255.5,-28.5 282.5,-28.5 282.5,-3.5 255.5,-3.5"/>
<text text-anchor="start" x="265.5" y="-12.3" font-family="Times New Roman,serif" font-size="14.00">3</text>
<polygon fill="none" stroke="black" points="282.5,-3.5 282.5,-28.5 339.5,-28.5 339.5,-3.5 282.5,-3.5"/>
<text text-anchor="start" x="307.5" y="-12.3" font-family="Times New Roman,serif" font-size="14.00">4</text>
</g>
</g>
</svg>
