<?xml version="1.0" encoding="UTF-8" standalone="no"?>
<!DOCTYPE svg PUBLIC "-//W3C//DTD SVG 1.1//EN"
 "http://www.w3.org/Graphics/SVG/1.1/DTD/svg11.dtd">
<!-- Generated by graphviz version 3.0.0 (20220226.1711)
 -->
<!-- Pages: 1 -->
<svg width="586pt" height="62pt"
 viewBox="0.00 0.00 586.00 62.00" xmlns="http://www.w3.org/2000/svg" xmlns:xlink="http://www.w3.org/1999/xlink">
<g id="graph0" class="graph" transform="scale(1 1) rotate(0) translate(4 58)">
<polygon fill="white" stroke="transparent" points="-4,4 -4,-58 582,-58 582,4 -4,4"/>
<!-- tablaSimbolos -->
<g id="node1" class="node">
<title>tablaSimbolos</title>
<polygon fill="none" stroke="black" points="8,-29 8,-50 36,-50 36,-29 8,-29"/>
<text text-anchor="start" x="11" y="-35.8" font-family="Times New Roman,serif" font-size="14.00">No.</text>
<polygon fill="none" stroke="black" points="36,-29 36,-50 302,-50 302,-29 36,-29"/>
<text text-anchor="start" x="135" y="-35.8" font-family="Times New Roman,serif" font-size="14.00">Descripción</text>
<polygon fill="none" stroke="black" points="302,-29 302,-50 351,-50 351,-29 302,-29"/>
<text text-anchor="start" x="305" y="-35.8" font-family="Times New Roman,serif" font-size="14.00">Ámbito</text>
<polygon fill="none" stroke="black" points="351,-29 351,-50 389,-50 389,-29 351,-29"/>
<text text-anchor="start" x="354" y="-35.8" font-family="Times New Roman,serif" font-size="14.00">Línea</text>
<polygon fill="none" stroke="black" points="389,-29 389,-50 446,-50 446,-29 389,-29"/>
<text text-anchor="start" x="392" y="-35.8" font-family="Times New Roman,serif" font-size="14.00">Columna</text>
<polygon fill="none" stroke="black" points="446,-29 446,-50 570,-50 570,-29 446,-29"/>
<text text-anchor="start" x="471.5" y="-35.8" font-family="Times New Roman,serif" font-size="14.00">Fecha y hora</text>
<polygon fill="none" stroke="black" points="8,-4 8,-29 36,-29 36,-4 8,-4"/>
<text text-anchor="start" x="18.5" y="-12.8" font-family="Times New Roman,serif" font-size="14.00">1</text>
<polygon fill="none" stroke="black" points="36,-4 36,-29 302,-29 302,-4 36,-4"/>
<text text-anchor="start" x="41" y="-12.8" font-family="Times New Roman,serif" font-size="14.00">no viable alternative at input &#39;fnescribir(a:[i64]&#39;</text>
<polygon fill="none" stroke="black" points="302,-4 302,-29 351,-29 351,-4 302,-4"/>
<text text-anchor="start" x="307.5" y="-12.8" font-family="Times New Roman,serif" font-size="14.00">Global</text>
<polygon fill="none" stroke="black" points="351,-4 351,-29 389,-29 389,-4 351,-4"/>
<text text-anchor="start" x="363" y="-12.8" font-family="Times New Roman,serif" font-size="14.00">13</text>
<polygon fill="none" stroke="black" points="389,-4 389,-29 446,-29 446,-4 389,-4"/>
<text text-anchor="start" x="410.5" y="-12.8" font-family="Times New Roman,serif" font-size="14.00">19</text>
<polygon fill="none" stroke="black" points="446,-4 446,-29 570,-29 570,-4 446,-4"/>
<text text-anchor="start" x="451" y="-12.8" font-family="Times New Roman,serif" font-size="14.00">04&#45;10&#45;2022 17:44:26</text>
</g>
</g>
</svg>
