<?xml version="1.0" encoding="UTF-8" standalone="no"?>
<!DOCTYPE svg PUBLIC "-//W3C//DTD SVG 1.1//EN"
 "http://www.w3.org/Graphics/SVG/1.1/DTD/svg11.dtd">
<!-- Generated by graphviz version 3.0.0 (20220226.1711)
 -->
<!-- Pages: 1 -->
<svg width="445pt" height="62pt"
 viewBox="0.00 0.00 445.00 62.00" xmlns="http://www.w3.org/2000/svg" xmlns:xlink="http://www.w3.org/1999/xlink">
<g id="graph0" class="graph" transform="scale(1 1) rotate(0) translate(4 58)">
<polygon fill="white" stroke="transparent" points="-4,4 -4,-58 441,-58 441,4 -4,4"/>
<!-- tablaSimbolos -->
<g id="node1" class="node">
<title>tablaSimbolos</title>
<polygon fill="none" stroke="black" points="8.5,-29 8.5,-50 36.5,-50 36.5,-29 8.5,-29"/>
<text text-anchor="start" x="11.5" y="-35.8" font-family="Times New Roman,serif" font-size="14.00">No.</text>
<polygon fill="none" stroke="black" points="36.5,-29 36.5,-50 161.5,-50 161.5,-29 36.5,-29"/>
<text text-anchor="start" x="65" y="-35.8" font-family="Times New Roman,serif" font-size="14.00">Descripción</text>
<polygon fill="none" stroke="black" points="161.5,-29 161.5,-50 210.5,-50 210.5,-29 161.5,-29"/>
<text text-anchor="start" x="164.5" y="-35.8" font-family="Times New Roman,serif" font-size="14.00">Ámbito</text>
<polygon fill="none" stroke="black" points="210.5,-29 210.5,-50 248.5,-50 248.5,-29 210.5,-29"/>
<text text-anchor="start" x="213.5" y="-35.8" font-family="Times New Roman,serif" font-size="14.00">Línea</text>
<polygon fill="none" stroke="black" points="248.5,-29 248.5,-50 305.5,-50 305.5,-29 248.5,-29"/>
<text text-anchor="start" x="251.5" y="-35.8" font-family="Times New Roman,serif" font-size="14.00">Columna</text>
<polygon fill="none" stroke="black" points="305.5,-29 305.5,-50 429.5,-50 429.5,-29 305.5,-29"/>
<text text-anchor="start" x="331" y="-35.8" font-family="Times New Roman,serif" font-size="14.00">Fecha y hora</text>
<polygon fill="none" stroke="black" points="8.5,-4 8.5,-29 36.5,-29 36.5,-4 8.5,-4"/>
<text text-anchor="start" x="19" y="-12.8" font-family="Times New Roman,serif" font-size="14.00">1</text>
<polygon fill="none" stroke="black" points="36.5,-4 36.5,-29 161.5,-29 161.5,-4 36.5,-4"/>
<text text-anchor="start" x="41.5" y="-12.8" font-family="Times New Roman,serif" font-size="14.00">missing &#39;;&#39; at &#39;vector&#39;</text>
<polygon fill="none" stroke="black" points="161.5,-4 161.5,-29 210.5,-29 210.5,-4 161.5,-4"/>
<text text-anchor="start" x="167" y="-12.8" font-family="Times New Roman,serif" font-size="14.00">Global</text>
<polygon fill="none" stroke="black" points="210.5,-4 210.5,-29 248.5,-29 248.5,-4 210.5,-4"/>
<text text-anchor="start" x="226" y="-12.8" font-family="Times New Roman,serif" font-size="14.00">4</text>
<polygon fill="none" stroke="black" points="248.5,-4 248.5,-29 305.5,-29 305.5,-4 248.5,-4"/>
<text text-anchor="start" x="273.5" y="-12.8" font-family="Times New Roman,serif" font-size="14.00">4</text>
<polygon fill="none" stroke="black" points="305.5,-4 305.5,-29 429.5,-29 429.5,-4 305.5,-4"/>
<text text-anchor="start" x="310.5" y="-12.8" font-family="Times New Roman,serif" font-size="14.00">04&#45;04&#45;2022 23:37:18</text>
</g>
</g>
</svg>
