<?xml version="1.0" encoding="UTF-8" standalone="no"?>
<!DOCTYPE svg PUBLIC "-//W3C//DTD SVG 1.1//EN"
 "http://www.w3.org/Graphics/SVG/1.1/DTD/svg11.dtd">
<!-- Generated by graphviz version 3.0.0 (20220226.1711)
 -->
<!-- Pages: 1 -->
<svg width="416pt" height="62pt"
 viewBox="0.00 0.00 416.00 62.00" xmlns="http://www.w3.org/2000/svg" xmlns:xlink="http://www.w3.org/1999/xlink">
<g id="graph0" class="graph" transform="scale(1 1) rotate(0) translate(4 58)">
<polygon fill="white" stroke="transparent" points="-4,4 -4,-58 412,-58 412,4 -4,4"/>
<!-- tablaSimbolos -->
<g id="node1" class="node">
<title>tablaSimbolos</title>
<polygon fill="none" stroke="black" points="8,-29 8,-50 36,-50 36,-29 8,-29"/>
<text text-anchor="start" x="11" y="-35.8" font-family="Times New Roman,serif" font-size="14.00">No.</text>
<polygon fill="none" stroke="black" points="36,-29 36,-50 132,-50 132,-29 36,-29"/>
<text text-anchor="start" x="50" y="-35.8" font-family="Times New Roman,serif" font-size="14.00">Descripción</text>
<polygon fill="none" stroke="black" points="132,-29 132,-50 181,-50 181,-29 132,-29"/>
<text text-anchor="start" x="135" y="-35.8" font-family="Times New Roman,serif" font-size="14.00">Ámbito</text>
<polygon fill="none" stroke="black" points="181,-29 181,-50 219,-50 219,-29 181,-29"/>
<text text-anchor="start" x="184" y="-35.8" font-family="Times New Roman,serif" font-size="14.00">Línea</text>
<polygon fill="none" stroke="black" points="219,-29 219,-50 276,-50 276,-29 219,-29"/>
<text text-anchor="start" x="222" y="-35.8" font-family="Times New Roman,serif" font-size="14.00">Columna</text>
<polygon fill="none" stroke="black" points="276,-29 276,-50 400,-50 400,-29 276,-29"/>
<text text-anchor="start" x="301.5" y="-35.8" font-family="Times New Roman,serif" font-size="14.00">Fecha y hora</text>
<polygon fill="none" stroke="black" points="8,-4 8,-29 36,-29 36,-4 8,-4"/>
<text text-anchor="start" x="18.5" y="-12.8" font-family="Times New Roman,serif" font-size="14.00">1</text>
<polygon fill="none" stroke="black" points="36,-4 36,-29 132,-29 132,-4 36,-4"/>
<text text-anchor="start" x="41" y="-12.8" font-family="Times New Roman,serif" font-size="14.00">missing &#39;;&#39; at &#39;}&#39;</text>
<polygon fill="none" stroke="black" points="132,-4 132,-29 181,-29 181,-4 132,-4"/>
<text text-anchor="start" x="137.5" y="-12.8" font-family="Times New Roman,serif" font-size="14.00">Global</text>
<polygon fill="none" stroke="black" points="181,-4 181,-29 219,-29 219,-4 181,-4"/>
<text text-anchor="start" x="193" y="-12.8" font-family="Times New Roman,serif" font-size="14.00">13</text>
<polygon fill="none" stroke="black" points="219,-4 219,-29 276,-29 276,-4 219,-4"/>
<text text-anchor="start" x="244" y="-12.8" font-family="Times New Roman,serif" font-size="14.00">0</text>
<polygon fill="none" stroke="black" points="276,-4 276,-29 400,-29 400,-4 276,-4"/>
<text text-anchor="start" x="281" y="-12.8" font-family="Times New Roman,serif" font-size="14.00">04&#45;07&#45;2022 01:57:36</text>
</g>
</g>
</svg>
